<svg t="1574733316847" class="icon" viewBox="0 0 1024 1024" version="1.1" xmlns="http://www.w3.org/2000/svg" p-id="3468" width="200" height="200"><path d="M190.551771 972.814629a69.061486 69.061486 0 0 1-69.061485-69.061486V190.171429a69.061486 69.061486 0 0 1 69.061485-69.061486H213.577143v46.050743a92.072229 92.072229 0 0 0 92.072228 92.072228H673.938286a92.16 92.16 0 0 0 92.086857-92.072228V121.109943h23.010743a69.061486 69.061486 0 0 1 69.061485 69.046857v384.146286a229.536914 229.536914 0 0 0-319.0784 116.487314H305.634743a28.8768 28.8768 0 0 0 0 57.738971h218.141257a217.088 217.088 0 0 0 3.847314 80.369372H374.696229a28.8768 28.8768 0 0 0 0 57.738971h174.562742a231.394743 231.394743 0 0 0 81.481143 86.2208z m163.7376-549.844115a28.862171 28.862171 0 0 0 20.406858 49.283657h86.308571v86.235429a28.891429 28.891429 0 0 0 28.862171 28.847543 28.920686 28.920686 0 0 0 28.847543-28.847543v-86.235429h86.2208a28.8768 28.8768 0 0 0 0-57.738971h-86.279314v-86.235429a28.862171 28.862171 0 0 0-57.738971 0v86.2208h-86.308572a28.701257 28.701257 0 0 0-20.319086 8.469943z m211.324343 354.786743a186.119314 186.119314 0 1 1 186.104686 185.9584 186.016914 186.016914 0 0 1-186.104686-185.9584z m58.514286-25.439086a23.405714 23.405714 0 0 0 0 33.909029l79.140571 76.1856a25.570743 25.570743 0 0 0 35.210972 0l140.770743-135.519086a23.317943 23.317943 0 0 0 0-33.8944 25.570743 25.570743 0 0 0-35.210972 0l-123.157943 118.637715-61.586285-59.318858a25.556114 25.556114 0 0 0-35.210972 0zM303.498971 213.1968a43.885714 43.885714 0 0 1-43.885714-43.885714V95.9488a43.885714 43.885714 0 0 1 43.885714-43.885714h372.589715a43.885714 43.885714 0 0 1 43.885714 43.885714v73.362286a43.885714 43.885714 0 0 1-43.885714 43.885714z" fill="#ADB5BD" p-id="3469"></path></svg>