<svg t="1584256360780" class="icon" viewBox="0 0 1024 1024" version="1.1" xmlns="http://www.w3.org/2000/svg" p-id="6336" width="20" height="20"><path d="M442.581333 906.069333c-142.890667 0-258.730667 0-258.730666-59.733333v-17.066667a261.888 261.888 0 0 1 258.730666-265.045333h166.954667a261.888 261.888 0 0 1 258.730667 264.917333v17.066667c0 57.642667-115.84 59.733333-258.730667 59.733333zM317.44 328.96a202.709333 202.709333 0 0 1 200.234667-205.056 202.709333 202.709333 0 0 1 200.277333 205.056 202.752 202.752 0 0 1-200.277333 205.141333A202.752 202.752 0 0 1 317.44 328.96z" p-id="6337"></path></svg>