<svg t="1584258577175" class="icon" viewBox="0 0 1024 1024" version="1.1" xmlns="http://www.w3.org/2000/svg" p-id="6604" width="20" height="20"><path d="M673.735111 213.959111a31.175111 31.175111 0 0 0-4.664889-2.332444 31.459556 31.459556 0 0 0-38.684444 12.856889 31.232 31.232 0 0 0-3.754667 23.836444 31.232 31.232 0 0 0 14.222222 19.456 252.700444 252.700444 0 0 1 114.744889 157.127111 252.586667 252.586667 0 0 1-29.752889 192.227556 31.175111 31.175111 0 0 0-3.697777 23.836444 31.345778 31.345778 0 0 0 14.222222 19.512889 35.441778 35.441778 0 0 0 4.664889 2.332444 31.402667 31.402667 0 0 0 19.228444 1.365334 31.402667 31.402667 0 0 0 19.512889-14.222222 317.724444 317.724444 0 0 0-106.040889-436.053334z m-108.487111 464.497778a485.603556 485.603556 0 0 1 50.574222 82.659555 88.803556 88.803556 0 0 1 10.524445 64.682667 74.353778 74.353778 0 0 1-43.804445 37.944889 167.936 167.936 0 0 1-120.945778 2.901333 191.431111 191.431111 0 0 1-49.550222-26.851555 254.919111 254.919111 0 0 1-46.705778-45.511111 578.844444 578.844444 0 0 1-118.954666-246.897778 558.648889 558.648889 0 0 1 6.883555-317.553778 176.355556 176.355556 0 0 1 151.096889-115.484444 92.899556 92.899556 0 0 1 39.822222 3.697777 54.442667 54.442667 0 0 1 14.222223 7.509334 55.011556 55.011556 0 0 1 21.219555 41.358222 519.111111 519.111111 0 0 1-5.404444 115.086222c-6.371556 44.032-33.564444 47.331556-59.790222 50.517334h-0.796445l-53.248 2.730666a15.075556 15.075556 0 0 0-14.279111 14.677334 678.741333 678.741333 0 0 0 18.488889 169.472 684.145778 684.145778 0 0 0 57.912889 158.037333 15.132444 15.132444 0 0 0 8.248889 7.168l1.251555 0.341333a15.018667 15.018667 0 0 0 11.889778-1.820444 282.055111 282.055111 0 0 1 34.929778-19.114667 81.635556 81.635556 0 0 1 60.131555-7.793778 46.478222 46.478222 0 0 1 12.117334 6.485334 86.016 86.016 0 0 1 14.222222 15.758222z m-52.280889-247.296a31.402667 31.402667 0 0 1-14.279111-19.512889 31.288889 31.288889 0 0 1 3.697778-23.893333 31.459556 31.459556 0 0 1 38.684444-12.856889 29.809778 29.809778 0 0 1 4.664889 2.332444 135.850667 135.850667 0 0 1 45.511111 186.424889 31.402667 31.402667 0 0 1-19.456 14.279111 31.744 31.744 0 0 1-19.228444-1.365333 34.133333 34.133333 0 0 1-4.664889-2.332445 31.232 31.232 0 0 1-14.279111-19.512888 31.288889 31.288889 0 0 1 3.697778-23.836445 72.021333 72.021333 0 0 0 8.476444-54.897778 72.078222 72.078222 0 0 0-32.711111-44.771555z m64.170667-82.033778a31.630222 31.630222 0 0 1-10.524445-43.349333 31.459556 31.459556 0 0 1 38.684445-12.913778 31.971556 31.971556 0 0 1 4.664889 2.332444 225.393778 225.393778 0 0 1 102.4 140.231112 225.28 225.28 0 0 1-26.567111 171.52 31.232 31.232 0 0 1-19.512889 14.222222 31.175111 31.175111 0 0 1-19.171556-1.365334 31.971556 31.971556 0 0 1-4.664889-2.389333 31.573333 31.573333 0 0 1-10.524444-43.349333 162.702222 162.702222 0 0 0 19.171555-123.847111 162.588444 162.588444 0 0 0-73.955555-101.205334z" p-id="6605"></path></svg>