<svg t="1584258614504" class="icon" viewBox="0 0 1024 1024" version="1.1" xmlns="http://www.w3.org/2000/svg" p-id="6738" width="20" height="20"><path d="M858.567111 527.303111a67.072 67.072 0 0 1 2.389333 17.066667v254.748444a67.925333 67.925333 0 0 1-67.925333 67.811556H266.638222a67.925333 67.925333 0 0 1-67.925333-67.925334V544.312889a67.015111 67.015111 0 0 1 2.389333-17.066667H113.777778l152.860444-169.813333h135.850667l84.992 67.982222-68.266667 67.925333-84.935111-51.2-51.2 63.658667v263.395556a29.696 29.696 0 0 0 29.866667 29.582222h211.342222a32.199111 32.199111 0 0 1-8.590222-5.688889l-45.226667-45.511111a31.971556 31.971556 0 0 1 0-45.226667l34.133333-34.133333v45.112889h67.697778v-44.373334l34.133334 34.133334a31.971556 31.971556 0 0 1 0 45.226666l-45.226667 45.511112a32.199111 32.199111 0 0 1-8.590222 5.688888h193.877333a29.696 29.696 0 0 0 29.866667-29.525333v-263.395555l-51.2-63.658667-84.935111 51.2-67.925334-68.721778 84.935111-67.925333h135.850667l152.803556 169.813333h-87.324445z m-116.451555-203.776h-84.935112a34.133333 34.133333 0 0 1-34.133333-34.133333V204.458667a34.133333 34.133333 0 0 1 34.133333-34.133334h84.935112a34.133333 34.133333 0 0 1 34.133333 34.133334v84.935111a34.133333 34.133333 0 0 1-34.133333 34.133333zM515.925333 453.859556a32.028444 32.028444 0 0 1 45.226667 0l45.226667 45.511111a31.971556 31.971556 0 0 1 0 45.226666l-34.133334 34.133334v-51.427556h-67.697777v50.858667l-34.133334-34.133334a31.971556 31.971556 0 0 1 0-45.226666l45.226667-45.511111z m-40.391111 209.294222l-24.576 24.405333a31.971556 31.971556 0 0 1-44.999111 0l-45.056-44.771555a31.516444 31.516444 0 0 1 0-44.771556l44.999111-44.771556a31.971556 31.971556 0 0 1 44.999111 0l42.154667 41.927112h-56.888889v67.925333z m108.088889-67.925334L625.777778 553.301333a31.971556 31.971556 0 0 1 44.999111 0l44.999111 44.771556a31.516444 31.516444 0 0 1 0 44.771555l-44.999111 44.771556a31.971556 31.971556 0 0 1-44.999111 0l-24.519111-24.462222h39.025777v-67.925334h-56.888888z m-34.133333-237.738666h-56.32a22.755556 22.755556 0 0 1-22.755556-22.755556v-56.604444a22.755556 22.755556 0 0 1 22.755556-22.755556h56.604444a22.755556 22.755556 0 0 1 22.755556 22.755556v56.604444a22.755556 22.755556 0 0 1-22.869334 22.755556z m-147.171556-34.133334h-84.764444a34.133333 34.133333 0 0 1-34.133334-34.133333V204.288a34.133333 34.133333 0 0 1 34.133334-34.133333h84.935111a34.133333 34.133333 0 0 1 34.133333 34.133333v84.935111a34.133333 34.133333 0 0 1-34.133333 34.133333z" p-id="6739"></path></svg>