<svg t="1574733430463" class="icon" viewBox="0 0 1024 1024" version="1.1" xmlns="http://www.w3.org/2000/svg" p-id="3580" width="200" height="200"><path d="M214.791314 943.279543a93.242514 93.242514 0 0 1-93.301028-93.2864V162.7136a90.287543 90.287543 0 0 1 93.301028-93.2864h550.034286a90.287543 90.287543 0 0 1 93.2864 93.2864v369.898057a229.376 229.376 0 0 0-306.980571 91.472457H239.338057a29.461943 29.461943 0 0 0 0 58.938515h288.826514a228.849371 228.849371 0 0 0-6.4512 53.116342c0 5.280914 0.438857 10.4448 0.789943 15.623315H239.338057a29.461943 29.461943 0 0 0 0 58.938514h295.087543a230.7072 230.7072 0 0 0 118.491429 132.593371z m0-569.621943v83.426743c0 9.8304 9.8304 29.461943 24.546743 29.461943a31.685486 31.685486 0 0 0 29.476572-29.461943v-83.382857l98.2016 98.2016a36.571429 36.571429 0 0 0 44.192914 0 29.856914 29.856914 0 0 0 0-39.277715l-63.824457-63.839085a79.389257 79.389257 0 0 0 68.754285-78.570057 86.059886 86.059886 0 0 0-83.485257-83.485258h-117.8624z m422.326857 103.1168a27.794286 27.794286 0 0 0 39.263086-39.292343l-58.9824-58.923886 58.9824-58.9824a29.856914 29.856914 0 0 0 0-39.277714 29.871543 29.871543 0 0 0-39.263086 0l-58.938514 58.923886-58.938514-58.923886a29.886171 29.886171 0 0 0-39.277714 0 29.856914 29.856914 0 0 0 0 39.277714l58.923885 58.938515-58.923885 58.967771a27.794286 27.794286 0 0 0 39.277714 39.292343l58.938514-58.923886z m-71.504457 259.349943a186.119314 186.119314 0 1 1 186.104686 185.9584 186.002286 186.002286 0 0 1-186.104686-185.9584z m58.514286-25.424457a23.405714 23.405714 0 0 0 0 33.909028l79.140571 76.1856a25.556114 25.556114 0 0 0 35.196343 0l140.785372-135.504457a23.405714 23.405714 0 0 0 0-33.8944 25.585371 25.585371 0 0 0-35.196343 0l-123.157943 118.637714-61.586286-59.333485a25.556114 25.556114 0 0 0-35.196343 0zM263.899429 319.575771v-53.9648h58.938514a27.121371 27.121371 0 1 1 4.9152 53.9648z" fill="#ADB5BD" p-id="3581"></path></svg>