<svg t="1574733116978" class="icon" viewBox="0 0 1024 1024" version="1.1" xmlns="http://www.w3.org/2000/svg" p-id="3017" width="200" height="200"><path d="M855.691636 418.816a361.565091 361.565091 0 0 0-66.373818-111.290182 38.4 38.4 0 0 0-52.270545-3.909818 150.900364 150.900364 0 0 0-170.309818-188.881455 37.236364 37.236364 0 0 0-31.045819 42.821819 37.841455 37.841455 0 0 0 40.308364 31.232h2.56a76.846545 76.846545 0 1 1-43.845818 128.418909 38.493091 38.493091 0 0 0-52.922182-1.722182 37.562182 37.562182 0 0 0-1.675636 52.922182 152.576 152.576 0 0 0 110.498909 47.848727c8.145455-0.093091 16.290909-0.651636 24.389818-1.768727a143.453091 143.453091 0 0 0 109.381818-79.127273c0.325818 8.005818 3.258182 15.732364 8.378182 21.922909a286.999273 286.999273 0 0 1 59.159273 107.380364 37.236364 37.236364 0 0 0 35.84 26.670545 51.898182 51.898182 0 0 1 53.480727 51.2 53.806545 53.806545 0 0 1-52.270546 53.061818 37.236364 37.236364 0 0 0-35.234909 27.508364 289.419636 289.419636 0 0 1-558.266181 0 37.236364 37.236364 0 0 0-34.536728-27.601455 53.387636 53.387636 0 0 1 1.582546-106.682181 37.562182 37.562182 0 0 0 35.141818-26.530909 287.883636 287.883636 0 0 1 276.945454-205.079273 37.376 37.376 0 1 0 0-74.752 365.009455 365.009455 0 0 0-340.619636 234.961454 128.186182 128.186182 0 0 0-3.490909 248.738909 364.218182 364.218182 0 0 0 687.941818 0.465455 128.605091 128.605091 0 0 0 97.745455-124.369455 125.672727 125.672727 0 0 0-100.491637-123.438545z" fill="#353D48" p-id="3018"></path><path d="M360.261818 462.894545a58.833455 58.833455 0 1 0-3.304727 117.620364 58.833455 58.833455 0 0 0 3.304727-117.620364zM510.976 731.834182a141.265455 141.265455 0 0 1-121.809455-70.469818 38.4 38.4 0 0 0-51.2-13.544728 37.236364 37.236364 0 0 0-13.637818 51.2 215.552 215.552 0 0 0 373.154909 0 37.608727 37.608727 0 0 0-13.963636-51.2 38.4 38.4 0 0 0-51.2 13.684364 141.032727 141.032727 0 0 1-121.344 70.330182zM727.784727 521.728a58.833455 58.833455 0 1 0-117.666909-0.093091 58.833455 58.833455 0 0 0 117.666909 0.093091z" fill="#353D48" p-id="3019"></path></svg>