<svg id="组件_19_5" data-name="组件 19 – 5" xmlns="http://www.w3.org/2000/svg" width="44" height="44" viewBox="0 0 44 44">
  <defs>
    <style>
      .cls-1 {
        fill: none;
      }

      .cls-2 {
        fill: #fff;
      }
    </style>
  </defs>
  <rect id="矩形_498" data-name="矩形 498" class="cls-1" width="44" height="44"/>
  <path id="路径_149" data-name="路径 149" class="cls-2" d="M365.142,398.347a21.625,21.625,0,0,0-6.086-7.883,6.773,6.773,0,0,1-5.7,6.62,8.462,8.462,0,0,1-1.092.079,6.834,6.834,0,0,1-4.949-2.14,1.311,1.311,0,0,1,1.913-1.793,4.191,4.191,0,0,0,3.045,1.319,3.948,3.948,0,0,0,.66-.054,4.181,4.181,0,0,0,3.451-4.782,4.088,4.088,0,0,0-.4-1.2,14.852,14.852,0,0,0-6.579-1.583h-.783a16.991,16.991,0,0,0-15.976,11.205,5.716,5.716,0,0,0-4.625,5.569,5.651,5.651,0,0,0,4.469,5.535,16.985,16.985,0,0,0,32.251.021,5.724,5.724,0,0,0,4.566-5.556A5.5,5.5,0,0,0,365.142,398.347Zm-26.265,4.377a2.338,2.338,0,0,1,4.675,0,2.332,2.332,0,0,1-2.337,2.339A2.341,2.341,0,0,1,338.878,402.724Zm18.1,8.595a9.854,9.854,0,0,1-17.061,0,1.311,1.311,0,0,1,.478-1.789,1.294,1.294,0,0,1,.656-.18,1.324,1.324,0,0,1,1.135.656,7.226,7.226,0,0,0,12.521.006,1.311,1.311,0,0,1,2.271,1.312Zm-.946-6.256a2.338,2.338,0,1,1,2.338-2.339A2.342,2.342,0,0,1,356.032,405.063Z" transform="translate(-327.021 -381.932)"/>
</svg>
