<svg id="组件_60_1" data-name="组件 60 – 1" xmlns="http://www.w3.org/2000/svg" width="44" height="44" viewBox="0 0 44 44">
  <defs>
    <style>
      .cls-1 {
        fill: none;
      }

      .cls-2 {
        fill: #fff;
      }
    </style>
  </defs>
  <rect id="矩形_536" data-name="矩形 536" class="cls-1" width="44" height="44"/>
  <g id="组_100" data-name="组 100" transform="translate(8 2)">
    <path id="联合_28" data-name="联合 28" class="cls-2" d="M-942.188-2986.457a1.367,1.367,0,0,1-1.353-1.353v-2.983a8.076,8.076,0,0,0,1.372.139,7.012,7.012,0,0,0,7-7,7.012,7.012,0,0,0-7-7,8.076,8.076,0,0,0-1.372.139v-3.023a1.333,1.333,0,0,1,1.333-1.333h7.757a5.175,5.175,0,0,1,5.172,5.232v11.994a5.208,5.208,0,0,1-5.192,5.191Zm-18.5-.04a1.312,1.312,0,0,1-1.313-1.313v-23.014a8.685,8.685,0,0,1,1.711-5.191,8.81,8.81,0,0,1,3.441-2.765v-3.641a3.591,3.591,0,0,1,3.581-3.58,3.59,3.59,0,0,1,3.58,3.58v3.641a8.893,8.893,0,0,1,3.421,2.765,8.537,8.537,0,0,1,1.691,5.191v23.014a1.312,1.312,0,0,1-1.313,1.313Zm3.342-23.094v8.414a1.312,1.312,0,0,0,1.313,1.313,1.311,1.311,0,0,0,1.312-1.313v-8.414a1.311,1.311,0,0,0-1.312-1.312A1.312,1.312,0,0,0-957.345-3009.59Zm14.1,15.993a1.519,1.519,0,0,0-.3-.02v-8.116a1.519,1.519,0,0,0,.3-.02,4.277,4.277,0,0,1,2.128,0,4.2,4.2,0,0,1,3.024,5.132,4.241,4.241,0,0,1-4.1,3.157A4.276,4.276,0,0,1-943.242-2993.6Z" transform="translate(962 3026)"/>
  </g>
</svg>
