<svg id="组件_71_3" data-name="组件 71 – 3" xmlns="http://www.w3.org/2000/svg" xmlns:xlink="http://www.w3.org/1999/xlink" width="44" height="44" viewBox="0 0 44 44">
  <defs>
    <style>
      .cls-1 {
        fill: none;
      }

      .cls-2 {
        fill: #fff;
      }

      .cls-3 {
        filter: url(#路径_218);
      }
    </style>
    <filter id="路径_218" x="28.28" y="7.48" width="15.007" height="17.397" filterUnits="userSpaceOnUse">
      <feOffset dy="3" input="SourceAlpha"/>
      <feGaussianBlur stdDeviation="1.5" result="blur"/>
      <feFlood flood-opacity="0.102"/>
      <feComposite operator="in" in2="blur"/>
      <feComposite in="SourceGraphic"/>
    </filter>
  </defs>
  <rect id="矩形_546" data-name="矩形 546" class="cls-1" width="44" height="44"/>
  <g id="组_102" data-name="组 102" transform="translate(5.997 1.986)">
    <g class="cls-3" transform="matrix(1, 0, 0, 1, -6, -1.99)">
      <path id="路径_218-2" data-name="路径 218" class="cls-2" d="M16.42,3.593a.388.388,0,0,0-.306-.163.36.36,0,0,0-.306.163c-.776,1.083-2.7,3.9-2.7,5.23a3,3,0,1,0,6.007,0C19.117,7.5,17.176,4.676,16.42,3.593Z" transform="translate(19.67 5.55)"/>
    </g>
    <path id="路径_219" data-name="路径 219" class="cls-2" d="M25.863,22.93l1.451-1.451a2.432,2.432,0,0,0-2.758-3.923,3.162,3.162,0,0,0-2.452-5.23l-1.553.306,7.314-7.314A3.106,3.106,0,0,0,23.473.925L14.687,9.711h0L11.153,13.2a.778.778,0,0,1-.531.225.869.869,0,0,1-.552-.225.753.753,0,0,1,0-1.083l2.615-2.615a9.344,9.344,0,0,0-2.227.1,3.973,3.973,0,0,0-2.8,1.716,37.959,37.959,0,0,0-2.37,6.109C4.778,19.293,3.9,24.809,3.9,24.809L.263,28.426a.925.925,0,0,0,0,1.287L9.845,39.3a.925.925,0,0,0,1.287,0l3.616-3.637a14.546,14.546,0,0,0,4.822-.245c1.716-.49,4.188-3.33,4.188-3.33l5.5-5.68a2.427,2.427,0,0,0-3.392-3.473Z" transform="translate(0 0)"/>
  </g>
</svg>
