<svg t="1574733007859" class="icon" viewBox="0 0 1024 1024" version="1.1" xmlns="http://www.w3.org/2000/svg" p-id="2791" width="200" height="200"><path d="M877.149091 407.086545l-2.048-4.654545a24.715636 24.715636 0 1 0-44.497455 0 897.861818 897.861818 0 0 0-71.354181 197.399273 94.021818 94.021818 0 0 0 93.416727 93.742545 93.882182 93.882182 0 0 0 93.742545-93.742545 704 704 0 0 0-69.259636-192.744728z m-51.712 179.339637a430.452364 430.452364 0 0 1 27.275636-80.523637c11.450182 25.041455 20.433455 51.153455 26.856728 77.917091a29.509818 29.509818 0 0 1 0.558545 6.423273 27.927273 27.927273 0 0 1-29.602909 24.994909 27.648 27.648 0 0 1-25.041455-28.811636h-0.046545z" fill="#353D48" p-id="2792"></path><path d="M625.291636 444.183273l256-83.781818a85.922909 85.922909 0 0 0 54.970182-108.357819l-13.125818-39.982545a85.643636 85.643636 0 0 0-108.357818-54.970182L136.192 379.019636c-13.172364 4.514909-25.134545 12.008727-34.955636 21.876364l-13.125819 17.408c-12.101818 21.224727-14.708364 46.545455-7.121454 69.818182l111.383273 340.293818a86.109091 86.109091 0 0 0 82.106181 59.624727 88.436364 88.436364 0 0 0 26.856728-4.328727l340.293818-111.383273a86.481455 86.481455 0 0 0 55.249454-109.009454l-71.586909-219.136z m238.731637-168.494546a9.867636 9.867636 0 0 1-6.283637 12.381091L527.825455 396.008727l95.83709 291.048728a9.309091 9.309091 0 0 1-5.957818 11.86909L277.410909 810.216727a8.657455 8.657455 0 0 1-11.776-5.957818l-111.336727-340.247273a9.309091 9.309091 0 0 1 5.957818-11.776l678.260364-222.813091a9.867636 9.867636 0 0 1 12.381091 6.283637l13.125818 39.982545z" fill="#353D48" p-id="2793"></path></svg>