<svg t="1584102409137" class="icon" viewBox="0 0 1024 1024" version="1.1" xmlns="http://www.w3.org/2000/svg" p-id="6304" width="20" height="20"><path d="M512 0A512 512 0 1 1 0 512 512 512 0 0 1 512 0z" fill="#EDEDED" p-id="6305"></path><path d="M685.468098 364.419122a176.939707 176.939707 0 0 1-179.674537 173.580488 176.952195 176.952195 0 0 1-179.662049-173.580488 176.964683 176.964683 0 0 1 179.649561-173.642927 176.939707 176.939707 0 0 1 179.687025 173.642927z m97.042731 398.760585v11.938342c0 58.105756-96.668098 58.105756-208.621268 58.105756h-123.804098c-116.523707 0-208.546341 0-208.546341-58.105756v-11.938342c0-111.079024 93.571122-201.478244 208.546341-201.478244h123.804098c115.050146 0 208.621268 90.386732 208.621268 201.478244z" fill="#999999" p-id="6306"></path></svg>