<svg t="1574845271809" class="icon" viewBox="0 0 1024 1024" version="1.1" xmlns="http://www.w3.org/2000/svg" p-id="1783" width="200" height="200"><path d="M512 0c282.763636 0 512 229.236364 512 512s-229.236364 512-512 512S0 794.763636 0 512 229.236364 0 512 0z m78.917818 598.574545c-20.712727-0.558545-48.151273 143.127273-73.378909 156.602182v28.509091c77.312 0 131.421091-0.256 177.757091-0.116363 20.037818 0.069818 30.836364-14.242909 31.883636-36.701091 0-86.504727-56.552727-132.002909-136.261818-148.317091z m-159.464727 0c-79.709091 16.290909-136.261818 61.789091-136.261818 148.293819 1.047273 22.458182 11.869091 36.770909 31.883636 36.701091 41.448727-0.116364 89.134545 0.046545 154.112 0.09309h23.645091V755.2c-25.227636-13.498182-52.666182-157.160727-73.378909-156.625455z m85.876364-223.604363h-6.283637c-49.012364 0.232727-89.646545 11.822545-111.709091 33.512727-5.841455 5.748364-10.635636 12.567273-13.288727 20.317091-1.303273-1.722182-2.583273-2.722909-3.84-2.653091 0 0-17.291636 6.702545-12.474182 34.769455 3.677091 21.410909 13.544727 29.835636 21.643637 33.605818 17.501091 58.647273 63.534545 100.514909 117.527272 100.514909 53.946182 0 99.933091-41.797818 117.480728-100.375273 8.308364-3.584 18.850909-11.776 22.714181-33.885091 4.887273-27.973818-12.637091-34.676364-12.637091-34.676363-1.512727-0.069818-3.095273 1.373091-4.654545 3.816727a56.832 56.832 0 0 0-13.637818-22.062546c-31.604364-30.208-62.673455-33.070545-107.101091-32.884363z m-13.172364-134.656c-68.840727 0-126.301091 35.421091-126.301091 35.421091v117.946182s37.794909-43.217455 129.768727-43.217455c91.415273 0 129.768727 43.357091 129.768728 43.357091v-118.085818s-66.792727-35.421091-133.236364-35.421091z m11.031273 20.293818v28.439273h28.462545v15.429818h-28.462545v28.416h-15.127273v-28.416h-28.369455v-15.429818h28.346182v-28.439273h15.127273z" fill="#D8D8D8" p-id="1784"></path></svg>