<?xml version="1.0" standalone="no"?><!DOCTYPE svg PUBLIC "-//W3C//DTD SVG 1.1//EN" "http://www.w3.org/Graphics/SVG/1.1/DTD/svg11.dtd"><svg t="1605261675614" class="icon" viewBox="0 0 1024 1024" version="1.1" xmlns="http://www.w3.org/2000/svg" p-id="9252" xmlns:xlink="http://www.w3.org/1999/xlink" width="200" height="200"><defs><style type="text/css"></style></defs><path d="M768 106.672a42.672 42.672 0 0 1 42.672 42.656l0.016 271.104a99.28 99.28 0 0 0-129.904 21.824 98.864 98.864 0 0 0-3.728 119.216c-58.72 10.448-94.032 68.432-114.032 119.12l-3.68 9.696-3.312 9.44-2.96 9.072-2.608 8.64-2.288 8.096-1.968 7.472-0.864 3.472-2.48 12.72-8.944 55.104a57.888 57.888 0 0 0 13.904 46.56 54.848 54.848 0 0 0 37.696 18.88l4 0.128h15.776l-6.656 27.92c-1.76 6.496-1.472 13.312 0.736 19.552H170.672A42.672 42.672 0 0 1 128 874.656V149.328a42.672 42.672 0 0 1 42.672-42.656H768z m-64.96 485.856a76.416 76.416 0 0 1 70.512 47.6v1.248l88.96 32.576c8.288 3.376 14.432 10.592 16.448 19.328v1.792a61.376 61.376 0 0 1 16.48 45.44v155.888a10.912 10.912 0 0 1-21.664 0v-155.168c0.224-5.28-0.576-10.56-2.336-15.568l-1.072-3.568-4.288 2.32a27.2 27.2 0 0 1-13.248 3.936 17.904 17.904 0 0 1-6.08-0.896l-3.408-0.896v3.408c-0.544 3.68-0.896 7.376-1.072 11.088a10.912 10.912 0 0 1-21.648 0c-0.048-6.048 0.8-12.08 2.496-17.888v-3.04l-47.424-12.528v103.792a32.032 32.032 0 0 1-31.136 32.576h-35.792l12.352 50.992a10.736 10.736 0 0 1-8.048 13.072h-2.336a10.56 10.56 0 0 1-10.72-8.416l-13.264-55.296h-16.096l-13.072 55.472a10.736 10.736 0 0 1-10.56 8.416h-3.04a10.928 10.928 0 0 1-8.224-13.056l12.336-51.2h-40.624a31.312 31.312 0 0 1-23.792-11.088 34.176 34.176 0 0 1-7.696-27.552l7.68-51.728 2.16-11.28c10.736-42.4 43.68-145.12 117.216-149.776z m-244.368 26.144H224a32 32 0 0 0-2.4 63.904l2.4 0.096h234.672a32 32 0 1 0 0-64z m307.312-171.648a73.024 73.024 0 0 1-0.128 146.032v-0.176a73.2 73.2 0 0 1-73.008-73.024 73.024 73.024 0 0 1 73.12-72.832z m-179.312-20.352H224a32 32 0 0 0-2.4 63.904l2.4 0.096h362.672a32 32 0 1 0 0-64z m0-192H224a32 32 0 0 0-2.4 63.904l2.4 0.096h362.672a32 32 0 1 0 0-64z" fill="#5573F8" p-id="9253"></path></svg>