<svg t="1584931864431" class="icon" viewBox="0 0 1024 1024" version="1.1" xmlns="http://www.w3.org/2000/svg" p-id="7256" width="20" height="20"><path d="M741.824 605.696a4.266667 4.266667 0 0 1 1.941333 1.92l61.717334 125.077333 138.026666 20.053334a4.266667 4.266667 0 0 1 2.346667 7.253333l-99.84 97.365333 23.552 137.450667a4.266667 4.266667 0 0 1-6.186667 4.48l-123.434666-64.874667-123.456 64.896a4.266667 4.266667 0 0 1-6.186667-4.501333l23.573333-137.450667-99.84-97.344a4.266667 4.266667 0 0 1 2.346667-7.274666l138.026667-20.053334 61.696-125.077333a4.266667 4.266667 0 0 1 5.717333-1.92z m-151.850667-91.242667l6.848 3.264a382.933333 382.933333 0 0 1 117.525334 89.386667l-53.056 107.52-175.893334 25.578667 127.274667 124.053333-15.701333 91.584C370.602667 987.605333 42.666667 953.173333 42.666667 850.688 42.666667 702.72 131.2 574.933333 259.477333 514.730667a303.744 303.744 0 0 0 164.992 48.298666 303.936 303.936 0 0 0 165.504-48.576zM341.077333 37.12a245.525333 245.525333 0 0 1 180.501334 2.88l8.021333 3.477333a245.141333 245.141333 0 0 1 71.594667 49.706667l5.205333 5.333333a245.013333 245.013333 0 0 1 66.624 168.170667l-0.106667 7.509333a244.608 244.608 0 0 1-71.68 165.973334l-6.336 6.101333a246.058667 246.058667 0 0 1-73.258666 47.082667l-7.253334 2.88a245.76 245.76 0 0 1-180.522666-2.88 245.632 245.632 0 0 1-79.594667-53.205334c-45.909333-45.44-71.872-108.032-71.893333-173.482666 0.042667-32.234667 6.4-64.149333 18.645333-93.845334l3.541333-8.085333a244.970667 244.970667 0 0 1 129.258667-124.757333z" fill="#3DBADC" p-id="7257"></path></svg>