<svg t="1584931799527" class="icon" viewBox="0 0 1024 1024" version="1.1" xmlns="http://www.w3.org/2000/svg" p-id="6988" width="20" height="20"><path d="M725.333333 586.666667a202.666667 202.666667 0 1 1 0 405.333333 202.666667 202.666667 0 0 1 0-405.333333z m-231.04-96.789334l114.069334 0.405334s50.773333-2.581333 120.106666 54.250666c4.096 3.349333 8.277333 6.912 12.48 10.666667A225.365333 225.365333 0 0 0 725.333333 554.666667c-129.6 0-234.666667 105.066667-234.666666 234.666666 0 85.12 45.312 159.658667 113.152 200.789334-28.416 0.618667-58.602667 0.768-90.325334 0.853333l-19.2 0.042667c-227.349333-0.533333-380.864-0.512-387.306666-136.789334-6.4-136.277333 83.712-252.885333 153.088-309.696 67.712-55.466667 117.696-54.336 120.021333-54.250666h0.085333l114.090667-0.405334z m310.101334 274.133334h-158.122667c-11.477333 0-20.928 8.682667-22.144 19.84l-0.128 2.432v6.101333c0 11.477333 8.682667 20.949333 19.84 22.144l2.432 0.149333h158.122667c11.477333 0 20.928-8.704 22.144-19.861333l0.128-2.432v-6.101333c0-12.309333-9.984-22.272-22.272-22.272zM494.272 21.333333c122.624 0 222.037333 99.370667 222.037333 221.994667s-99.413333 222.016-222.037333 222.016c-122.602667 0-222.016-99.413333-222.016-222.016C272.256 120.704 371.669333 21.333333 494.272 21.333333z" fill="#F54E71" p-id="6989"></path></svg>