<svg t="1582773470514" class="icon" viewBox="0 0 1024 1024" version="1.1" xmlns="http://www.w3.org/2000/svg" p-id="4124" width="20" height="20"><path d="M860.16 532.48a163.84 163.84 0 0 1 163.75808 158.72L1024 696.32a163.84 163.84 0 0 1-158.72 163.75808L860.16 860.16a163.84 163.84 0 1 1 0-327.68z m24.576-430.08C939.04896 102.4 983.04 143.79008 983.04 194.90816v364.032A184.32 184.32 0 0 0 722.80064 819.2H98.304C43.99104 819.2 0 777.80992 0 726.69184V194.90816C0 143.7696 43.99104 102.4 98.304 102.4h786.432z m-21.77024 655.11424a23.16288 23.16288 0 1 0 22.79424 23.53152v-0.36864a22.97856 22.97856 0 0 0-20.29568-22.99904l-2.49856-0.16384z m-1.51552-168.71424c-13.43488 0-24.33024 6.90176-24.33024 15.42144l9.1136 129.6384a15.19616 15.19616 0 0 0 30.4128 0.36864v-0.38912l9.1136-129.61792c0-8.4992-10.89536-15.42144-24.30976-15.42144zM296.96 225.28a122.88 122.88 0 0 0-60.47744 229.84704C169.61536 484.4544 122.88 554.10688 122.88 634.88a30.72 30.72 0 0 0 61.44 0c0-73.9328 55.48032-133.12 122.88-133.12s122.88 59.1872 122.88 133.12a30.72 30.72 0 0 0 61.44 0c0-85.7088-52.6336-158.9248-126.11584-184.64768A122.88 122.88 0 0 0 296.96 225.28z m428.48256 264.704h-147.84512l-2.51904 0.14336c-12.41088 1.51552-22.1184 14.1312-22.1184 29.42976 0 15.29856 9.70752 27.89376 22.1184 29.40928l2.51904 0.16384h147.84512l2.51904-0.16384c12.41088-1.51552 22.1184-14.1312 22.1184-29.40928 0-16.32256-11.03872-29.57312-24.63744-29.57312z m0-177.39776h-147.84512l-2.51904 0.14336c-12.41088 1.51552-22.1184 14.1312-22.1184 29.40928 0 15.29856 9.70752 27.91424 22.1184 29.42976l2.51904 0.14336h147.84512l2.51904-0.14336c12.41088-1.51552 22.1184-14.1312 22.1184-29.42976 0-16.32256-11.03872-29.55264-24.63744-29.55264z" fill="#F54E71" p-id="4125"></path></svg>