<svg t="1584932030173" class="icon" viewBox="0 0 1024 1024" version="1.1" xmlns="http://www.w3.org/2000/svg" p-id="7524" width="20" height="20"><path d="M802.901333 377.237333l11.093334-0.405333c90.986667-0.704 154.56 64.106667 139.818666 154.794667l-55.317333 315.541333c-10.922667 62.293333-68.906667 111.786667-131.264 111.872l-496.853333 0.405333c-25.386667 0.256-46.186667-20.608-46.442667-46.592l-0.917333-449.856c-0.085333-25.813333 20.394667-46.826667 45.845333-46.912l3.968-0.085333h23.061333c106.282667 0.789333 197.354667-101.632 197.205334-200.533333-0.149333-100.288 45.077333-146.176 120.725333-147.2 70.592-0.789333 121.770667 68.266667 121.770667 171.989333 0 27.989333-7.338667 100.693333-19.626667 137.130667l29.802667-0.085334 57.152-0.064z m-698.453333 43.072h56.746667c10.56 0 19.114667 8.746667 19.114666 19.541334v500.117333c0 10.794667-8.554667 19.541333-19.114666 19.541333h-56.746667A19.328 19.328 0 0 1 85.333333 939.968V439.850667c0-10.794667 8.533333-19.541333 19.093334-19.541334z" fill="#F7B84B" p-id="7525"></path></svg>