<svg t="1584931711531" class="icon" viewBox="0 0 1024 1024" version="1.1" xmlns="http://www.w3.org/2000/svg" p-id="6720" width="20" height="20"><path d="M928.128 85.333333a45.013333 45.013333 0 0 1 45.013333 45.013334v600.32c0 24.853333-20.16 45.013333-45.013333 45.013333H642.986667v75.050667l60.032 60.032v14.997333H312.810667v-14.997333l60.032-60.032V775.68H87.68A45.013333 45.013333 0 0 1 42.666667 730.666667V130.346667A45.013333 45.013333 0 0 1 87.68 85.333333z m-15.018667 60.032H102.698667v510.272h810.410666V145.365333zM508.672 381.653333a125.461333 125.461333 0 0 1 125.44 125.44v26.709334c0 18.709333-15.189333 33.898667-33.898667 33.898666h-259.413333a43.2 43.2 0 0 1-43.178667-43.178666c0-78.933333 63.957333-142.869333 142.869334-142.869334z m93.610667 5.12c64 0 115.904 51.904 115.904 115.989334v24.661333a31.36 31.36 0 0 1-31.36 31.338667H641.493333a3.797333 3.797333 0 0 1-3.093333-5.994667c3.968-5.696 6.272-12.586667 6.272-19.989333v-27.541334a129.28 129.28 0 0 0-63.402667-111.36c-3.328-2.005333-1.92-7.104 1.984-7.104z m-135.168-183.488a86.741333 86.741333 0 1 1 0 173.461334 86.741333 86.741333 0 0 1 0-173.461334z m124.053333 40.661334a66.197333 66.197333 0 0 1 65.28 65.557333 66.048 66.048 0 0 1-113.493333 46.357333 4.821333 4.821333 0 0 1-0.213334-6.464 91.946667 91.946667 0 0 0 22.208-60.074666c0-11.050667-1.92-21.610667-5.504-31.317334a6.506667 6.506667 0 0 1 3.434667-8.064 65.578667 65.578667 0 0 1 28.288-5.994666z" fill="#0BB5F9" p-id="6721"></path></svg>