<svg t="1584960449240" class="icon" viewBox="0 0 1024 1024" version="1.1" xmlns="http://www.w3.org/2000/svg" p-id="6124" width="20" height="20"><path d="M580.224 0c18.944 0 34.176 15.36 34.176 34.176v34.048h136.576c37.632 0 68.224 30.592 68.224 68.352l-0.128 409.344-19.328 0.896A273.024 273.024 0 0 0 638.72 1024L68.224 1023.872A68.224 68.224 0 0 1 0 955.648v-819.2C0 98.944 30.592 68.352 68.224 68.352H204.8V34.176c0-16.256 11.264-29.696 26.368-33.28L238.848 0c18.944 0 34.176 15.36 34.176 34.176v34.048h273.024V34.176c0-16.256 11.264-29.696 26.368-33.28L580.224 0zM819.2 614.4a204.8 204.8 0 1 1 0 409.6 204.8 204.8 0 0 1 0-409.6z m79.36 134.784l-104.448 103.04-54.272-53.76-1.792-1.408a17.664 17.664 0 0 0-23.04 1.664l-2.56 3.456c-3.968 7.552-2.688 15.36 2.56 20.864l66.816 66.048c3.072 3.2 7.68 5.12 12.288 5.12l3.84-0.512a17.664 17.664 0 0 0 8.576-4.608l116.736-115.328a17.28 17.28 0 0 0 0-24.704L921.6 747.52a17.664 17.664 0 0 0-23.04 1.664zM375.296 819.2h-204.8a34.176 34.176 0 0 0-7.68 67.328l7.68 0.896h204.8a34.176 34.176 0 0 0 0-68.224z m0-136.448h-204.8a34.176 34.176 0 0 0-7.68 67.328l7.68 0.896h204.8a34.176 34.176 0 0 0 0-68.224z m-132.736-322.56H218.88c-19.84 24.32-46.08 44.416-78.848 60.416a126.464 126.464 0 0 1 13.056 14.72c19.84-10.24 38.144-22.912 55.04-38.016 13.568 12.544 30.336 23.552 50.304 33.28a959.232 959.232 0 0 1-103.296 21.504c4.864 6.144 8.96 12.288 12.288 18.048 44.928-8.704 83.2-18.688 114.816-29.696 30.976 11.648 68.096 20.48 111.36 26.496 3.584-6.4 7.68-13.824 12.544-21.76a547.584 547.584 0 0 1-97.28-15.104c20.096-8.96 37.504-19.072 52.224-29.952l13.824-11.264v-14.336H230.656l6.016-7.168 6.016-7.296z m406.656 3.584c-34.304 36.864-86.272 65.408-156.032 85.888 3.84 6.784 7.424 13.568 11.008 20.48 60.928-19.2 108.928-44.544 144.256-75.776l16.512-16.128-15.744-14.464z m-185.088-67.84H413.44v19.584h30.208v99.456c0 7.04-1.28 12.928-3.84 17.92l-4.48 6.656 15.232 16.768c4.224-4.736 8.192-8.96 11.904-12.288 9.472-7.68 22.272-17.92 38.4-30.08a221.312 221.312 0 0 1-2.816-23.424l-17.28 14.08-16.384 13.312V295.68z m-119.936 93.952a268.8 268.8 0 0 1-61.44 32.384 209.92 209.92 0 0 1-47.36-23.04l-12.544-9.344h121.344z m275.712-68.48c-27.392 27.392-64.384 50.56-110.976 69.632 4.864 7.68 8.576 14.08 11.264 18.944 38.144-16 70.4-35.072 96.512-57.216l18.432-17.152-15.36-14.08zM226.56 204.8h-23.424c-16.768 30.848-37.888 56.32-63.232 76.288 5.12 6.016 9.216 11.52 12.288 16.64l14.464-13.568 13.696-14.592v93.568h18.432v-9.6H355.84v6.912h18.688V262.4H186.624l7.68-9.344 7.296-9.6h199.424v-17.024H213.504l6.656-10.624 6.4-11.008z m360.576 74.624c-19.2 22.528-47.488 41.728-85.376 57.344 3.712 5.632 7.68 11.776 11.776 18.432 30.72-14.08 56.32-30.464 76.288-48.896l14.08-14.336-16.768-12.544z m-231.552 36.224v21.376H198.912v-21.376H355.84z m238.464-107.904H569.6c-17.28 37.248-48.128 67.2-92.8 89.856 4.48 5.12 9.472 11.392 14.976 18.688 41.856-26.496 70.912-54.4 86.912-83.456 17.28 31.232 45.952 58.624 86.144 82.048a568.32 568.32 0 0 1 14.336-19.456 185.6 185.6 0 0 1-78.464-64l-10.24-17.024 3.712-6.656z m-238.464 71.168v20.992H198.912V279.04H355.84z m72.32-64.512l-17.664 18.176 54.656 55.04 18.176-18.176-55.168-55.04z" fill="#FFFFFF" p-id="6125"></path></svg>