<svg t="1584932039492" class="icon" viewBox="0 0 1024 1024" version="1.1" xmlns="http://www.w3.org/2000/svg" p-id="7658" width="20" height="20"><path d="M818.602667 85.333333c22.464 0 40.682667 18.218667 40.682666 40.682667v339.349333a243.690667 243.690667 0 0 0-81.365333-13.888c-134.805333 0-244.096 109.269333-244.096 244.096 0 134.805333 109.290667 244.096 244.096 244.096H147.349333A40.682667 40.682667 0 0 1 106.666667 898.986667V126.016C106.666667 103.552 124.885333 85.333333 147.349333 85.333333h671.253334z m-40.682667 406.826667a203.413333 203.413333 0 1 1 0 406.826667 203.413333 203.413333 0 0 1 0-406.826667z m-20.330667 101.696a20.330667 20.330667 0 0 0-20.352 20.352v101.696c0 11.242667 9.109333 20.352 20.352 20.352h101.696a20.330667 20.330667 0 0 0 0-40.682667h-81.386666l0.021333-81.365333a20.330667 20.330667 0 0 0-20.330667-20.352zM401.621333 349.76H259.2a30.506667 30.506667 0 0 0-2.944 60.885333l2.944 0.149334h142.4a30.506667 30.506667 0 0 0 2.922667-60.885334l-2.922667-0.149333z m183.061334-142.378667H259.221333a30.506667 30.506667 0 0 0-2.944 60.885334l2.944 0.128h325.461334a30.506667 30.506667 0 0 0 2.944-60.885334l-2.944-0.128z" fill="#F54E71" p-id="7659"></path></svg>