<svg t="1584931733365" class="icon" viewBox="0 0 1024 1024" version="1.1" xmlns="http://www.w3.org/2000/svg" p-id="6854" width="20" height="20"><path d="M643.456 826.986667l227.306667-225.962667 64.917333 64.533333-227.306667 225.941334-64.917333-64.512z m-92.48 160.938666l124.565333-65.152-65.536-58.688-59.029333 123.84zM1016.533333 557.610667l-32.832-32.64c-6.613333-6.570667-26.197333-6.570667-32.832 0l-45.930666 45.653333 65.536 65.152 45.930666-45.653333c6.741333-12.906667 6.741333-26.069333 0.128-32.512z m-445.866666 176.064c-52.416-32.64-39.317333-110.805333-39.317334-110.805334 59.050667-65.152 78.762667-123.84 78.762667-123.84 32.832-19.605333 59.050667-52.117333 59.050667-84.736-6.613333-39.082667-32.853333-32.64-32.853334-32.64s26.24-97.770667 6.613334-182.528c-13.077333-91.306667-98.346667-136.853333-196.693334-136.853333-111.466667 0-150.805333-19.605333-150.805333-19.605333-6.613333 26.048 0 45.653333 0 65.152-26.197333 19.605333-52.416 52.096-59.029333 91.306666-19.968 78.186667 6.229333 182.4 6.229333 182.4s-26.197333-6.570667-26.197333 32.64c-6.613333 32.64 19.712 65.152 52.416 84.757334 0 0 26.218667 58.666667 78.634666 123.818666 0 0 13.12 78.293333-39.317333 110.805334-65.536 39.082667-177.109333 32.64-242.645333 78.293333C0 857.493333 0 909.610667 0 929.216c6.613333 19.626667 13.098667 19.626667 26.218667 19.626667h380.330666l203.328-202.133334c-12.970667 0-26.090667-6.592-39.189333-13.034666z" fill="#F7B84B" p-id="6855"></path></svg>