<svg t="1584932586269" class="icon" viewBox="0 0 1024 1024" version="1.1" xmlns="http://www.w3.org/2000/svg" p-id="7792" width="20" height="20"><path d="M351.184 335.056a766.544 766.544 0 0 1 299.808 0l8.08 2.128c5.36 1.504 10.672 3.2 15.92 5.072l2.384 0.912c13.984 5.984 22.4 21.008 20.144 36.592l-1.216 7.296c-15.2 87.12-54.864 157.696-107.792 195.024 114.432 25.92 209.488 107.2 254.976 218.016l1.696 3.28a119.264 119.264 0 0 1-12.32 94.832l-2.528 3.136a78.88 78.88 0 0 1-58.656 28.048l-1.92 0.128c-32.4 2.128-118.608 4.048-256.464 6.192h-1.28c-141.712-2.192-228.816-4.16-259.632-6.32a78.992 78.992 0 0 1-61.408-31.184l-2.48-4.304a119.12 119.12 0 0 1-9.84-90.528l1.056-3.28c43.232-105.504 131.52-184.608 239.248-214.304l-4.256-2.88c-55.008-38.208-95.968-112.624-110.272-204.032-2.56-17.696 8.528-34.48 25.504-38.592z m405.648-6.336l1.456 0.016 8.96 0.768c23.872 2.352 47.424 7.328 70.256 14.832l8.528 2.944 9.36 3.92a24.96 24.96 0 0 1 14.928 27.152l-0.48 2.272-3.2 11.36a629.312 629.312 0 0 1-78.448 169.904l-6.528 9.728 3.616 1.872c3.84 1.92 8.224 3.952 11.888 5.76 8.928 4.144 21.456 10.032 28.48 14.4 7.008 4.352 15.072 8.48 23.584 13.072 52.48 28.208 131.52 70.256 169.248 179.952l2.208 6.672-0.208 0.64c6.8 40.128 3.84 65.424-8.496 79.36a42.16 42.16 0 0 1-28.048 15.072l-2.976 0.192-2 0.192c-23.584 2-97.648 2-97.648 2s31.024-80.448-41.008-179.216a427.952 427.952 0 0 0-141.168-122.48l-7.568-3.968-4.192-2.08a78.72 78.72 0 0 1-18.72-13.888l-3.216-3.44 1.296-4.256c2.368-6.992 5.696-13.616 9.888-19.664l2.624-3.552 2.912-4.944c32.736-55.6 59.04-98.192 65.808-188.224l0.544-8.064a9.12 9.12 0 0 1 6.928-8.112l1.392-0.192z m-489.616 0l1.392 0.192a9.12 9.12 0 0 1 6.928 8.112l0.544 8.064c6.784 90.032 33.072 132.64 65.808 188.224l2.912 4.96 2.624 3.536c4.192 6.048 7.52 12.672 9.888 19.68l1.296 4.24-3.232 3.44a78.72 78.72 0 0 1-18.72 13.888l-4.176 2.08-7.568 3.968a427.952 427.952 0 0 0-141.168 122.48c-72.032 98.768-41.008 179.2-41.008 179.2s-74.064 0-97.648-1.984l-2-0.192-2.976-0.192a42.16 42.16 0 0 1-28.048-15.056c-12.32-13.952-15.296-39.248-8.496-79.36l-0.208-0.656 2.208-6.672c37.712-109.696 116.752-151.744 169.248-179.952 8.496-4.576 16.576-8.72 23.584-13.088 7.024-4.352 19.552-10.24 28.48-14.4 3.664-1.792 8.048-3.84 11.888-5.76l3.616-1.856-6.528-9.728a629.312 629.312 0 0 1-78.448-169.904l-3.2-11.36-0.48-2.272a24.96 24.96 0 0 1 14.928-27.152l9.36-3.92 8.528-2.944c22.832-7.504 46.384-12.48 70.24-14.832l8.976-0.768 1.44-0.016zM696.64 96.32l48.88 0.864c46.528 4.576 136 37.504 140.656 129.28a408.8 408.8 0 0 1-4.352 93.312l-1.808 10.256-29.312-13.088h0.848a375.712 375.712 0 0 0-94.48-18.464l-9.632-0.496-1.92-13.792A884.88 884.88 0 0 0 696.688 96.32z m-369.28 0a884.88 884.88 0 0 0-48.88 187.872l-1.904 13.792-9.632 0.496c-32.112 2.08-63.84 8.272-94.48 18.464h0.848l-29.312 13.088-1.808-10.24a408.8 408.8 0 0 1-4.352-93.312c4.672-91.792 94.128-124.72 140.64-129.28z m299.872-11.52l8 2.784 7.44 2.832 4.256 6.768a398.496 398.496 0 0 1 54.752 194.512l0.08 8.24-0.064 0.576-0.176 0.544a2.544 2.544 0 0 1-2.592 1.504l-0.8-0.208-7.536-2.88a285.872 285.872 0 0 0-23.088-7.328l-7.824-2.016-11.696-2.272a803.584 803.584 0 0 0-295.312 0l-11.696 2.272-12.88 3.072-12.816 3.264-12.768 3.488-0.24-0.016a2.56 2.56 0 0 1-2.256-2l-0.064-0.832 0.112-8.48a397.536 397.536 0 0 1 50.512-185.008l4.192-7.312 1.712-5.888 7.44-2.832a401.664 401.664 0 0 1 263.312-2.768z m-114.8 23.728l-2 0.304a21.6 21.6 0 0 0-17.024 19.408l-0.096 2.08v26.4h-30.432c-11.04 0.576-19.68 9.68-20.144 20.784v2.08l0.24 2.144a21.488 21.488 0 0 0 18.928 18.272l2.08 0.096h29.536v18.752c0.016 2.56 0.48 5.088 1.344 7.472l1.008 2.336 0.352 1.872c1.68 6.768 7.2 11.84 13.92 12.8l1.872 0.16 2.016-0.16c3.968-0.576 7.6-2.64 10.176-5.808l1.184-1.664 1.84-1.632c3.456-3.44 5.68-8 6.288-12.896l0.16-2.48V200.96h23.376c11.728 0 21.248-9.76 21.248-21.792 0-11.328-8.432-20.64-19.2-21.712l-2.048-0.096h-23.36v-27.04c0-12.032-9.52-21.792-21.264-21.792z" p-id="7793"></path></svg>