<svg t="1584960356036" class="icon" viewBox="0 0 1024 1024" version="1.1" xmlns="http://www.w3.org/2000/svg" p-id="5990" width="20" height="20"><path d="M254.976 384c106.040889 0 192.056889 86.016 192.056889 192.056889l-0.113778 39.822222 65.080889 48.128 64.967111-48.128v-39.822222c0-106.040889 86.016-192.056889 192.056889-192.056889h6.030222C881.208889 384 967.111111 470.016 967.111111 576.056889v256C967.111111 937.984 881.095111 1024 775.054222 1024H769.137778A192.056889 192.056889 0 0 1 576.853333 831.943111V695.978667l-45.511111 33.564444a32.995556 32.995556 0 0 1-33.792 3.185778l-5.12-3.185778-45.624889-33.564444v136.078222C447.032889 937.984 361.130667 1024 255.089778 1024h-6.144A191.943111 191.943111 0 0 1 56.888889 831.943111v-256c0-105.927111 86.016-191.943111 192.056889-191.943111h6.030222zM251.904 0C359.651556 0 447.146667 86.016 447.146667 192.056889c0 105.927111-87.381333 191.943111-195.128889 191.943111C144.270222 384 56.888889 297.984 56.888889 191.943111 56.888889 86.016 144.270222 0 251.904 0z m520.192 0C879.729778 0 967.111111 86.016 967.111111 192.056889c0 105.927111-87.381333 191.943111-195.015111 191.943111-107.747556 0-195.128889-86.016-195.128889-192.056889C576.967111 86.016 664.462222 0 772.096 0z" fill="#FFFFFF" p-id="5991"></path></svg>