<svg t="1582773436495" class="icon" viewBox="0 0 1024 1024" version="1.1" xmlns="http://www.w3.org/2000/svg" p-id="3990" width="20" height="20"><path d="M278.101333 42.666667a74.666667 74.666667 0 0 0 69.802667 85.248l4.096 0.085333h320a74.666667 74.666667 0 0 0 73.898667-85.333333H832a85.333333 85.333333 0 0 1 85.333333 85.333333v604.672l-2.858666-3.498667a193.152 193.152 0 0 0-8.64-9.514666l-1.536-1.557334a193.024 193.024 0 0 0-28.650667-23.765333l-1.024-0.704a192.213333 192.213333 0 0 0-29.76-16.298667l-1.898667-0.810666a190.805333 190.805333 0 0 0-16.576-6.144l-1.642666-0.512-4.053334-1.216a190.506667 190.506667 0 0 0-12.373333-3.072l-1.493333-0.32a191.125333 191.125333 0 0 0-11.136-1.941334l-3.605334-0.490666A192.533333 192.533333 0 0 0 768 661.333333a191.296 191.296 0 0 0-128.128 49.002667l-0.32 0.277333-2.602667-0.085333H271.274667c-20.266667 0-36.608 16.149333-36.608 36.138667l0.149333 3.136c1.728 18.581333 17.450667 33.066667 36.458667 32.938666h318.122666A190.72 190.72 0 0 1 576 853.333333a194.901333 194.901333 0 0 0 0.554667 14.762667l0.32 3.690667a192.853333 192.853333 0 0 0 0.64 5.632l0.469333 3.584a191.104 191.104 0 0 0 4.693333 22.656l0.64 2.346666 1.152 3.882667 0.746667 2.410667 0.832 2.474666a190.506667 190.506667 0 0 0 34.986667 62.122667c2.432 2.88 4.949333 5.696 7.530666 8.426667l0.490667 0.512a193.194667 193.194667 0 0 0 14.144 13.397333l0.64 0.576 3.477333 2.858667H192a85.333333 85.333333 0 0 1-85.333333-85.333334V128a85.333333 85.333333 0 0 1 85.333333-85.333333h86.101333z m212.544 523.434666H271.274667c-20.266667 0-36.608 16.170667-36.608 36.138667l0.149333 3.136c1.728 18.602667 17.450667 33.066667 36.458667 32.938667h219.370666l3.157334-0.106667a36.352 36.352 0 0 0 33.450666-35.968l-0.128-3.114667A36.394667 36.394667 0 0 0 490.666667 566.101333z m-82.133333-83.413333l-14.762667 30.954667 31.146667-16.277334-16.384-14.677333zM329.856 277.333333c-1.642667 6.506667 0 11.413333 0 16.277334-6.549333 4.906667-13.098667 13.034667-14.762667 22.826666-4.992 19.562667 1.578667 45.610667 1.578667 45.610667s-6.570667-1.642667-6.570667 8.149333c-1.642667 8.170667 4.949333 16.298667 13.12 21.205334 0 0 6.549333 14.656 19.648 30.933333 0 0 3.285333 19.584-9.813333 27.733333-16.384 9.749333-44.288 8.149333-60.672 19.562667C256 481.045333 256 494.08 256 498.965333c1.664 4.906667 3.285333 4.906667 6.549333 4.906667h95.082667l50.837333-50.538667c-3.242667 0-6.528-1.642667-9.813333-3.242666-13.098667-8.170667-9.813333-27.712-9.813333-27.712 14.762667-16.277333 19.690667-30.933333 19.690666-30.933334 8.213333-4.906667 14.762667-13.056 14.762667-21.205333-1.664-9.770667-8.213333-8.149333-8.213333-8.149333s6.549333-24.448 1.664-45.653334c-3.285333-22.826667-24.597333-34.197333-49.194667-34.197333-27.861333 0-37.696-4.906667-37.696-4.906667z m143.829333 139.584l-56.810666 56.490667 16.213333 16.128 56.832-56.490667-16.213333-16.128z m20.053334-19.008l-11.498667 11.413334 16.384 16.277333 11.477333-11.413333c1.706667-3.2 1.706667-6.506667 0.042667-8.106667l-8.213333-8.170667c-1.642667-1.642667-6.549333-1.642667-8.213334 0z" fill="#45BE5F" p-id="3991"></path><path d="M768.853333 685.056a167.296 167.296 0 0 1 167.253334 167.253333 167.296 167.296 0 0 1-167.253334 167.253334 167.296 167.296 0 0 1-167.253333-167.253334 167.296 167.296 0 0 1 167.253333-167.253333z m-35.093333 133.504h-16.64c0 25.706667-2.090667 43.733333-6.314667 54.058667-4.202667 10.346667-14.186667 19.285333-29.930666 26.816 4.672 5.333333 8.448 10.090667 11.370666 14.250666 13.226667-6.954667 22.997333-15.786667 29.290667-26.453333l2.218667-4.117333v14.442666c0 8.192 3.946667 12.650667 11.882666 13.397334l2.496 0.106666h11.242667c5.461333 0 9.216-1.536 11.242667-4.629333 2.048-3.072 3.882667-10.752 5.504-22.997333a214.741333 214.741333 0 0 1-15.616-6.997334c-0.789333 9.664-1.514667 15.445333-2.154667 17.322667-0.533333 1.493333-1.493333 2.389333-2.858667 2.688l-1.109333 0.106667h-1.386667c-2.432 0-3.84-1.152-4.266666-3.456l-0.106667-1.536v-28.373334h-8.490667c1.962667-10.176 3.136-22.826667 3.498667-37.973333l0.128-6.656z m57.237333 48.128c-3.669333 12.245333-8.256 25.386667-13.738666 39.381333 5.76 2.496 11.370667 5.034667 16.853333 7.616 5.333333-17.792 9.216-30.570667 11.690667-38.314666l0.704-2.176-15.509334-6.506667z m-117.12-76.373333h-16v19.882666h-14.122666v15.488h14.122666v14.997334h-16.128v15.637333h15.573334c-1.6 19.114667-6.869333 33.536-15.829334 43.242667 3.925333 3.584 8.533333 8.256 13.866667 13.994666 6.826667-9.109333 11.733333-20.224 14.762667-33.301333 4.842667 5.568 8.704 10.24 11.626666 13.930667 2.922667-3.328 6.677333-7.168 11.242667-11.498667-7.466667-7.744-14.144-14.357333-20.053333-19.818667l0.32-3.221333 0.234666-3.328h16.256v-15.637333h-15.872v-14.997334h14.122667v-15.488h-14.122667v-19.882666z m206.250667 38.122666H812.373333v59.242667c0 13.866667 6.72 21.226667 20.138667 22.165333l2.986667 0.085334h26.24c7.168 0 13.162667-0.789333 17.941333-2.368 4.8-1.578667 7.914667-4.288 9.386667-8.106667 1.450667-3.84 3.093333-10.304 4.928-19.413333-3.904-1.237333-9.749333-3.413333-17.493334-6.485334a102.698667 102.698667 0 0 1-1.92 13.717334c-0.597333 2.069333-2.112 3.669333-4.544 4.821333a20.330667 20.330667 0 0 1-7.082666 1.6l-3.072 0.106667h-19.882667c-5.546667-0.128-8.661333-2.069333-9.344-5.781334l-0.149333-1.706666V843.946667h32.128c0 11.029333-0.618667 17.237333-1.813334 18.581333-1.216 1.365333-3.797333 2.026667-7.765333 2.026667-3.2 0-8.021333-0.213333-14.421333-0.618667 0.938667 3.328 1.834667 6.933333 2.709333 10.773333l1.28 5.973334 18.986667-0.362667c5.632 0 9.92-1.984 12.864-5.952 2.432-3.285333 3.946667-7.957333 4.544-14.016l0.213333-3.797333 0.896-28.117334z m-121.877333-33.749333h-65.258667v78.741333h16.256v-62.613333h32.746667v61.226667h16.256v-77.354667z m20.864 46.250667l-9.749334 11.989333c5.845333 4.757333 12.053333 10.133333 18.624 16.128l10.88-13.376-19.754666-14.741333z m10.389333-21.632l-9.749333 11.754666c7.744 5.824 14.165333 11.008 19.242666 15.509334l10.496-12.501334a199.402667 199.402667 0 0 0-16.490666-12.330666l-3.498667-2.432z m29.013333-29.610667h-17.152v9.237333H770.133333v15.744h31.232v8.128h17.130667v-8.106666h27.52v8.106666h16.981333v-8.106666h31.146667v-15.765334h-31.146667v-9.237333h-17.002666v9.237333h-27.498667v-9.237333z" fill="#45BE5F" p-id="3992"></path><path d="M298.666667 0m53.333333 0l320 0q53.333333 0 53.333333 53.333333l0 0q0 53.333333-53.333333 53.333334l-320 0q-53.333333 0-53.333333-53.333334l0 0q0-53.333333 53.333333-53.333333Z" fill="#45BE5F" p-id="3993"></path></svg>