<svg t="1582961583401" class="icon" viewBox="0 0 1024 1024" version="1.1" xmlns="http://www.w3.org/2000/svg" p-id="4949" width="20" height="20"><path d="M407.7568 10.24c134.7584 0 236.4416 59.2384 236.4416 137.8816V360.96c0 7.168-2.304 13.568-5.5296 19.4048 2.56 14.08 3.9936 28.4672 3.9936 43.008a230.8096 230.8096 0 0 1-34.7136 124.0064c123.5456 60.5696 200.9088 171.9296 200.9088 295.68 0.3584 27.1872-10.1888 51.8656-31.2832 73.2672-83.968 85.0944-304.2816 91.6992-369.8176 91.6992-99.584 0-192.256-11.6736-260.9152-32.8192C29.7472 939.5712 5.12 883.712 5.12 843.0592c0-124.7232 77.824-236.3904 201.9328-296.2944a234.1888 234.1888 0 0 1-35.6864-123.392c0-14.7968 1.7408-29.5424 4.5056-44.032a39.424 39.424 0 0 1-4.5056-17.6128V148.1216C171.3664 69.4784 272.9984 10.24 407.7568 10.24z m146.8928 599.0912c-4.1984 3.2256-8.7552 5.632-13.056 8.4992a239.0016 239.0016 0 0 1-36.2496 20.2752c-3.8912 1.7408-7.6288 3.5328-11.5712 5.0688-10.24 3.9936-20.736 7.0656-31.3856 9.5744-3.4816 0.8704-6.8096 1.9968-10.2912 2.6624a231.168 231.168 0 0 1-42.8032 4.352l-0.8704-0.0512-0.6656 0.0512c-2.048 0-3.9424-0.5632-5.9904-0.6144a238.6432 238.6432 0 0 1-37.0176-3.7376c-5.4784-0.9728-10.6496-2.6112-15.9744-3.9936a220.4672 220.4672 0 0 1-25.9072-8.0896 231.5776 231.5776 0 0 1-54.2208-29.8496c-2.048-1.4848-4.3008-2.56-6.2976-4.1472-108.9024 44.7488-176.2816 133.8368-176.2816 233.728 0 35.4304 122.6752 84.7872 322.4576 84.7872s322.4576-49.3568 322.4576-84.7872c0-99.1744-67.4304-188.2624-176.3328-233.728z m138.9056-502.784c111.2064 0 195.072 50.5344 195.072 117.504v168.448a43.52 43.52 0 0 1-2.6624 14.5408c1.792 10.1376 2.6624 21.4016 2.6624 34.4064 0 33.2288-8.192 65.3824-23.808 93.6448 96.1536 50.432 155.392 140.4928 155.392 237.312 0 39.8848-26.5216 93.3888-152.9344 121.856-3.8912 0.9728-7.168 0.9728-8.96 0.9728a40.704 40.704 0 0 1-39.1168-31.232 40.448 40.448 0 0 1 30.0032-47.9232c67.4816-15.0016 90.112-36.2496 90.112-43.6736 0-79.2064-58.5216-150.784-148.992-182.3744a37.632 37.632 0 0 1-19.4048-12.8 40.2944 40.2944 0 0 1 2.8672-54.0672c22.016-21.4016 34.6112-51.4048 34.6112-82.4832 0-26.624-8.704-51.7632-25.6-72.704a40.704 40.704 0 0 1 1.024-51.9168 37.7344 37.7344 0 0 1 24.576-13.312V224.1024c-0.9728-7.8848-36.1472-35.1744-106.0864-37.376a20.4288 20.4288 0 0 1-8.704 1.536 39.8336 39.8336 0 0 1-40.0896-38.912 44.032 44.032 0 0 1 10.752-30.3616 40.192 40.192 0 0 1 29.2864-12.3904zM407.7568 304.0256c-60.0064 0-103.2192 14.3872-128.9216 29.5424a158.8736 158.8736 0 0 0-27.2384 89.8048 156.3648 156.3648 0 0 0 155.8528 156.2112c4.4544-0.0512 8.8064-0.9216 13.2608-1.28 5.8368-0.512 11.6736-0.6656 17.2032-1.7408 7.0144-1.3824 13.6704-3.7376 20.3264-6.0416 2.7648-0.9728 5.7344-1.536 8.4992-2.6624 18.176-7.5264 34.8672-18.4832 49.1008-32.7168l5.6832-5.4272a154.9312 154.9312 0 0 0 42.4448-106.3424c0-32.768-10.4448-64.3584-29.8496-91.6992-25.7024-14.4896-67.6352-27.648-126.3616-27.648z m0-213.6064c-101.4784 0-156.16 40.9088-156.16 57.7024v107.3152c4.4032-2.1504 9.4208-3.84 14.1312-5.7856 2.9184-1.2288 5.6832-2.4064 8.704-3.5328 10.3936-3.9936 21.4016-7.424 32.8704-10.3936l7.7824-2.0992c11.5712-2.7136 23.6544-4.7616 36.0448-6.4512 3.1232-0.4096 6.1952-1.0752 9.4208-1.3824a428.032 428.032 0 0 1 42.6496-2.5088c1.3312 0 2.5088-0.2048 3.84-0.2048h0.7168c59.136 0 113.8688 11.4176 156.2112 32.3584V148.1216c0-17.2544-53.1456-57.7024-156.2112-57.7024z m0 1.6896c16.8448 0 30.6176 13.6704 30.6176 30.464v3.8912h3.7888a30.5664 30.5664 0 0 1 0 60.9792h-3.7888v3.2256a30.5152 30.5152 0 1 1-61.0816 0.6144v-3.84h-3.7888a30.5664 30.5664 0 0 1-30.6176-30.5152c0-16.7936 13.7216-30.464 30.6176-30.464h3.7888v-3.8912c0-16.7936 13.6704-30.464 30.5152-30.464z" fill="#63666E" p-id="4950"></path></svg>