<?xml version="1.0" encoding="UTF-8"?>
<svg width="23px" height="27px" viewBox="0 0 23 27" version="1.1" xmlns="http://www.w3.org/2000/svg" xmlns:xlink="http://www.w3.org/1999/xlink">
    <title>孕期追踪管理</title>
    <g id="页面-1" stroke="none" stroke-width="1" fill="none" fill-rule="evenodd">
        <g id="编组" transform="translate(-1.369171, 0.500000)" fill="#63666E" fill-rule="nonzero">
            <g id="形状结合">
                <path d="M18.6500299,14.418342 C21.7993429,14.418342 24.3528987,16.9657188 24.3528987,20.1096325 C24.3528987,23.2527893 21.7991766,25.8 18.6500299,25.8 L18.5914517,25.7997713 C18.5850309,25.7999235 18.5785912,25.8 18.5721338,25.8 L18.5371013,25.7969999 L18.4313127,25.7958917 C15.3834867,25.6812028 12.9471611,23.1796926 12.9471611,20.1096325 C12.9471611,17.0029467 15.4406003,14.4787539 18.5384083,14.4194103 C18.5493077,14.4185821 18.5606927,14.418342 18.5721338,14.418342 L18.5896304,14.4186545 C18.6097388,14.4184463 18.6298722,14.418342 18.6500299,14.418342 Z M12.6102823,0.151535815 L15.6608813,0.334271177 C16.2218393,0.367702077 16.753286,0.540703141 17.2139452,0.826063669 C17.2255532,0.833337098 17.2373711,0.840707717 17.2490012,0.848361647 C17.7460084,1.16470312 18.1577887,1.61296419 18.4317312,2.1581754 C20.0351645,5.35078987 21.3367269,8.66646012 21.8559953,11.5784275 C21.9374373,12.0317864 21.9265687,12.4956314 21.8253207,12.9401579 C21.7210678,13.3978774 21.2654991,13.6844187 20.8077796,13.5801657 C20.3852693,13.4839323 20.108615,13.0883528 20.1505506,12.6680551 L20.1677717,12.5626246 C20.2183405,12.340604 20.2238052,12.1073838 20.1825878,11.8779369 C19.6986972,9.16436582 18.4481838,5.97874078 16.9126308,2.92128346 C16.8416842,2.78008285 16.7519305,2.65227061 16.6471459,2.54034571 L16.5798258,2.47491242 C14.9421083,2.9173858 14.6188362,4.11285119 15.2826326,6.20217365 C15.5728059,7.11550435 16.0427235,8.11350509 16.6373882,9.1455254 C17.0418998,9.84754148 17.4009891,10.3996218 17.8352358,11.0272414 C17.9735042,11.2270816 18.0196262,11.4765462 17.9619502,11.7126133 L17.8957063,11.9860974 C17.8395705,12.2177911 17.6887162,12.4152614 17.4799367,12.5303454 L16.0826245,13.2881285 L13.8261036,14.5065618 L13.0906777,14.918452 C13.0422344,14.9460086 12.9934791,14.9738222 12.9441545,15.0020355 C12.4238965,15.301377 11.8993768,15.4523767 11.2263347,15.5273713 C10.8277469,15.5713829 10.10378,15.4002604 9.70776553,15.2243329 C9.11075024,14.9580493 8.70460336,14.903262 8.28870506,15.0242564 C7.96868469,15.1172996 7.91807477,15.2161874 7.98885987,15.5032639 C8.08604399,15.8974046 8.43692477,16.3478871 8.79058992,16.5372103 C9.31253227,16.8168427 10.0294548,16.8761056 10.9960017,16.7475613 C11.4613464,16.6856735 11.8887528,17.01274 11.9506406,17.4780848 C12.0125283,17.9434295 11.6854618,18.3708359 11.2201171,18.4327237 C9.93278445,18.6039304 8.88703148,18.5174853 7.98802181,18.0358378 C7.21062106,17.6196816 6.55097247,16.7727838 6.33829496,15.9102473 C6.05770573,14.7722876 6.58066835,13.7504599 7.81396051,13.3918907 C8.66000464,13.1457571 9.46411995,13.2542284 10.3990941,13.6712511 C10.43527,13.687322 10.490674,13.7060577 10.5540991,13.7250477 L10.7572314,13.7803697 C10.7913618,13.7889136 10.8246958,13.7969183 10.8558326,13.8040827 L11.0050797,13.834573 C11.0218241,13.8371703 11.0335696,13.8383245 11.0389154,13.8377342 C11.4952134,13.7868904 11.7996186,13.6992576 12.0982156,13.5274567 L13.0000261,13.0207414 L14.5817979,12.1638124 L16.0251338,11.388 L15.9995013,11.3480734 C15.7887015,11.0286139 15.586478,10.7081645 15.3769592,10.3569045 L15.1644209,9.99426999 C14.513797,8.86513435 13.9946567,7.76259545 13.6624376,6.71692406 C13.0271224,4.71724717 13.1387102,3.0399727 14.1496876,1.94680987 L12.7141338,1.861 L12.5849998,1.92275101 L12.2077315,2.11218466 C10.7212373,2.86777382 9.55854053,3.63119236 8.6282481,4.5131451 C8.01178951,5.09810801 7.62359223,5.61889198 7.43594411,6.15860614 C7.3264704,6.47442038 7.30409648,6.78685647 7.37003045,7.06735605 C7.40817419,7.22786461 7.47364298,7.388151 7.56840835,7.55025898 L7.73386428,7.79741917 L7.85013376,7.959 C8.25733556,8.27625092 8.39170821,8.93765694 7.88351387,9.32176599 L7.79280036,9.38310913 L7.65370829,9.46389023 L7.41503817,9.61196727 L7.07085291,9.843841 C6.55439469,10.2069809 6.03945057,10.6346352 5.56058798,11.1236017 C2.36346691,14.3881812 2.28954836,18.3631615 7.53864308,23.3395553 L7.84113376,23.622 L11.9132663,23.6243178 C12.3827083,23.6243178 12.7632663,24.0048758 12.7632663,24.4743178 C12.7632663,24.9076489 12.4390039,25.2652445 12.0198885,25.3176951 L11.9132663,25.3243178 L7.64114729,25.3239556 L7.50877185,25.3160716 L7.30723944,25.2972164 C7.17235251,25.2635806 7.04777416,25.1973744 6.94442234,25.1043999 C0.417935011,19.2332247 0.378317345,13.9855578 4.34602323,9.9341344 C4.79118812,9.47957666 5.26020567,9.07309288 5.73558706,8.71381699 L6.11713376,8.436 L6.09713081,8.40189544 C5.96666482,8.17880973 5.86136949,7.94509968 5.78382011,7.70308412 L5.71561474,7.45838593 C5.57262142,6.85008054 5.61834584,6.21157093 5.8299679,5.60107604 C6.1228036,4.75881931 6.66220449,4.03518894 7.45836416,3.27970625 C8.42740414,2.36101922 9.58378234,1.57607468 11.00441,0.82164193 L11.5459303,0.541686087 L11.9276081,0.35229442 L12.1295083,0.259565367 C12.1623596,0.245119243 12.1953524,0.230932126 12.2292982,0.216635992 C12.3496089,0.165967696 12.4799735,0.143691807 12.6102823,0.151535815 Z M19.3730173,16.0816382 L19.3721338,17.218342 C19.3721338,17.6601698 19.0139616,18.018342 18.5721338,18.018342 C18.1642927,18.018342 17.8277322,17.7131538 17.7783669,17.3186923 L17.7721338,17.218342 L17.7719005,16.1122346 C16.1854068,16.457095 14.9422007,17.7170063 14.6255977,19.30938 L15.7471611,19.309171 C16.1889889,19.309171 16.5471611,19.6673432 16.5471611,20.109171 C16.5471611,20.517012 16.241973,20.8535726 15.8475114,20.9029378 L15.7471611,20.909171 L14.6256024,20.9096219 C14.942223,22.5015137 16.1854893,23.7612857 17.7719365,24.106115 L17.7721338,23 C17.7721338,22.5581722 18.130306,22.2 18.5721338,22.2 C18.9799748,22.2 19.3165353,22.5051881 19.3659006,22.8996497 L19.3721338,23 L19.3729862,24.1367088 C21.0331009,23.8425049 22.3475866,22.5530493 22.6744575,20.9096219 L21.5528987,20.909171 C21.1110709,20.909171 20.7528987,20.5509988 20.7528987,20.109171 C20.7528987,19.7013299 21.0580869,19.3647694 21.4525484,19.3154041 L21.5528987,19.309171 L22.6744621,19.30938 C22.3476095,17.6654552 21.0331873,16.3758672 19.3730173,16.0816382 Z"></path>
            </g>
        </g>
    </g>
</svg>