<svg t="1574907710083" class="icon" viewBox="0 0 1024 1024" version="1.1" xmlns="http://www.w3.org/2000/svg" p-id="2008" width="200" height="200"><path d="M15.68768 459.83744c0-22.89664 21.0944-38.72768 43.99104-31.68256h462.88896c7.02464 0 15.83104 3.52256 22.87616 10.5472l130.2528 123.20768 311.5008 1.76128c19.3536 0 33.44384 15.83104 33.44384 33.44384v380.14976c0 17.6128-14.09024 31.68256-33.44384 31.68256H49.11104c-19.3536 0-33.42336-14.06976-33.42336-33.44384z m290.89792 134.2464a18.47296 18.47296 0 0 0-15.36 8.43776L112.80384 892.23168a20.39808 20.39808 0 0 0-2.7648 10.0352c0 10.24 8.27392 18.51392 18.51392 18.51392h0.22528v0.18432h356.84352a18.86208 18.86208 0 0 0 18.30912-18.71872 14.848 14.848 0 0 0-3.1744-9.4208h0.18432L322.51904 603.136a18.59584 18.59584 0 0 0-15.93344-9.05216z m0.4096 240.45568a24.61696 24.61696 0 1 1-0.02048 49.152 24.61696 24.61696 0 0 1 0-49.152z m0.02048-160.29696c13.55776 0 24.59648 10.99776 24.59648 24.59648v92.5696a24.61696 24.61696 0 0 1-49.23392 0v-92.5696c0-13.53728 11.0592-24.576 24.63744-24.576zM696.79104 0.45056c19.37408 0 33.44384 14.09024 33.44384 33.46432V482.7136c0 19.3536-14.06976 33.44384-33.44384 33.44384-19.3536 0-33.42336-14.09024-33.42336-33.44384V69.09952H110.71488v272.7936c0 19.37408-14.06976 33.46432-33.44384 33.46432-19.3536 0-33.42336-14.09024-33.42336-33.44384V35.67616C43.8272 19.82464 56.15616 5.7344 72.00768 2.23232c3.52256-1.76128 8.8064-1.76128 12.30848-1.76128z m130.2528 70.41024c19.3536 0 33.44384 14.09024 33.44384 33.44384V482.7136c0 19.3536-14.09024 33.44384-33.44384 33.44384-19.3536 0-33.44384-14.09024-33.44384-33.44384V137.74848h-12.32896c-19.3536 0-35.18464-14.09024-35.18464-33.44384 0-19.3536 14.06976-33.44384 33.44384-33.44384z m126.70976 45.7728c19.37408 0 33.44384 14.06976 33.44384 33.44384v330.87488c0 19.3536-14.06976 35.20512-33.44384 35.20512-19.3536 0-33.42336-14.09024-33.42336-33.44384V183.5008h-5.28384c-19.37408 0-33.44384-14.06976-33.44384-33.42336 0-19.37408 14.06976-33.44384 33.44384-33.44384z m-362.55744 165.43744c19.37408 0 35.20512 14.06976 35.20512 33.44384 0 19.3536-14.09024 33.42336-33.44384 33.42336H184.64768c-19.37408 0-33.44384-14.06976-33.44384-33.42336 0-19.37408 14.06976-33.44384 33.44384-33.44384z m0-93.2864c19.37408 0 35.20512 14.09024 35.20512 33.44384 0 19.3536-14.09024 33.44384-33.44384 33.44384H184.64768c-19.37408 0-33.44384-14.09024-33.44384-33.44384 0-19.3536 14.06976-33.44384 33.44384-33.44384z m0-93.2864c19.37408 0 35.20512 14.09024 35.20512 33.44384 0 19.37408-14.09024 33.44384-33.44384 33.44384H184.64768c-19.37408 0-33.44384-14.06976-33.44384-33.44384 0-19.3536 14.06976-33.44384 33.44384-33.44384z" fill="#F1556C" p-id="2009"></path></svg>