<svg t="1574907755684" class="icon" viewBox="0 0 1068 1024" version="1.1" xmlns="http://www.w3.org/2000/svg" p-id="2119" width="200" height="200"><path d="M1063.891478 584.013913v422.889739H0.044522V584.013913a826.167652 826.167652 0 0 0 68.385391-164.062609c21.526261-113.485913 29.629217-229.576348 44.610783-344.197565 4.763826-25.6 11.041391-50.910609 18.765913-75.753739h799.543652c5.520696 9.171478 9.794783 19.077565 12.688696 29.42887 11.686957 89.377391 24.909913 178.598957 32.723478 268.421565a586.707478 586.707478 0 0 0 87.084522 286.096695l0.044521 0.066783z m-944.884869-24.709565h204.176695c10.863304-2.448696 22.216348 0.378435 30.72 7.68 8.503652 7.323826 13.178435 18.253913 12.666435 29.562435 4.229565 89.555478 76.53287 160.055652 164.507826 160.434087 87.930435 0.356174 160.768-69.453913 165.776696-158.942609a38.066087 38.066087 0 0 1 13.267478-31.009391 36.507826 36.507826 0 0 1 32.322783-7.702261h202.418087L886.116174 68.830609H177.485913L118.895304 558.970435l0.111305 0.311652zM533.593043 128.356174h208.161392c23.373913 0 43.408696 4.496696 43.408695 33.079652 0 28.560696-20.079304 33.057391-43.408695 32.968348h-419.617392c-23.329391 0-43.386435-4.34087-43.386434-32.968348 0-28.649739 20.057043-33.168696 43.386434-33.079652h211.456z m-1.068521 200.058435h-207.916522c-24.264348 0-46.213565-3.116522-45.634783-34.081392 0.534261-28.761043 21.370435-31.98887 44.410435-31.988869h416.278261c24.264348 0 46.213565 3.027478 45.634783 33.992348-0.445217 28.827826-21.370435 32.144696-44.299131 32.077913h-208.473043z m-3.895652 134.233043H323.450435c-24.464696 0-46.057739-3.82887-45.056-34.704695 0.979478-28.805565 22.26087-30.96487 45.056-30.96487h416.278261c24.553739 0 46.08 3.873391 45.056 34.682435-1.001739 28.827826-22.171826 31.432348-45.033739 31.365565h-211.389218l0.267131-0.400696z" fill="#297EF6" p-id="2120"></path></svg>