<svg t="1574907617650" class="icon" viewBox="0 0 1210 1024" version="1.1" xmlns="http://www.w3.org/2000/svg" p-id="1897" width="200" height="200"><path d="M1025.978182 199.307636c0-62.603636-60.509091-62.603636-60.509091-62.603636H234.565818s-60.509091 0-60.509091 62.603636v62.603637h851.921455v-62.603637zM843.077818 12.148364H356.258909s-60.509091 0-60.509091 62.603636h608.535273c0-62.603636-61.207273-62.603636-61.207273-62.603636z m304.593455 249.786181l-35.746909-37.306181v99.909818H88.087273V225.349818L52.363636 262.632727C16.593455 299.915636-9.541818 309.76 4.910545 387.863273c14.429091 78.103273 84.573091 505.181091 94.88291 562.874182 11.682909 63.301818 74.24 62.603636 74.24 62.603636h851.944727s63.255273 0.698182 74.24-62.603636c10.333091-57.716364 80.477091-484.770909 94.906182-562.874182 14.429091-78.801455-11.682909-88.669091-47.453091-125.928728zM843.077818 599.645091s0 62.603636-61.207273 62.603636H417.466182c-60.509091 0-60.509091-62.603636-60.509091-62.603636v-124.532364H442.181818v99.909818h316.276364v-99.909818h85.294545l-0.698182 124.532364z" fill="#FD7E13" p-id="1898"></path></svg>