<svg t="1605097761822" class="icon" viewBox="0 0 1024 1024" version="1.1" xmlns="http://www.w3.org/2000/svg" p-id="9403" width="200" height="200"><path d="M694.23104 128.28672h-403.8656a10.6496 10.6496 0 0 0-10.6496 8.6016v63.488h425.1648v-60.2112a11.0592 11.0592 0 0 0-8.192-10.6496l-2.4576-1.2288z m163.84 142.1312H126.52544a11.4688 11.4688 0 0 0-10.6496 8.6016v117.5552h751.616v-115.0976a11.0592 11.0592 0 0 0-8.6016-10.6496l-0.8192-0.4096z m-367.0016 257.2288a35.2256 35.2256 0 0 1 35.2256 34.816v51.6096h50.7904a35.2256 35.2256 0 1 1 0 70.4512h-50.7904v51.2a35.2256 35.2256 0 1 1-70.4512 0v-51.2h-51.2a35.2256 35.2256 0 1 1 0-70.4512h49.5616v-51.6096a35.2256 35.2256 0 0 1 36.864-34.816z m368.64 122.88a81.92 81.92 0 0 1 77.4144 56.9344h20.0704a24.1664 24.1664 0 0 1 24.1664 24.1664 24.576 24.576 0 0 1-24.1664 24.576h-19.6608a81.92 81.92 0 0 1-155.648-1.6384h-100.352a24.576 24.576 0 0 1-24.576-24.576 24.1664 24.1664 0 0 1 24.576-24.1664h100.352a81.92 81.92 0 0 1 78.2336-56.5248l-0.4096 1.2288z m-165.4784-592.2816a81.92 81.92 0 0 1 81.92 81.92v60.2112h81.92a81.92 81.92 0 0 1 81.92 81.92v295.3216h-72.4992v-109.7728H114.64704v422.2976a10.6496 10.6496 0 0 0 8.6016 10.6496h443.1872v70.8608H126.52544a81.92 81.92 0 0 1-81.92-81.92V281.47712a81.92 81.92 0 0 1 81.92-81.92h81.92v-59.392a81.92 81.92 0 0 1 81.92-81.92h403.8656z m84.3776 778.24a81.92 81.92 0 0 1 77.824 56.5248h101.1712a24.576 24.576 0 0 1 24.1664 24.576 24.1664 24.1664 0 0 1-24.1664 24.1664h-101.1712a81.92 81.92 0 0 1-155.2384 0h-19.6608a24.1664 24.1664 0 0 1-22.528-23.3472 24.576 24.576 0 0 1 24.576-24.576h16.384a81.92 81.92 0 0 1 78.6432-57.344z" fill="#63666E" opacity=".99" p-id="9404"></path><path d="M937.53344 575.97952a35.2256 35.2256 0 1 1-70.0416 0M566.02624 901.20192a35.2256 35.2256 0 1 1 0 70.4512" fill="#63666E" p-id="9405"></path></svg>