<svg t="1617712477936" class="icon" viewBox="0 0 1024 1024" version="1.1" xmlns="http://www.w3.org/2000/svg" p-id="9096" width="200" height="200"><path d="M694.336 25.6L908.8 240.064V896a102.4 102.4 0 0 1-102.4 102.4h-640A102.4 102.4 0 0 1 64 896V128A102.4 102.4 0 0 1 166.4 25.6h527.936z m-31.872 76.8H166.4a25.6 25.6 0 0 0-25.6 25.6v768c0 14.08 11.52 25.6 25.6 25.6h640a25.6 25.6 0 0 0 25.6-25.6V271.936L662.464 102.4zM742.4 403.584v276.352c0 28.544-26.368 21.376-49.408-5.312L622.208 594.368c-3.264-3.584-4.928-10.688-4.928-17.792V505.216c0-7.104 1.664-14.272 4.928-17.792l70.784-78.464c23.04-26.752 49.408-33.92 49.408-5.376zM544.832 384c21.44 0 39.552 19.584 39.552 42.816v226.368h-1.664c0 23.168-18.112 42.816-39.552 42.816h-273.28c-21.376 0-39.488-19.648-39.488-42.816V426.88c0-23.232 18.112-42.816 39.488-42.816h274.944z" fill="#7375F2" p-id="9097"></path></svg>