<svg t="1617712530242" class="icon" viewBox="0 0 1024 1024" version="1.1" xmlns="http://www.w3.org/2000/svg" p-id="9221" width="200" height="200"><path d="M934.4 240.064L719.936 25.6H192A102.4 102.4 0 0 0 89.6 128v768A102.4 102.4 0 0 0 192 998.4h640a102.4 102.4 0 0 0 102.4-102.4V240.064zM688.064 102.4L857.6 271.936V896a25.6 25.6 0 0 1-25.6 25.6H192a25.6 25.6 0 0 1-25.6-25.6V128c0-14.08 11.52-25.6 25.6-25.6h496.064z" fill="#FAB720" p-id="9222"></path><path d="M524.992 586.56c-26.944-14.08-58.944-21.056-93.952-21.056-94.08 0-171.008 57.024-171.008 128 0 70.016 75.968 128 171.008 128 94.976 0 171.008-57.984 171.008-128V321.536c13.952 6.016 64 25.984 132.992-11.008 24-12.992 13.952-25.984 0-25.984-89.024 0-150.016-36.032-183.04-54.016-16.96-9.984-25.984-7.04-25.984 7.04v348.992h-1.024z" fill="#FCB921" p-id="9223"></path></svg>