<svg t="1596703152272" class="icon" viewBox="0 0 1024 1024" version="1.1" xmlns="http://www.w3.org/2000/svg" p-id="7704" width="64" height="64"><path d="M704 25.6a38.4 38.4 0 0 1 27.136 11.264l192 192A38.4 38.4 0 0 1 934.4 256v640a102.4 102.4 0 0 1-102.4 102.4H192A102.4 102.4 0 0 1 89.6 896V128A102.4 102.4 0 0 1 192 25.6z m-15.936 76.8H192a25.6 25.6 0 0 0-25.6 25.6v768c0 14.08 11.52 25.6 25.6 25.6h640a25.6 25.6 0 0 0 25.6-25.6V271.936L688.064 102.4zM283.392 532.608l11.328 0.256c58.688 3.136 88 31.104 88 83.968 0 27.264-9.984 49.088-30.016 65.536a106.24 106.24 0 0 1-64 23.488l-11.008 0.128h-29.184v92.8h-56.768v-266.24h91.648z m223.296 0l12.032 0.256c86.528 3.584 129.728 46.72 129.728 129.472 0 41.152-13.184 74.24-39.68 99.136-23.552 22.144-53.12 34.432-88.768 36.864l-13.696 0.512H414.72v-266.24h91.968z m325.568 0v46.4h-95.04v68.416h87.424v46.4H737.28v104.96h-56.768v-266.24h151.808z m-330.048 46.4h-30.72v173.44h30.912c26.88 0 48-8.064 63.36-24.064 15.36-16.064 23.04-37.76 23.04-65.152 0-26.496-8-47.104-24.064-61.952-16-14.848-36.864-22.272-62.528-22.272z m-228.608-2.432h-25.088v85.952h24.576c33.28 0 49.984-14.464 49.984-43.52 0-28.288-16.512-42.432-49.472-42.432zM697.6 316.8a38.4 38.4 0 0 1 0 76.8H262.4a38.4 38.4 0 1 1 0-76.8h435.2z m-128-140.8a38.4 38.4 0 1 1 0 76.8H262.4a38.4 38.4 0 1 1 0-76.8h307.2z" fill="#F54E71" p-id="7705"></path></svg>