<svg t="1596703554276" class="icon" viewBox="0 0 1024 1024" version="1.1" xmlns="http://www.w3.org/2000/svg" p-id="8266" width="64" height="64"><path d="M704 25.6H192A102.4 102.4 0 0 0 89.6 128v768A102.4 102.4 0 0 0 192 998.4h640a102.4 102.4 0 0 0 102.4-102.4V256a38.4 38.4 0 0 0-11.264-27.136l-192-192A38.4 38.4 0 0 0 704 25.6z m-15.936 76.8L857.6 271.936V896a25.6 25.6 0 0 1-25.6 25.6H192a25.6 25.6 0 0 1-25.6-25.6V128c0-14.08 11.52-25.6 25.6-25.6h496.064z" fill="#BAC9D7" p-id="8267"></path><path d="M541.76 618.88V608c0-15.808 3.392-29.888 10.24-42.24a98.56 98.56 0 0 1 26.88-33.28c30.272-26.432 48.192-43.072 53.76-49.92 16.192-20.928 24.32-46.912 24.32-78.08 0-38.848-12.8-69.312-38.4-91.52-25.152-22.592-58.432-33.92-99.84-33.92-47.36 0-84.48 13.632-111.36 40.96-26.88 26.88-40.32 63.552-40.32 110.08h67.2c0-28.16 5.76-49.92 17.28-65.28 12.8-18.368 33.728-27.52 62.72-27.52 23.488 0 41.6 6.4 54.4 19.2 12.352 13.248 18.56 30.72 18.56 52.48 0 15.808-5.952 31.36-17.92 46.72l-10.88 12.16c-40.128 35.84-64.192 62.272-72.32 79.36-8.512 15.808-12.8 36.032-12.8 60.8v10.88h68.48z m-34.56 126.08c12.8 0 23.872-4.288 33.28-12.8a45.504 45.504 0 0 0 14.08-33.28 41.856 41.856 0 0 0-13.44-32.64 45.824 45.824 0 0 0-33.92-12.8 44.992 44.992 0 0 0-33.28 12.8 41.856 41.856 0 0 0-13.44 32.64c0 12.8 4.48 23.68 13.44 32.64 8.96 8.96 20.032 13.44 33.28 13.44z" fill="#BAC9D7" p-id="8268"></path></svg>