<svg t="1596703499023" class="icon" viewBox="0 0 1024 1024" version="1.1" xmlns="http://www.w3.org/2000/svg" p-id="7985" width="64" height="64"><path d="M704 25.6a38.4 38.4 0 0 1 27.136 11.264l192 192A38.4 38.4 0 0 1 934.4 256v640a102.4 102.4 0 0 1-102.4 102.4H192A102.4 102.4 0 0 1 89.6 896V128A102.4 102.4 0 0 1 192 25.6z m-15.936 76.8H192a25.6 25.6 0 0 0-25.6 25.6v768c0 14.08 11.52 25.6 25.6 25.6h640a25.6 25.6 0 0 0 25.6-25.6V271.936L688.064 102.4z m-334.08 355.2l102.4 122.88 102.4-122.88h115.2l-160 192 160 192h-115.2l-102.4-122.88-102.4 122.88h-115.2l160-192-160-192h115.2z m343.616-140.8a38.4 38.4 0 0 1 0 76.8H262.4a38.4 38.4 0 1 1 0-76.8h435.2z m-128-140.8a38.4 38.4 0 1 1 0 76.8H262.4a38.4 38.4 0 1 1 0-76.8h307.2z" fill="#46B346" p-id="7986"></path></svg>