<svg t="1596703125644" class="icon" viewBox="0 0 1024 1024" version="1.1" xmlns="http://www.w3.org/2000/svg" p-id="7564" width="64" height="64"><path d="M719.936 25.6L934.4 240.064V896a102.4 102.4 0 0 1-102.4 102.4H192A102.4 102.4 0 0 1 89.6 896V128A102.4 102.4 0 0 1 192 25.6h527.936z m-31.872 76.8H192a25.6 25.6 0 0 0-25.6 25.6v768c0 14.08 11.52 25.6 25.6 25.6h640a25.6 25.6 0 0 0 25.6-25.6V271.936L688.064 102.4z m-51.584 249.6c4.48 0 11.2 4.032 13.504 8l179.712 374.528c2.176 3.008 2.752 5.632 1.92 8.512l-1.216 2.944a12.736 12.736 0 0 1-11.264 6.016H207.232a20.352 20.352 0 0 1-11.072-3.392l-2.432-2.624a14.08 14.08 0 0 1 0-13.44L326.016 565.76c2.24-4.032 6.72-6.08 13.504-6.08 4.48 0 9.088 1.984 11.328 6.08l63.168 87.04 208.896-294.784c2.304-4.032 8.96-6.016 13.568-6.016zM352 272c43.712 0 80 36.224 80 80A80.64 80.64 0 0 1 352 432 80.64 80.64 0 0 1 272 352c-1.408-43.2 35.008-80 80-80z" fill="#00ACC1" p-id="7565"></path></svg>