<svg t="1596703177510" class="icon" viewBox="0 0 1024 1024" version="1.1" xmlns="http://www.w3.org/2000/svg" p-id="7844" width="64" height="64"><path d="M704 25.6H192A102.4 102.4 0 0 0 89.6 128v768A102.4 102.4 0 0 0 192 998.4h640a102.4 102.4 0 0 0 102.4-102.4V256a38.4 38.4 0 0 0-11.264-27.136l-192-192A38.4 38.4 0 0 0 704 25.6z m-15.936 76.8L857.6 271.936V896a25.6 25.6 0 0 1-25.6 25.6H192a25.6 25.6 0 0 1-25.6-25.6V128c0-14.08 11.52-25.6 25.6-25.6h496.064z" fill="#BAC9D7" p-id="7845"></path><path d="M544 544V832a32 32 0 0 1-32 32H384a32 32 0 0 1-32-32V608H448v-64h96zM448 480v64H352.192v-64h95.936z m96-64v64H448v-64h96zM448 352v64H352.192v-64h95.936z m96-64v64H448v-64h96zM448 224v64H352.192v-64h95.936z m96-64v64H448v-64h96z" fill="#BAC9D7" p-id="7846"></path></svg>