<svg t="1596703073485" class="icon" viewBox="0 0 1024 1024" version="1.1" xmlns="http://www.w3.org/2000/svg" p-id="7424" width="64" height="64"><path d="M704 25.6a38.4 38.4 0 0 1 27.136 11.264l192 192A38.4 38.4 0 0 1 934.4 256v640a102.4 102.4 0 0 1-102.4 102.4H192A102.4 102.4 0 0 1 89.6 896V128A102.4 102.4 0 0 1 192 25.6z m-15.936 76.8H192a25.6 25.6 0 0 0-25.6 25.6v768c0 14.08 11.52 25.6 25.6 25.6h640a25.6 25.6 0 0 0 25.6-25.6V271.936L688.064 102.4zM331.776 454.4l57.472 262.4 1.728 9.216c1.6 9.792 2.752 21.184 3.52 34.304h1.728l0.96-10.432c1.28-10.752 3.584-22.144 6.784-34.304L476.032 454.4H563.84l65.472 264.512 1.92 8.448c1.728 9.088 3.2 19.904 4.352 32.576h1.28l1.024-14.4c1.024-9.536 2.56-18.88 4.672-28.16l56.256-262.976h83.776l-103.296 387.264H587.52L521.472 589.12l-3.008-13.888a215.424 215.424 0 0 1-3.2-28.864h-1.024l-1.344 12.416a230.272 230.272 0 0 1-5.632 30.336L439.68 841.6H344.512L241.28 454.4h90.496zM697.6 316.8a38.4 38.4 0 0 1 0 76.8H262.4a38.4 38.4 0 1 1 0-76.8h435.2z m-128-140.8a38.4 38.4 0 1 1 0 76.8H262.4a38.4 38.4 0 1 1 0-76.8h307.2z" fill="#4C84DA" p-id="7425" data-spm-anchor-id="a313x.7781069.0.i3" class=""></path></svg>