<svg t="1574732570489" class="icon" viewBox="0 0 1024 1024" version="1.1" xmlns="http://www.w3.org/2000/svg" p-id="2004" width="200" height="200"><path d="M712.685714 969.417143a12.269714 12.269714 0 0 1-12.470857-12.434286v-38.089143a12.489143 12.489143 0 0 0-8.576-11.611428 170.368 170.368 0 0 1-26.898286-10.971429 12.525714 12.525714 0 0 0-14.390857 2.304l-27.264 27.190857a12.8 12.8 0 0 1-17.536 0L557.275429 877.714286a12.617143 12.617143 0 0 1 0-17.481143l27.245714-27.227429a12.379429 12.379429 0 0 0 2.340571-14.372571 206.957714 206.957714 0 0 1-10.971428-26.788572 12.123429 12.123429 0 0 0-11.648-8.539428h-38.125715a12.269714 12.269714 0 0 1-12.470857-12.416v-68.388572a4.662857 4.662857 0 0 1 0-1.024 11.757714 11.757714 0 0 1 12.470857-10.971428H565.028571a12.562286 12.562286 0 0 0 11.702858-8.557714 161.974857 161.974857 0 0 1 10.971428-26.806858 12.525714 12.525714 0 0 0-2.322286-14.372571l-27.300571-27.209143a12.653714 12.653714 0 0 1 0-17.499428l47.908571-48.969143a12.8 12.8 0 0 1 17.536 0l27.282286 27.227428a12.562286 12.562286 0 0 0 14.409143 2.304 208.329143 208.329143 0 0 1 26.861714-10.971428 12.123429 12.123429 0 0 0 8.612572-11.629715V515.657143a12.269714 12.269714 0 0 1 12.452571-12.105143h68.553143a12.909714 12.909714 0 0 1 12.8 12.434286v38.4a12.470857 12.470857 0 0 0 8.576 11.648 162.505143 162.505143 0 0 1 26.898286 10.843428 12.470857 12.470857 0 0 0 14.409143-2.322285l27.245714-27.172572a12.8 12.8 0 0 1 17.536 0l48.310857 48.164572a12.653714 12.653714 0 0 1 0 17.499428l-27.282286 27.209143a12.489143 12.489143 0 0 0-2.340571 14.372571 202.294857 202.294857 0 0 1 10.971428 26.806858 12.141714 12.141714 0 0 0 11.648 8.557714h38.491429a12.324571 12.324571 0 0 1 12.123429 12.470857v68.406857a13.037714 13.037714 0 0 1-13.275429 12.8h-38.180571a12.452571 12.452571 0 0 0-11.684572 8.557714 163.894857 163.894857 0 0 1-10.861714 26.843429 12.397714 12.397714 0 0 0 2.340571 14.372571l27.245715 27.172572a12.653714 12.653714 0 0 1 0 17.499428l-48.274286 48.219429a12.8 12.8 0 0 1-17.536 0l-27.300572-27.227429a12.452571 12.452571 0 0 0-14.409142-2.304 210.596571 210.596571 0 0 1-26.843429 10.861715 12.123429 12.123429 0 0 0-8.576 11.629714v37.632a12.269714 12.269714 0 0 1-12.470857 12.434286z m-75.190857-232.704a109.842286 109.842286 0 1 0 109.860572-109.604572 109.824 109.824 0 0 0-109.860572 109.604572z m-534.107428 147.017143A66.724571 66.724571 0 0 1 36.571429 817.060571V103.222857A66.706286 66.706286 0 0 1 103.387429 36.571429h681.819428a66.779429 66.779429 0 0 1 66.797714 66.651428v300.452572a33.408 33.408 0 0 1-66.797714 0V103.222857H103.387429v713.837714h314.642285a33.334857 33.334857 0 1 1 0 66.669715z m260.571428-309.028572a19.126857 19.126857 0 0 1-19.236571-18.816v-70.345143h-100.571429a19.401143 19.401143 0 0 1-19.236571-18.907428v-27.867429a19.328 19.328 0 0 1 19.218285-18.980571h100.571429v-62.262857h-100.571429a19.309714 19.309714 0 0 1-19.218285-18.889143v-26.587429a19.328 19.328 0 0 1 19.218285-18.980571h58.898286l-32.219428-44.946286a28.013714 28.013714 0 0 1 10.075428-38.4 32.091429 32.091429 0 0 1 16.256-4.443428 36.571429 36.571429 0 0 1 21.248 7.113142l56.886857 77.732572 52.736-76.178286a27.556571 27.556571 0 0 1 23.771429-12.544 34.742857 34.742857 0 0 1 20.114286 6.619429 26.989714 26.989714 0 0 1 8.283428 36.571428l-33.664 48.438857h68.937143a19.309714 19.309714 0 0 1 19.236571 18.816v26.624a19.382857 19.382857 0 0 1-19.236571 18.980572h-104.228571v62.281143h104.228571a19.309714 19.309714 0 0 1 19.236571 18.816v27.904a19.309714 19.309714 0 0 1-19.163428 19.108571h-105.325714V555.885714a19.364571 19.364571 0 0 1-19.236572 18.962286z" fill="#63666E" p-id="2005"></path></svg>