<svg t="1587626236082" class="icon" viewBox="0 0 1024 1024" version="1.1" xmlns="http://www.w3.org/2000/svg" p-id="7057" width="20" height="20"><path d="M614.4 230.4l115.2 128v406.1312C729.6 780.5824 717.7728 793.6 703.1808 793.6H320.8192C306.2272 793.6 294.4 780.5824 294.4 764.5312V259.4688c0-16.0512 11.8272-29.0688 26.4192-29.0688H614.4z m32.0256 422.9632h-268.928c-10.5216 0-19.0336 8.512-19.0336 19.0208v0.384c0 10.5216 8.512 19.0336 19.0208 19.0336l225.0496 0.0128-29.76 31.0272a19.0208 19.0208 0 0 0 0 26.3296l0.4096 0.4352a18.048 18.048 0 0 0 26.048 0l61.184-63.8592a19.0208 19.0208 0 0 0 0-26.3296l-0.3968-0.4224-0.5504-0.5504a17.9584 17.9584 0 0 0-10.0096-4.8384 19.1616 19.1616 0 0 0-3.0336-0.256z m-196.3136-142.976a18.048 18.048 0 0 0-25.5104 0.5504L363.4944 574.72a19.0208 19.0208 0 0 0 0 26.3296l0.4096 0.4352a18.048 18.048 0 0 0 10.8032 5.4272c0.896 0.128 1.8304 0.2048 2.7776 0.2048h268.9408c10.5088 0 19.0336-8.5248 19.0336-19.0336v-0.384c0-10.5088-8.5248-19.0336-19.0336-19.0336H421.3888l29.6704-30.9632a19.0208 19.0208 0 0 0 0-26.3296l-0.4096-0.4224a18.048 18.048 0 0 0-0.5376-0.5376z m196.4672-94.2848H377.472c-10.496 0-19.0208 8.5248-19.0208 19.0336v0.384c0 10.5088 8.512 19.0336 19.0208 19.0336h269.0944c10.496 0 19.0208-8.5248 19.0208-19.0336v-0.384c0-10.5088-8.5248-19.0336-19.0208-19.0336zM523.6352 320H377.472c-10.496 0-19.0208 8.5248-19.0208 19.0208v0.384c0 10.5216 8.512 19.0336 19.0208 19.0336H523.648c10.496 0 19.0208-8.512 19.0208-19.0208v-0.384c0-10.5088-8.512-19.0336-19.0208-19.0336z" fill="#00ACC1" p-id="7058"></path><path d="M614.4 230.4v128h115.2z" fill="#0BB8CD" p-id="7059"></path></svg>