<svg id="组件_25_9" data-name="组件 25 – 9" xmlns="http://www.w3.org/2000/svg" width="44" height="44" viewBox="0 0 44 44">
  <defs>
    <style>
      .cls-1 {
        fill: none;
      }

      .cls-2 {
        fill: #fff;
      }
    </style>
  </defs>
  <rect id="矩形_494" data-name="矩形 494" class="cls-1" width="44" height="44"/>
  <path id="联合_17" data-name="联合 17" class="cls-2" d="M-66.906-409.066A4.094,4.094,0,0,1-71-413.159v-27.747A4.093,4.093,0,0,1-66.906-445H-45.6a4.093,4.093,0,0,1,4.092,4.094v16.176a7,7,0,0,0-2.454-.461,7,7,0,0,0-2.487.455,7.018,7.018,0,0,0-2.5-.463,6.924,6.924,0,0,0-4.932,2.042,6.979,6.979,0,0,0-.01,9.852c.076.073.143.135.214.2l4.8,4.042Zm2.014-13.925a1.278,1.278,0,0,0,1.257,1.3h2.045a1.279,1.279,0,0,0,1.257-1.257,1.279,1.279,0,0,0-1.257-1.3h-2.045A1.279,1.279,0,0,0-64.892-422.991Zm0-7.054a1.278,1.278,0,0,0,1.257,1.3h7.258a.159.159,0,0,0,.041,0,1.278,1.278,0,0,0,1.257-1.3,1.278,1.278,0,0,0-1.3-1.257h-7.258A1.28,1.28,0,0,0-64.892-430.045Zm0-7.053a1.278,1.278,0,0,0,1.257,1.3h11.705a1.278,1.278,0,0,0,1.255-1.257,1.278,1.278,0,0,0-1.255-1.3H-63.635A1.279,1.279,0,0,0-64.892-437.1Zm18.425,26.744a1.19,1.19,0,0,1-.194-.035,1.155,1.155,0,0,1-.553-.238l-5-4.21c-.026-.022-.05-.045-.075-.067a4.672,4.672,0,0,1-1.284-2.426,4.692,4.692,0,0,1-.085-.9,4.7,4.7,0,0,1,1.377-3.325,4.7,4.7,0,0,1,.693-.563c.079-.055.163-.1.246-.145a5.005,5.005,0,0,1,.519-.272c.1-.043.2-.077.305-.114a4.809,4.809,0,0,1,.511-.149c.109-.026.218-.045.329-.064a4.827,4.827,0,0,1,.523-.049c.068,0,.137-.021.2-.021.03,0,.059.011.09.014a4.7,4.7,0,0,1,1.116.155c.067.017.133.041.2.064a4.585,4.585,0,0,1,1.093.485,4.615,4.615,0,0,1,1.089-.48c.068-.022.132-.047.2-.063a4.615,4.615,0,0,1,1.112-.154c.03,0,.06-.014.09-.014s.083.017.123.019a4.663,4.663,0,0,1,2.3.673l.026.013v0a4.545,4.545,0,0,1,.866.663,4.715,4.715,0,0,1,.012,6.634c-.024.024-.05.049-.077.071l-.8.672-4.21,3.547a1.167,1.167,0,0,1-.35.2.984.984,0,0,1-.114.021,1.21,1.21,0,0,1-.284.05Z" transform="translate(78 449)"/>
</svg>
