<svg id="组件_58_1" data-name="组件 58 – 1" xmlns="http://www.w3.org/2000/svg" width="44" height="44" viewBox="0 0 44 44">
  <defs>
    <style>
      .cls-1 {
        fill: none;
      }

      .cls-2 {
        fill: #fff;
      }
    </style>
  </defs>
  <rect id="矩形_538" data-name="矩形 538" class="cls-1" width="44" height="44"/>
  <path id="路径_204" data-name="路径 204" class="cls-2" d="M26.885.063C15.277-.655,2.4,4.769.166,17.728c-.591,3.419.422,9.962,3.018,12.705-1.2,1.477-2.617,5.3-1.456,7.323.844,1.456,1.709,1.161,2-.063.232-.95-.739-2.638-.549-3.778.3-1.836,1.1-2.912,3-2.617,3.271.507,6.711,1.119,9.94.591A14.459,14.459,0,0,0,22.453,29c3.419-2.7,5.466-7.028,7.155-11.08a46.586,46.586,0,0,0,3.8-16.166C33.47.506,27.412.105,26.885.063Zm3.187,4.706A31.875,31.875,0,0,0,9.684,19.775a12.341,12.341,0,0,0,3.609.528h0a11.491,11.491,0,0,0,5.593-1.435l.38-.211.718,1.33-.38.211a12.864,12.864,0,0,1-6.268,1.583,14.25,14.25,0,0,1-4.39-.7,34.385,34.385,0,0,0-3.039,7.893.719.719,0,0,1-.7.57H5.147l-.127-.021a.771.771,0,0,1-.549-.929,36.115,36.115,0,0,1,9.2-16.42,8.7,8.7,0,0,1-.338-3.124,15.134,15.134,0,0,1,.633-3.546l.148-.443,1.372.591-.127.359a12.059,12.059,0,0,0-.464,5,33.424,33.424,0,0,1,14.795-7.7h.063a.757.757,0,0,1,.823.528A.734.734,0,0,1,30.072,4.769Z" transform="translate(5.097 2.939)"/>
</svg>
