<svg t="1574732872163" class="icon" viewBox="0 0 1024 1024" version="1.1" xmlns="http://www.w3.org/2000/svg" p-id="2564" width="200" height="200"><path d="M552.913455 812.869818H254.370909a23.272727 23.272727 0 0 1-23.272727-23.272727V192.977455a23.272727 23.272727 0 0 1 23.272727-23.272728h458.100364a23.272727 23.272727 0 0 1 23.272727 23.272728c0 46.545455-0.279273 92.765091-0.558545 137.448727-0.279273 44.683636-0.558545 90.996364-0.558546 138.984727 0.186182 10.007273 4.328727 19.549091 11.496727 26.484364 7.074909 6.981818 16.756364 10.798545 26.717091 10.472727a37.515636 37.515636 0 0 0 36.957091-38.027636c0-42.216727 0.232727-83.781818 0.465455-124.602182V330.938182c0.232727-44.776727 0.512-90.996364 0.512-137.914182a98.629818 98.629818 0 0 0-98.443637-98.490182H254.370909a98.676364 98.676364 0 0 0-98.397091 98.490182v596.526545a98.676364 98.676364 0 0 0 98.397091 98.443637h299.659636a37.655273 37.655273 0 0 0 25.50691-64.558546 36.491636 36.491636 0 0 0-26.624-10.565818z" fill="#353D48" p-id="2565"></path><path d="M514.699636 464.477091a37.608727 37.608727 0 0 0-0.512-75.170909H357.282909a37.608727 37.608727 0 0 0 0 75.170909h157.416727zM838.888727 576.698182a118.877091 118.877091 0 0 0-144.570182-9.728 118.784 118.784 0 0 0-145.035636 9.728 121.483636 121.483636 0 0 0 0 171.566545l120.552727 101.701818c6.795636 5.725091 15.36 8.843636 24.250182 8.843637a37.236364 37.236364 0 0 0 24.203637-8.890182l118.225454-99.607273 2.746182-2.466909a121.623273 121.623273 0 0 0-0.372364-171.147636z m-53.108363 68.096a46.266182 46.266182 0 0 1 1.489454 63.627636l-93.090909 78.522182-92.625454-77.917091a46.266182 46.266182 0 0 1 33.605818-77.777454c12.194909 0 23.924364 4.794182 32.581818 13.40509 14.708364 14.429091 38.260364 14.429091 52.968727 0a46.219636 46.219636 0 0 1 64.930909 0.139637h0.139637zM357.236364 541.137455a37.562182 37.562182 0 0 0 0 75.124363h44.125091a37.562182 37.562182 0 1 0 0-75.124363h-44.125091zM609.466182 312.692364a37.608727 37.608727 0 1 0 0-75.217455H357.376a37.608727 37.608727 0 0 0 0 75.217455h252.090182z" fill="#353D48" p-id="2566"></path></svg>