<svg id="组件_56_1" data-name="组件 56 – 1" xmlns="http://www.w3.org/2000/svg" width="44" height="44" viewBox="0 0 44 44">
  <defs>
    <style>
      .cls-1 {
        fill: none;
      }

      .cls-2 {
        fill: #fff;
      }
    </style>
  </defs>
  <rect id="矩形_540" data-name="矩形 540" class="cls-1" width="44" height="44"/>
  <path id="路径_205" data-name="路径 205" class="cls-2" d="M30.847,6.19c-4.683.433-8.6,6.249-9.049,6.533l-.267-.25-4.666-4A20.206,20.206,0,0,1,20.5,4.724c3.033-2.916,7.266-1.5,7.266-1.5,2.516.5,3.383,0,3.383,0a22.935,22.935,0,0,1-3.816-1.967A10.407,10.407,0,0,0,26.2.674c-.183-.083-.683-.233-.8-.267A10.7,10.7,0,0,0,14.016,4.191C4.766,18.556,0,17.723,0,17.723c8.916,3.083,15.215-6.466,15.215-6.466l4.816,4.166A25.156,25.156,0,0,1,9.6,24.489c7.783.25,13.1-6.633,13.1-6.633a31.315,31.315,0,0,0,4.133,2.633,16.561,16.561,0,0,0,2.383.933c7.083,2.433,9.949-1.117,11-3.366a10.821,10.821,0,0,0,.467-1.7,7.723,7.723,0,0,0,.15-1.9A8.316,8.316,0,0,0,33.647,6.24,9.832,9.832,0,0,0,30.847,6.19Zm.967,12.349A21.078,21.078,0,0,1,25.4,15.656l-.3-.25s3.3-4.333,5.5-5.2a6.529,6.529,0,0,1,1.333-.35c1.483-.167,5.283.5,5.516,4.4,0,0,.533,4.25-4.216,4.433A5.929,5.929,0,0,1,31.814,18.539Z" transform="translate(1.724 9.986)"/>
</svg>
