<svg id="组件_74_1" data-name="组件 74 – 1" xmlns="http://www.w3.org/2000/svg" width="44" height="44" viewBox="0 0 44 44">
  <defs>
    <style>
      .cls-1 {
        fill: none;
      }

      .cls-2 {
        fill: #fff;
      }
    </style>
  </defs>
  <rect id="矩形_548" data-name="矩形 548" class="cls-1" width="44" height="44"/>
  <g id="组_109" data-name="组 109" transform="translate(-890.388 -401.408)">
    <path id="联合_33" data-name="联合 33" class="cls-2" d="M65.566-3171.892h-.492c-2.219-.247-4.439-1.973-4.685-4.192v-31.07c0-2.959,2.713-4.439,5.425-4.439H82.58c2.959,0,4.932,1.726,4.932,4.439v24.165a1.165,1.165,0,0,1-1.233,1.233H65.566c-1.479,0-2.958.74-2.958,1.973v2.713c0,1.233,1.726,2.465,3.206,2.465h21.7a2.651,2.651,0,0,0,2.466-2.465v-28.6a1.165,1.165,0,0,1,1.233-1.233,1.321,1.321,0,0,1,1.233,1.233v29.1a4.9,4.9,0,0,1-4.932,4.686Zm.84-26.382a6.141,6.141,0,0,0,1.1,3.837,20.643,20.643,0,0,0,3.394,3.423c2.878,2.382,3.767,2.382,4.3,2.382s1.433,0,4.3-2.38a20.612,20.612,0,0,0,3.381-3.427,6.145,6.145,0,0,0,1.1-3.835,5.642,5.642,0,0,0-5.587-5.389,5.445,5.445,0,0,0-3.18,1.122,5.449,5.449,0,0,0-3.218-1.122A5.642,5.642,0,0,0,66.406-3198.273Zm-.1,21.75a1.165,1.165,0,0,1-1.233-1.233,1.164,1.164,0,0,1,1.233-1.232H86.523a1.164,1.164,0,0,1,1.233,1.232,1.165,1.165,0,0,1-1.233,1.233Zm3.023-19.115a4,4,0,0,1-.743-2.518,3.48,3.48,0,0,1,3.407-3.322c1.873,0,3.2,2,3.2,2s1.407-2,3.2-2a3.481,3.481,0,0,1,3.407,3.322,3.994,3.994,0,0,1-.743,2.518c-.939,1.427-4.981,4.823-5.856,4.823C74.34-3190.815,70.262-3194.223,69.329-3195.638Z" transform="translate(836 3615)"/>
    <g id="组_110" data-name="组 110" transform="translate(0 -0.304)">
      <path id="路径_225" data-name="路径 225" class="cls-2" d="M941.444,566.445h-20.22a1.233,1.233,0,0,0,0,2.466h20.22a1.233,1.233,0,1,0,0-2.466Z" transform="translate(-18.918 -130.43)"/>
    </g>
  </g>
</svg>
