<svg t="1574732947140" class="icon" viewBox="0 0 1024 1024" version="1.1" xmlns="http://www.w3.org/2000/svg" p-id="2677" width="200" height="200"><path d="M0 0h1024v1024H0z" fill="#FFFFFF" p-id="2678"></path><path d="M686.731636 138.705455a329.774545 329.774545 0 0 0-168.075636 49.477818C408.436364 118.644364 299.613091 114.967273 213.829818 177.431273a310.272 310.272 0 0 0-119.389091 240.686545c1.256727 36.770909 9.914182 72.983273 25.506909 106.356364a37.469091 37.469091 0 0 0 68.701091-30.021818 199.633455 199.633455 0 0 1-19.316363-76.334546 234.914909 234.914909 0 0 1 88.669091-180.084363c64.744727-47.429818 147.176727-38.586182 238.033454 25.088 12.753455 8.610909 29.416727 8.843636 42.356364 0.465454a270.801455 270.801455 0 0 1 148.340363-49.943273c106.682182 0 184.040727 85.969455 184.040728 204.474182 0 69.818182-53.201455 161.745455-149.829819 259.397818a906.519273 906.519273 0 0 1-204.8 158.906182 657.826909 657.826909 0 0 1-210.106181-168.261818c-13.963636-14.894545-37.236364-16.290909-52.875637-3.165091a37.562182 37.562182 0 0 0-3.165091 52.968727c88.436364 99.607273 189.672727 175.941818 257.815273 194.466909a36.584727 36.584727 0 0 0 22.853818-1.070545 878.592 878.592 0 0 0 243.572364-181.154909c112.174545-113.338182 171.473455-221.277091 171.473454-311.854546 0-162.164364-108.916364-279.645091-258.978909-279.64509z" fill="#353D48" p-id="2679"></path><path d="M347.089455 621.847273l35.793454-106.216728 71.074909 154.065455a37.236364 37.236364 0 0 0 68.282182-0.512l81.268364-184.878545h32.162909a108.311273 108.311273 0 1 0-8.471273-74.984728h-47.522909a37.236364 37.236364 0 0 0-34.257455 22.434909l-57.390545 132.933819-75.124364-162.909091a37.469091 37.469091 0 0 0-69.352727 3.397818l-57.809455 166.912H114.222545a37.469091 37.469091 0 1 0 0 74.984727h197.53891a37.236364 37.236364 0 0 0 35.328-25.227636z m351.557818-186.740364a33.093818 33.093818 0 1 1 66.187636 0.093091 33.093818 33.093818 0 0 1-66.187636-0.093091z" fill="#353D48" p-id="2680"></path></svg>