<svg id="组件_24_10" data-name="组件 24 – 10" xmlns="http://www.w3.org/2000/svg" width="44" height="44" viewBox="0 0 44 44">
  <defs>
    <style>
      .cls-1 {
        fill: none;
      }

      .cls-2 {
        fill: #fff;
      }
    </style>
  </defs>
  <rect id="矩形_493" data-name="矩形 493" class="cls-1" width="44" height="44"/>
  <path id="联合_13" data-name="联合 13" class="cls-2" d="M-597.134-410.344c-.384-.28-8.085-6.154-12.788-11.794h5.019a1.261,1.261,0,0,0,1.19-.845l2.017-5.985,3.758,8.145a1.246,1.246,0,0,0,1.143.731,1.239,1.239,0,0,0,1.15-.75l3.86-8.782h2.076a4.509,4.509,0,0,0,4.126,2.71,4.512,4.512,0,0,0,4.506-4.5,4.511,4.511,0,0,0-4.506-4.506,4.5,4.5,0,0,0-4.432,3.783h-2.563a1.257,1.257,0,0,0-1.151.75l-3.052,7.068-3.89-8.436a1.249,1.249,0,0,0-1.141-.731,1.248,1.248,0,0,0-1.192.843l-2.764,7.992h-6.047l-.041-.062c-1.409-2.14-3.146-4.828-3.146-8.654,0-6.422,4.843-11.628,10.824-11.628a10.586,10.586,0,0,1,8.43,4.316A10.551,10.551,0,0,1-587.334-445c5.981,0,10.843,5.206,10.843,11.628,0,3.825-1.737,6.494-3.145,8.654-4.07,6.249-14.3,14.052-14.72,14.374a2.238,2.238,0,0,1-1.389.473A2.277,2.277,0,0,1-597.134-410.344Zm9.566-21.074a1.989,1.989,0,0,1,1.986-1.988,1.99,1.99,0,0,1,1.986,1.988,1.991,1.991,0,0,1-1.986,1.988A1.99,1.99,0,0,1-587.568-431.419Z" transform="translate(618 450.5)"/>
</svg>
