<svg id="组件_59_1" data-name="组件 59 – 1" xmlns="http://www.w3.org/2000/svg" width="44" height="44" viewBox="0 0 44 44">
  <defs>
    <style>
      .cls-1 {
        fill: none;
      }

      .cls-2 {
        fill: #fff;
      }
    </style>
  </defs>
  <rect id="矩形_537" data-name="矩形 537" class="cls-1" width="44" height="44"/>
  <g id="组_98" data-name="组 98" transform="translate(2 1.769)">
    <path id="联合_26" data-name="联合 26" class="cls-2" d="M-724.512-2993.983l2.824-2.948a5.386,5.386,0,0,0,4.011,1.842h13.366a5.32,5.32,0,0,0,4.278-2.19l2.824,2.988c-3.4,5.1-8.74,8.535-13.816,8.535C-715.977-2985.755-721.156-2989.05-724.512-2993.983Zm-2.047-3.786h-.43c-2.477,0-4.011-3.091-4.011-6.673a11.241,11.241,0,0,1,2.19-6.57l5.792,6.12v4.5a6.319,6.319,0,0,0,.1.9l-2.989,3.131C-726.129-2996.828-726.354-2997.3-726.558-2997.77Zm27.569-2.292-.02.021a2.332,2.332,0,0,0,.041-.368v-4.586l5.772-6.058a11.456,11.456,0,0,1,2.252,6.612c0,3.6-1.556,6.672-4.011,6.672h-.308c-.164.369-.327.737-.511,1.085Zm-17.653,2.982a4.07,4.07,0,0,1-4.06-4.06v-3.69a4.059,4.059,0,0,1,4.06-4.06h11.408a4.071,4.071,0,0,1,4.06,4.06v3.69a4.07,4.07,0,0,1-4.06,4.06Zm-10.8-16.368c1.76-8,6.938-12.321,16.456-12.321,9.455,0,14.7,4.257,16.579,12.117l-5.179,5.444a5.324,5.324,0,0,0-4.708-2.886h-13.365a5.319,5.319,0,0,0-4.748,2.948Z" transform="translate(731 3025.769)"/>
  </g>
</svg>
