<?xml version="1.0" standalone="no"?><!DOCTYPE svg PUBLIC "-//W3C//DTD SVG 1.1//EN" "http://www.w3.org/Graphics/SVG/1.1/DTD/svg11.dtd"><svg t="1599724628541" class="icon" viewBox="0 0 1024 1024" version="1.1" xmlns="http://www.w3.org/2000/svg" p-id="8556" xmlns:xlink="http://www.w3.org/1999/xlink" width="200" height="200"><defs><style type="text/css"></style></defs><path d="M885.129846 9.334154c38.084923 0 69.041231 30.956308 69.041231 69.080615v241.585231a34.304 34.304 0 0 1-10.121846 24.418462 34.461538 34.461538 0 0 1-58.919385-24.418462V78.414769H125.912615v828.258462h204.484923a34.540308 34.540308 0 1 1 0 69.080615H125.912615c-38.203077 0-69.080615-30.995692-69.080615-69.080615V78.414769c0-38.203077 30.995692-69.080615 69.080615-69.080615zM751.300923 460.012308a68.923077 68.923077 0 0 1 97.555692 0l82.313847 82.313846a69.001846 69.001846 0 0 1 0 97.673846l-321.772308 321.772308-165.927385 11.224615a23.630769 23.630769 0 0 1-25.206154-25.245538l11.185231-165.96677z m48.836923 48.758154l-303.576615 303.419076-5.907693 88.379077 88.339693-5.907692 303.419077-303.537231-82.313846-82.35323zM602.978462 222.680615l6.301538 5.316923 5.395692 5.159385a140.603077 140.603077 0 0 1 5.671385 192.827077l-5.671385 6.025846-199.68 199.68-199.68-199.68a140.603077 140.603077 0 0 1 192.827077-204.524308l6.025846 5.671385 0.787693 0.866462 6.498461-6.183385a140.603077 140.603077 0 0 1 181.563077-5.12z m-133.828924 54.508308l-4.844307 4.411077-49.309539 49.309538L365.725538 281.6a72.073846 72.073846 0 0 0-106.338461 97.083077l4.411077 4.844308 151.236923 151.236923 151.236923-151.236923a72.073846 72.073846 0 0 0 7.995077-92.435693l-4.017231-5.12-3.977846-4.332307a72.073846 72.073846 0 0 0-97.083077-4.450462z" fill="#63666E" p-id="8557"></path></svg>