<svg t="1587626197075" class="icon" viewBox="0 0 1024 1024" version="1.1" xmlns="http://www.w3.org/2000/svg" p-id="6923" width="20" height="20"><path d="M512 204.8a102.4 102.4 0 0 1 46.6432 193.5872A188.1088 188.1088 0 0 1 686.9376 512h115.2a17.0624 17.0624 0 0 1 0 34.1376h-17.0752V793.6a25.6 25.6 0 0 1-25.6 25.6H264.5376a25.6 25.6 0 0 1-25.6-25.6V546.1376h-17.0752a17.0624 17.0624 0 0 1 0-34.1376h115.2a188.16 188.16 0 0 1 128.3072-113.6256A102.4 102.4 0 0 1 512 204.8z m0 358.4c-8.8704 0-16.1664 6.7712-16.9856 15.424l-0.0768 1.6384-0.0128 68.2624h-68.2624a17.0624 17.0624 0 0 0-1.6384 34.0608l1.6384 0.0768h68.2624v68.2752a17.0624 17.0624 0 0 0 34.0608 1.6384l0.0768-1.6384v-68.2752h68.2752a17.0624 17.0624 0 0 0 1.6384-34.048l-1.6384-0.0768-68.2752-0.0128v-68.2624c0-9.4208-7.6416-17.0624-17.0624-17.0624z m0-136.5376A153.6 153.6 0 0 0 374.3616 512h275.2768A153.6 153.6 0 0 0 512 426.6624z m0-187.7248a68.2624 68.2624 0 1 0 0 136.5248 68.2624 68.2624 0 0 0 0-136.5248z" fill="#00ACC1" p-id="6924"></path></svg>