<svg t="1574907015314" class="icon" viewBox="0 0 1024 1024" version="1.1" xmlns="http://www.w3.org/2000/svg" p-id="1783" width="200" height="200"><path d="M242.688 699.904z" p-id="1784"></path><path d="M309.4272 706.2528a17.2416 17.2416 0 0 1 2.0608-2.7648l-0.384-1.6c-15.8592-11.4176-38.6048-24.5504-54.4256-24.5504a24.0512 24.0512 0 0 0-3.84 0.32 15.1296 15.1296 0 0 0-11.3152 8.3072 12.5824 12.5824 0 0 0 1.1392 13.9136c7.1936 9.4208 28.3904 15.7312 66.7648 6.3744z" p-id="1785"></path><path d="M816.8576 642.176V372.8896a172.9408 172.9408 0 0 0-11.264-62.8224c-1.6768-4.416-3.584-8.7296-5.6192-12.992-0.2176-0.4736-0.384-0.96-0.6144-1.4208a172.4416 172.4416 0 0 0-26.88-39.9616l-85.9904-94.4512-106.6624-117.2992a91.1488 91.1488 0 0 0-23.5392-19.1232l-0.7168-0.3968c-2.304-1.28-4.6464-2.4832-7.04-3.5584l-1.7152-0.7296a94.4256 94.4256 0 0 0-6.3104-2.4448c-0.8704-0.2944-1.7536-0.5504-2.6368-0.8192a96.768 96.768 0 0 0-5.632-1.5744c-1.1264-0.2688-2.2528-0.4864-3.3792-0.7168a94.9376 94.9376 0 0 0-5.12-0.896 85.76 85.76 0 0 0-3.9296-0.4352c-1.5616-0.1536-3.1104-0.2944-4.6848-0.3712S512.2432 12.8 510.7968 12.8s-2.8928 0-4.3264 0.0768-3.136 0.2176-4.6976 0.3712c-1.28 0.128-2.56 0.256-3.9168 0.4352a102.0544 102.0544 0 0 0-5.12 0.896c-1.1264 0.2304-2.2528 0.448-3.3664 0.7168a97.5744 97.5744 0 0 0-5.6576 1.5744c-0.8704 0.2688-1.7536 0.5248-2.56 0.8192a94.7584 94.7584 0 0 0-6.3232 2.4448l-1.6896 0.7296a86.5792 86.5792 0 0 0-7.0528 3.5584l-0.7168 0.3968a91.1488 91.1488 0 0 0-23.5392 19.1232l-106.5984 117.2352-86.0544 94.5152a173.5296 173.5296 0 0 0-44.3648 117.1968v298.9056c0 4.672 0.2944 9.3056 0.4608 13.9648a48.2944 48.2944 0 0 1 6.08-18.3424 51.2 51.2 0 0 1 36.6848-25.6 95.8208 95.8208 0 0 1 56.064 12.5952l40.768 21.0432 132.2624-67.1616-41.6-21.4016a197.952 197.952 0 0 1-24.448-12.4928l-121.7024-62.6304a21.7344 21.7344 0 0 1-1.536-0.7936 18.0224 18.0224 0 1 1 18.0352-31.2064l31.7184 16.3584q-2.9056-5.6064-5.44-11.3664a197.9776 197.9776 0 0 1 101.3504-260.992l-6.4-10.4704a18.0224 18.0224 0 0 1 30.72-18.8032l10.816 17.5232a198.4 198.4 0 0 1 26.7136-4.2624v-11.776a18.0224 18.0224 0 1 1 36.0448 0v11.776a200.4352 200.4352 0 0 1 26.7136 4.2624l10.816-17.5232 0.3712-0.6144a18.0224 18.0224 0 0 1 30.3488 19.456l-6.4 10.432q8.7552 3.84 17.088 8.5248a197.9264 197.9264 0 0 1 75.7632 269.44l28.9152-14.8992a14.5408 14.5408 0 0 1 1.536-0.7936 17.3056 17.3056 0 0 1 23.4112 8.4608 18.0096 18.0096 0 0 1-8.96 23.872L352.192 710.8608c2.1632 7.2064 3.84 13.824 6.4 20.864a18.0224 18.0224 0 0 1-29.5552 19.2l-27.4304 59.1104c-0.1152 0.2944-0.256 0.576-0.384 0.8576a18.0352 18.0352 0 0 1-32.2944-16.0384l22.8096-48.96a144.384 144.384 0 0 1-15.2576 0.8576 111.2576 111.2576 0 0 1-19.7632-1.664 64.8704 64.8704 0 0 1-41.8688-23.5648 48.256 48.256 0 0 1-8.7168-18.2016 348.3392 348.3392 0 0 0 56.9088 163.1872l0.256 0.7424a318.6176 318.6176 0 0 0 28.16 36.3264c0.7552 0.8576 1.4592 1.7408 2.2272 2.56l2.4704 2.6496 2.2144 2.3808a291.4432 291.4432 0 0 0 103.296 71.68l1.5104 0.6272c4.7744 1.9328 9.6128 3.7504 14.5024 5.4144 2.7648 0.96 5.5552 1.8176 8.3456 2.688 3.0336 0.9344 6.0544 1.9072 9.1136 2.7392 3.52 0.9728 7.0656 1.8048 10.624 2.6368 1.728 0.4096 3.4432 0.832 5.12 1.2032a268.736 268.736 0 0 0 16.2048 2.9824c3.6736 0.576 7.36 1.1008 11.0592 1.536 1.9584 0.2304 3.9296 0.3968 5.9008 0.5888 3.4304 0.3328 6.848 0.6784 10.24 0.8832 5.3376 0.32 10.7008 0.5248 16.0896 0.5504h0.384c5.3888 0 10.752-0.2304 16.0896-0.5504 3.4432-0.2048 6.8608-0.5504 10.24-0.8832 1.9712-0.192 3.9424-0.3584 5.9008-0.5888a290.6624 290.6624 0 0 0 16.1792-2.3808c3.712-0.64 7.4112-1.28 11.0848-2.1376 1.728-0.3712 3.4432-0.7936 5.12-1.2032 3.5584-0.832 7.1168-1.664 10.6368-2.6368 3.0592-0.832 6.0672-1.8048 9.088-2.7392 2.7904-0.8704 5.5936-1.728 8.3712-2.688a277.76 277.76 0 0 0 14.5024-5.4144l1.5104-0.6272a291.5584 291.5584 0 0 0 103.296-71.68c0.7552-0.7808 1.4848-1.6 2.2272-2.3936s1.664-1.7408 2.4576-2.6368 1.472-1.7408 2.2272-2.56a318.9888 318.9888 0 0 0 28.16-36.3264l0.256-0.7552a348.3776 348.3776 0 0 0 58.3552-194.624v-1.4592z" p-id="1786"></path><path d="M513.3056 242.8544A161.9584 161.9584 0 0 0 351.3728 404.864a162.0096 162.0096 0 0 0 77.2736 138.0224l22.0672 11.3536a161.9712 161.9712 0 1 0 62.5792-311.3472z m-65.7152 131.9424a22.8352 22.8352 0 1 1 22.8352 22.8352 22.8352 22.8352 0 0 1-22.8224-22.8352z m119.3856 88.6784c-1.664 1.8432-3.4304 3.5968-5.2608 5.2608a75.328 75.328 0 0 1-106.4064-5.2608 18.0352 18.0352 0 0 1 26.752-24.192 38.4 38.4 0 0 0 2.8032 2.7904 39.232 39.232 0 0 0 55.424-2.7904 18.0608 18.0608 0 0 1 26.7136 24.192z m-16.8192-65.8432a22.8352 22.8352 0 1 1 22.848-22.8224 22.848 22.848 0 0 1-22.848 22.8096z" p-id="1787"></path></svg>