<svg id="组件_21_5" data-name="组件 21 – 5" xmlns="http://www.w3.org/2000/svg" width="44" height="44" viewBox="0 0 44 44">
  <defs>
    <style>
      .cls-1 {
        fill: none;
      }

      .cls-2 {
        fill: #fff;
      }
    </style>
  </defs>
  <rect id="矩形_496" data-name="矩形 496" class="cls-1" width="44" height="44"/>
  <path id="联合_9" data-name="联合 9" class="cls-2" d="M-1138.416-404.09l-18.706-.013a1.871,1.871,0,0,1-1.827-2.286l.532-2.243,0-.01.821-3.455.007-.03,3.2-13.46h0l.8-3.777a2.06,2.06,0,0,1,2.014-1.633h5.329a2.062,2.062,0,0,1,1.934,1.349l1.021,3.032c.133-.013.31-.03.435-.03a3.667,3.667,0,0,1,3.661,3.661l0,.05a7.924,7.924,0,0,1,5.436,7.555,7.92,7.92,0,0,1-1.061,3.946,8.316,8.316,0,0,1-2.5,2.691l.41,1.235.305.878a1.911,1.911,0,0,1-1.8,2.537Zm-12.944-21.5a1.6,1.6,0,0,0-.088.459c0,3.98,1.128,6.9,3.35,8.68a8.144,8.144,0,0,0,5.252,1.7,4.536,4.536,0,0,0,1.977-.3,1.53,1.53,0,0,0,.923-.7,1.472,1.472,0,0,0,.169-1.138,1.51,1.51,0,0,0-1.47-1.169,1.426,1.426,0,0,0-.367.045l-.068.016v.01a5.472,5.472,0,0,1-1.207.118,5.32,5.32,0,0,1-3.316-1.041c-1.446-1.121-2.181-3.214-2.181-6.229a1.547,1.547,0,0,0-.088-.459,1.47,1.47,0,0,0-1.443-1.072A1.472,1.472,0,0,0-1151.36-425.586Zm-2.819-7.81a6.737,6.737,0,0,1-2-4.8,6.755,6.755,0,0,1,2-4.8,6.74,6.74,0,0,1,4.8-2,6.753,6.753,0,0,1,4.8,2,6.739,6.739,0,0,1,2,4.8,6.773,6.773,0,0,1-2,4.806,6.731,6.731,0,0,1-4.8,2A6.75,6.75,0,0,1-1154.179-433.4Z" transform="translate(1171.9 447)"/>
</svg>
