<svg t="1574733054488" class="icon" viewBox="0 0 1024 1024" version="1.1" xmlns="http://www.w3.org/2000/svg" p-id="2904" width="200" height="200"><path d="M705.402435 711.323826a41.316174 41.316174 0 0 0-51.689739-30.363826l-2.270609 0.667826a110.547478 110.547478 0 0 1-84.591304-18.209391 149.504 149.504 0 0 1-42.073044-123.369739 43.052522 43.052522 0 0 0-2.226087-12.377044 41.360696 41.360696 0 0 0-79.293217 0 42.340174 42.340174 0 0 0-2.181565 12.243478 230.4 230.4 0 0 0 74.039652 190.107827c33.257739 25.822609 74.440348 39.17913 116.513391 37.932521 15.671652 1.380174 31.432348-1.068522 45.946435-7.123478a42.028522 42.028522 0 0 0 23.284869-18.476522 40.559304 40.559304 0 0 0 4.541218-31.031652z" fill="#353D48" p-id="2905"></path><path d="M702.953739 571.792696a86.77287 86.77287 0 0 0-86.461217-80.851479h-2.715826l-18.877218-48.973913a53.158957 53.158957 0 0 0-49.730782-34.682434H433.107478a55.206957 55.206957 0 0 0-51.734261 41.761391l-112.773565 471.930435a46.970435 46.970435 0 0 0 47.371131 59.926261l393.839304 0.311652a47.326609 47.326609 0 0 0 47.014956-66.337392l-12.733217-37.576347a165.264696 165.264696 0 0 0 49.641739-52.090435 176.662261 176.662261 0 0 0-90.913391-253.551305l0.133565 0.133566z m-41.939478 274.432l21.682087 63.042782H344.553739L436.49113 525.356522l12.911305-47.771826h84.146087l19.188869 49.775304 15.582609 45.145043 45.189565-10.462608 4.452174-0.75687c8.681739 0.890435 15.226435 8.370087 15.003826 17.096348l-3.428174 43.141565 41.494261 12.154435a108.187826 108.187826 0 0 1 77.378783 102.622609 101.019826 101.019826 0 0 1-40.069565 78.669913l-3.873392 3.428174a66.337391 66.337391 0 0 1-8.102956 6.544695l-35.350261 21.281392zM479.365565 399.137391A155.826087 155.826087 0 1 0 369.797565 353.502609a153.911652 153.911652 0 0 0 109.568 45.634782zM419.216696 183.741217a85.036522 85.036522 0 0 1 120.208695 120.208696 87.618783 87.618783 0 0 1-120.208695 0 83.745391 83.745391 0 0 1-24.709566-60.104348c0-22.528 8.904348-44.165565 24.798609-60.148869l-0.089043 0.044521z" fill="#353D48" p-id="2906"></path></svg>