<svg id="组件_20_5" data-name="组件 20 – 5" xmlns="http://www.w3.org/2000/svg" width="44" height="44" viewBox="0 0 44 44">
  <defs>
    <style>
      .cls-1 {
        fill: none;
      }

      .cls-2 {
        fill: #fff;
      }
    </style>
  </defs>
  <rect id="矩形_497" data-name="矩形 497" class="cls-1" width="44" height="44"/>
  <path id="联合_21" data-name="联合 21" class="cls-2" d="M-602.312-588.5a.509.509,0,0,1-.518-.521v-4.977l-5.887-.021a2.849,2.849,0,0,1-2.85-2.848l-.017-4.576-2.92.011a.48.48,0,0,1-.432-.26.5.5,0,0,1,.018-.518l3.335-5.415.023-.661c.008-.416,0-.491.015-.563a14.689,14.689,0,0,1,3.989-10.63A14.375,14.375,0,0,1-597.273-624a14.457,14.457,0,0,1,10.336,4.156,14.42,14.42,0,0,1,4.312,10.336,14.5,14.5,0,0,1-4.6,10.566,13.134,13.134,0,0,0-4.141,9.925.509.509,0,0,1-.517.521Zm8.119-18.807.094.253a4.478,4.478,0,0,0,3.883,3.323h.152a3.039,3.039,0,0,0,2.874-1.833,10.54,10.54,0,0,0-.858-10.05,10.54,10.54,0,0,0-6.939-4.648,11,11,0,0,0-1.933-.174,10.489,10.489,0,0,0-6.2,2.025,3.9,3.9,0,0,0-.945,5.521,4.276,4.276,0,0,0,3.711,2.139,8.211,8.211,0,0,0,1.493-.168l.521-.09.013.463a3.435,3.435,0,0,0,.176,1.463c.448,1.186,1.55,1.788,3.272,1.788.166,0,.556-.012.66-.012Zm2.333-.461c-.355-1.027-.766-1.877-2.222-1.877h-.013a3.911,3.911,0,0,0-.461.021,3.292,3.292,0,0,1-.4.023,1.645,1.645,0,0,1-1.008-.311c-.06-.071-.021-.246,0-.492l.021-.4a2.367,2.367,0,0,0-1.121-2.2,2.46,2.46,0,0,0-1.178-.279,6.018,6.018,0,0,0-1.119.135,6.015,6.015,0,0,1-.956.106,2.057,2.057,0,0,1-1.814-1.1,1.565,1.565,0,0,1,.382-2.33,8.3,8.3,0,0,1,4.854-1.584,8.064,8.064,0,0,1,1.478.137,8.193,8.193,0,0,1,5.425,3.621,8.246,8.246,0,0,1,.674,7.83.7.7,0,0,1-.613.418C-590.505-606.038-591.33-606.216-591.86-607.764Z" transform="translate(621 628)"/>
</svg>
