<svg t="1574733224609" class="icon" viewBox="0 0 1024 1024" version="1.1" xmlns="http://www.w3.org/2000/svg" p-id="3243" width="200" height="200"><path d="M518.423273 420.258909c-0.791273 11.217455 0.791273 22.481455 4.654545 33.047273 13.312 31.371636 46.08 49.850182 79.825455 45.009454h7.68a106.496 106.496 0 0 0 92.206545 76.8h3.630546a75.310545 75.310545 0 0 0 71.121454-45.428363 238.219636 238.219636 0 0 0-357.981091-288.581818 93.602909 93.602909 0 0 0-22.807272 132.608 101.515636 101.515636 0 0 0 88.436363 50.455272c11.170909-0.279273 22.295273-1.629091 33.233455-3.909818z m194.978909 81.454546c-1.070545 2.094545-2.606545 3.444364-4.096 3.444363-7.028364 0-21.643636 0-31.976727-30.347636-8.238545-23.924364-19.456-47.197091-57.390546-47.197091h-0.279273c-3.723636 0-7.400727 0.139636-11.077818 0.512a45.893818 45.893818 0 0 1-19.456-1.908364v-0.046545l0.791273-13.172364a60.509091 60.509091 0 0 0-29.463273-56.180363 84.805818 84.805818 0 0 0-55.854545-4.096c-18.618182 2.885818-32.581818 7.68-49.524364-17.128728a23.552 23.552 0 0 1 5.818182-36.212363 168.029091 168.029091 0 0 1 252.648727 202.612363l-0.139636-0.279272z" fill="#353D48" p-id="3244"></path><path d="M792.064 199.400727A337.640727 337.640727 0 0 0 218.298182 450.513455c-0.558545 5.12-0.791273 10.333091-0.698182 15.546181l-0.232727 7.354182-68.468364 111.243637a37.236364 37.236364 0 0 0 31.697455 55.854545h36.631272l0.232728 72.145455c0 48.267636 39.098182 87.458909 87.412363 87.552l100.631273 0.325818v81.035636a36.957091 36.957091 0 0 0 37.236364 37.236364h224.395636a36.910545 36.910545 0 0 0 37.236364-37.236364 257.117091 257.117091 0 0 1 80.849454-194.513454 338.059636 338.059636 0 0 0 6.656-487.656728h0.186182zM443.252364 725.876364H305.384727a13.079273 13.079273 0 0 1-12.846545-13.218909v-109.242182a37.236364 37.236364 0 0 0-37.236364-37.236364h-8.285091l15.825455-24.669091c29.928727-48.034909 29.928727-48.034909 29.928727-58.414545v-31.511273a263.168 263.168 0 0 1 77.312-198.144 258.653091 258.653091 0 0 1 183.901091-77.405091c35.374545 0.093091 70.330182 7.121455 102.958545 20.712727a262.516364 262.516364 0 0 1 78.522182 434.734546 334.336 334.336 0 0 0-102.865454 211.642182h-151.738182V763.345455a37.236364 37.236364 0 0 0-37.608727-37.469091z" fill="#353D48" p-id="3245"></path></svg>