<svg t="1575017037194" class="icon" viewBox="0 0 1024 1024" version="1.1" xmlns="http://www.w3.org/2000/svg" p-id="2230" width="200" height="200"><path d="M512 0C229.2224 0 0 229.2224 0 512s229.2224 512 512 512 512-229.2224 512-512S794.7776 0 512 0z m213.504 665.6A42.3424 42.3424 0 0 1 665.6 725.504l-153.6-153.6-153.6 153.6A42.3424 42.3424 0 0 1 298.496 665.6l153.6-153.6-153.6-153.6A42.3424 42.3424 0 0 1 358.4 298.496l153.6 153.6 153.6-153.6A42.3424 42.3424 0 0 1 725.504 358.4l-153.6 153.6 153.6 153.6z" fill="#F3536A" p-id="2231"></path></svg>