<svg t="1576217168667" class="icon" viewBox="0 0 1024 1024" version="1.1" xmlns="http://www.w3.org/2000/svg" p-id="2721" width="200" height="200"><path d="M833.024 528.244364a68.980364 68.980364 0 0 0-41.890909-46.545455l-167.237818-61.067636a166.725818 166.725818 0 0 0-152.343273-100.910546c-155.601455 9.774545-223.883636 218.763636-246.132364 308.922182l-19.735272 124.974546c-3.723636 24.203636 3.258182 48.872727 19.176727 67.537454 14.754909 17.221818 36.305455 27.229091 58.973091 27.322182l59.764363-0.232727-19.409454 81.594181a37.655273 37.655273 0 0 0 27.927273 45.195637 37.841455 37.841455 0 0 0 45.102545-27.927273l22.574546-96.954182h6.423272l23.272728 97.047273a37.608727 37.608727 0 1 0 73.122909-17.501091l-19.595637-81.035636h51.805091a79.127273 79.127273 0 0 0 77.265455-80.244364l0.465454-184.180364 58.088728 15.406546a130.327273 130.327273 0 0 0-3.025455 28.253091 37.608727 37.608727 0 0 0 75.170909 0c0-3.165091 0-6.237091 0.465455-9.309091 10.053818 0.558545 20.107636-1.024 29.463272-4.654546 0.558545 4.654545 0.791273 9.309091 0.744728 13.963637v306.408727a37.562182 37.562182 0 1 0 75.124363 0V627.898182a138.193455 138.193455 0 0 0-35.560727-99.653818z m-126.882909-0.744728l-74.472727-21.736727a57.716364 57.716364 0 0 0-50.641455 9.309091 60.974545 60.974545 0 0 0-24.017454 48.733091v204.427636a5.864727 5.864727 0 0 1-2.187637 5.12l-272.989091-1.163636a9.309091 9.309091 0 0 1-1.908363-7.400727l15.266909-102.4c0.977455-6.283636 2.234182-12.520727 3.723636-18.618182 13.963636-56.506182 68.794182-241.477818 175.616-249.157818a92.16 92.16 0 0 1 84.061091 65.396363l7.400727 18.618182 140.148364 48.872727zM604.578909 338.292364a166.818909 166.818909 0 1 0 0-333.637819 166.818909 166.818909 0 0 0 0 333.637819z m-91.554909-166.865455a91.508364 91.508364 0 1 1 182.923636 0 91.508364 91.508364 0 0 1-182.877091 0h-0.046545z" fill="#2c2c2c" p-id="2722"></path></svg>