<svg id="组件_23_9" data-name="组件 23 – 9" xmlns="http://www.w3.org/2000/svg" width="44" height="44" viewBox="0 0 44 44">
  <defs>
    <style>
      .cls-1 {
        fill: none;
      }

      .cls-2 {
        fill: #fff;
      }
    </style>
  </defs>
  <rect id="矩形_492" data-name="矩形 492" class="cls-1" width="44" height="44"/>
  <path id="联合_15" data-name="联合 15" class="cls-2" d="M-336.677-403.259a1.23,1.23,0,0,1-.774-.555,1.238,1.238,0,0,1-.155-.941l1.012-4.252-3.285.015a3.071,3.071,0,0,1-2.319-1.079,3.352,3.352,0,0,1-.763-2.691l.692-4.621.2-1.012c.977-3.954,3.974-13.184,10.713-13.606h0a7.055,7.055,0,0,1,6.519,4.471l7.75,2.826a2.7,2.7,0,0,1,1.645,1.918,5.745,5.745,0,0,1,1.565,4.279v13.86a1.245,1.245,0,0,1-1.245,1.244,1.244,1.244,0,0,1-1.244-1.244v-13.86a3.749,3.749,0,0,0-.178-1.3l-.1.054a2.549,2.549,0,0,1-1.319.373,1.921,1.921,0,0,1-.618-.078,5.764,5.764,0,0,0-.088.94,1.245,1.245,0,0,1-1.242,1.242,1.244,1.244,0,0,1-1.245-1.242,5.771,5.771,0,0,1,.229-1.606l-3.631-.961-.023,8.919a3.116,3.116,0,0,1-3.039,3.178h-2.923l1.023,4.227a1.252,1.252,0,0,1-.923,1.5,1.189,1.189,0,0,1-.272.032,1.241,1.241,0,0,1-1.227-.954l-1.129-4.735-1.012,0-1.105,4.737a1.238,1.238,0,0,1-1.211.961A1.209,1.209,0,0,1-336.677-403.259Zm4.163-34.946a6.8,6.8,0,0,1,6.79-6.794,6.8,6.8,0,0,1,6.793,6.794,6.8,6.8,0,0,1-6.793,6.792A6.8,6.8,0,0,1-332.514-438.206Z" transform="translate(350 446)"/>
</svg>
