<svg t="1574732658416" class="icon" viewBox="0 0 1024 1024" version="1.1" xmlns="http://www.w3.org/2000/svg" p-id="2116" width="200" height="200"><path d="M729.069714 601.033143v-61.001143a8.027429 8.027429 0 0 0-7.990857-8.045714H284.946286a8.027429 8.027429 0 0 0-7.990857 8.045714v61.001143h96.036571a32 32 0 0 1 32 32v286.134857a32 32 0 0 1-32 32H86.838857a32 32 0 0 1-32-32V633.033143a31.981714 31.981714 0 0 1 32-32h126.061714v-101.046857a32.018286 32.018286 0 0 1 32.036572-32h226.048v-62.866286h-111.012572a32 32 0 0 1-32-32V86.838857a32 32 0 0 1 32-32H646.034286a32 32 0 0 1 32 32v286.134857a31.981714 31.981714 0 0 1-32 32h-111.012572v63.012572h226.011429a31.981714 31.981714 0 0 1 32 32v101.046857h126.061714a32 32 0 0 1 32 32v286.134857a32 32 0 0 1-32 32H633.033143a32 32 0 0 1-32-32V633.033143a32 32 0 0 1 32-32z m-329.142857-482.194286a8.064 8.064 0 0 0-8.045714 8.027429v206.061714a8.027429 8.027429 0 0 0 8.045714 7.990857h206.025143a7.990857 7.990857 0 0 0 7.990857-7.990857V126.866286a8.027429 8.027429 0 0 0-7.972571-8.027429zM126.793143 665.033143a8.027429 8.027429 0 0 0-7.990857 8.027428v206.061715a7.990857 7.990857 0 0 0 7.990857 8.009143h206.061714a8.027429 8.027429 0 0 0 8.045714-8.009143V673.060571a8.064 8.064 0 0 0-8.045714-8.027428z m546.194286 0a8.027429 8.027429 0 0 0-7.990858 8.027428v206.061715a7.990857 7.990857 0 0 0 7.990858 8.009143h206.061714a8.027429 8.027429 0 0 0 8.027428-8.009143V673.060571a8.064 8.064 0 0 0-8.027428-8.027428z" fill="#63666E" p-id="2117"></path></svg>