<svg t="1574733551827" class="icon" viewBox="0 0 1228 1024" version="1.1" xmlns="http://www.w3.org/2000/svg" p-id="3804" width="200" height="200"><path d="M793.992533 492.253867c134.724267 0 244.2752-107.4176 244.2752-239.445334 0-132.130133-109.568-239.616-244.2752-239.616-134.724267 0-244.258133 107.485867-244.258133 239.496534 0 132.078933 109.550933 239.496533 244.258133 239.496533m241.117867 99.584c-65.467733-26.333867-146.568533-39.645867-241.117867-39.645867-94.549333 0-175.7184 13.2608-241.117866 39.645867-54.1184 21.76-97.826133 52.394667-129.9456 91.136-55.739733 67.328-56.388267 135.748267-56.388267 138.581333 0 49.5616 40.738133 110.250667 102.980267 140.578134 62.3104 30.3104 102.468267 45.312 324.471466 45.312 222.0032 0 255.3344-20.0192 317.3888-45.312 62.122667-25.2928 110.08-91.016533 110.08-140.578134 0-2.833067-0.6656-71.253333-56.405333-138.581333-32.0512-38.673067-75.810133-69.3248-130.013867-91.136h0.068267zM305.4592 552.106667c100.983467 0 183.176533-80.5888 183.176533-179.592534 0-99.054933-82.193067-179.643733-183.176533-179.643733-101.051733 0-183.2448 80.5888-183.2448 179.592533 0 99.054933 82.261333 179.643733 183.2448 179.643734M378.8288 605.354667c-10.410667-0.512-232.157867-12.117333-338.2272 108.458666C-2.9184 763.221333 0.0512 819.370667 0.0512 821.5552c0 49.5616 65.8944 147.6608 228.096 147.6608s107.758933-72.2944 101.717333-87.722667c-48.093867-123.153067 76.253867-241.390933 77.8752-244.599466 13.704533-27.869867-12.117333-30.651733-28.962133-31.5392h0.0512z" fill="#FFFFFF" p-id="3805"></path></svg>