<svg t="1574733521583" class="icon" viewBox="0 0 1074 1024" version="1.1" xmlns="http://www.w3.org/2000/svg" p-id="3692" width="200" height="200"><path d="M534.695869 1015.740852C243.879869 1015.740852 8.108066 939.49482 8.108066 845.421115c0-74.97023 149.99082-138.491803 358.064262-161.221246l5.522885 62.480787c-124.021508 18.230557-221.889049 55.531016-221.889049 98.740459 0 61.154623 195.85259 110.709508 384.889705 110.709508 189.037115 0 384.889705-49.554885 384.889705-110.709508 0-43.696262-100.167344-81.349246-226.287213-99.361574l5.539672-62.396852c210.373246 22.30977 362.445639 86.267803 362.445639 161.758426 0 94.073705-235.771803 170.319738-526.587803 170.319737z m-0.48682-129.594754h-70.018098l-28.856656-272.43436h-106.932459V343.123934c0-74.53377 187.392-67.09718 204.162098-66.308196 16.887607-0.788984 205.572197-8.225574 205.572197 66.308196v270.604591h-108.342557l-28.873443 272.417573h-66.711082z m-2.85377-658.48236a113.546492 113.546492 0 1 1 113.563278-113.496131 113.529705 113.529705 0 0 1-113.546491 113.496131z" fill="#00ACC1" p-id="3693"></path></svg>