<svg t="1602813486846" class="icon" viewBox="0 0 1256 1024" version="1.1" xmlns="http://www.w3.org/2000/svg" p-id="8452" width="200" height="200"><path d="M1140.363636 5.12a64.698182 64.698182 0 0 1 64.418909 58.461091l0.279273 6.237091V465.454545a41.425455 41.425455 0 0 1-82.525091 5.213091L1122.210909 465.454545l-0.046545-333.312-491.380364 389.073455a41.425455 41.425455 0 0 1-46.731636 3.211636l-4.654546-3.258181L87.924364 132.189091 87.970909 936.029091H558.545455a41.425455 41.425455 0 0 1 41.099636 36.212364l0.325818 5.21309a41.425455 41.425455 0 0 1-36.212364 41.099637L558.545455 1018.88H69.818182a64.698182 64.698182 0 0 1-64.418909-58.461091L5.12 954.181818v-884.363636A64.698182 64.698182 0 0 1 63.581091 5.399273L69.818182 5.12h1070.545454zM930.909091 580.514909a23.272727 23.272727 0 0 1 13.498182 4.328727l262.516363 187.485091a23.272727 23.272727 0 0 1 0 37.888l-262.516363 187.485091a23.272727 23.272727 0 0 1-36.770909-18.944V872.727273h-279.272728a23.272727 23.272727 0 0 1-23.272727-23.272728v-116.363636a23.272727 23.272727 0 0 1 23.272727-23.272727h279.272728v-106.030546a23.272727 23.272727 0 0 1 23.272727-23.272727zM1044.526545 87.970909H165.608727L605.090909 435.898182l439.435636-347.927273z" fill="#63666e" p-id="8453"></path></svg>