<svg t="1584003052071" class="icon" viewBox="0 0 1353 1024" version="1.1" xmlns="http://www.w3.org/2000/svg" p-id="6860" width="20" height="20"><path d="M1229.421714 0c23.442286 0 42.788571 17.810286 45.092572 40.704l0.219428 4.608v518.948571a271.945143 271.945143 0 0 1 58.221715 168.118858c0 150.930286-122.770286 273.700571-273.700572 273.700571a272.896 272.896 0 0 1-207.323428-95.451429l-6.4-7.753142H64.512c-23.478857 0-42.752-17.810286-45.056-40.630858l-0.256-4.644571V45.348571c0-23.515429 17.810286-42.788571 40.667429-45.092571L64.512 0h1164.909714z m-170.166857 549.302857a183.259429 183.259429 0 0 0-183.04 183.076572 183.259429 183.259429 0 0 0 183.04 183.076571 183.259429 183.259429 0 0 0 183.04-183.076571 183.259429 183.259429 0 0 0-183.04-183.076572z m80.896 85.101714a43.885714 43.885714 0 0 1 31.268572 12.982858 44.214857 44.214857 0 0 1 0 62.134857l-108.032 108.032a43.922286 43.922286 0 0 1-62.171429 0L947.2 763.501714a44.032 44.032 0 1 1 62.500571-62.061714l22.674286 22.491429 76.653714-76.617143c8.667429-8.484571 19.565714-12.909714 31.085715-12.909715z m43.958857-543.817142H109.824v721.700571h687.689143a273.481143 273.481143 0 0 1-11.958857-79.908571c0-150.930286 122.806857-273.664 273.700571-273.664a270.994286 270.994286 0 0 1 114.505143 25.380571l10.349714 5.046857V90.587429z m-744.301714 60.708571c55.734857 0 107.812571 24.795429 142.921143 68.022857a184.173714 184.173714 0 0 1-11.337143 244.516572 267.849143 267.849143 0 0 1 135.131429 231.789714c0 25.161143-20.48 45.714286-45.677715 45.714286a45.787429 45.787429 0 0 1-45.677714-45.714286 175.469714 175.469714 0 0 0-175.286857-175.286857 175.433143 175.433143 0 0 0-175.250286 175.286857c0 25.161143-20.48 45.714286-45.677714 45.714286-25.197714 0-45.714286-20.553143-45.714286-45.714286a267.922286 267.922286 0 0 1 135.131429-231.789714A184.137143 184.137143 0 0 1 324.022857 192.365714a184.393143 184.393143 0 0 1 115.821714-41.069714z m0.073143 92.598857a92.672 92.672 0 0 0-92.525714 92.525714 93.110857 93.110857 0 0 0 92.562285 92.525715 92.635429 92.635429 0 0 0 92.525715-92.525715 92.635429 92.635429 0 0 0-92.525715-92.525714z m599.771428-63.670857a45.714286 45.714286 0 0 1 0 91.428571h-126.281142a45.714286 45.714286 0 0 1 0-91.428571z" p-id="6861"></path></svg>