<svg t="1585552470398" class="icon" viewBox="0 0 1024 1024" version="1.1" xmlns="http://www.w3.org/2000/svg" p-id="6676" width="20" height="20"><path d="M577.152 545.728l-6.4-2.816 5.504-4.288a250.752 250.752 0 0 0-143.552-448.768h-10.24a251.008 251.008 0 0 0-250.688 250.816 273.344 273.344 0 0 0 96.448 204.8l5.056 4.48-6.4 2.496a423.488 423.488 0 0 0-266.752 349.12 34.944 34.944 0 0 0 8.704 27.072 34.304 34.304 0 0 0 59.712-19.648 356.032 356.032 0 0 1 707.84 0 34.432 34.432 0 1 0 68.416-7.36 437.312 437.312 0 0 0-267.648-355.904z m-154.688-23.232a182.016 182.016 0 1 1 182.016-181.952 182.144 182.144 0 0 1-182.016 181.952z" p-id="6677"></path><path d="M790.464 530.176l-5.888-2.816 4.992-4.16a224.448 224.448 0 0 0-69.248-384 34.944 34.944 0 0 0-11.392-1.984 34.56 34.56 0 0 0-34.368 34.624 34.176 34.176 0 0 0 22.592 32.384 155.584 155.584 0 0 1 5.44 291.584 44.8 44.8 0 0 0-28.032 42.176 45.44 45.44 0 0 0 35.968 44.8 304 304 0 0 1 236.032 257.92 34.816 34.816 0 0 0 34.176 30.592 34.368 34.368 0 0 0 25.6-11.648 34.944 34.944 0 0 0 8.32-27.584 388.864 388.864 0 0 0-224.192-301.888z" p-id="6678"></path></svg>