<svg t="1585552426892" class="icon" viewBox="0 0 1024 1024" version="1.1" xmlns="http://www.w3.org/2000/svg" p-id="6542" width="20" height="20"><path d="M823.168 44.8H198.912A154.304 154.304 0 0 0 44.8 198.912v624.256a154.304 154.304 0 0 0 154.112 154.112h624.256a154.24 154.24 0 0 0 154.112-154.112V198.912A154.24 154.24 0 0 0 823.168 44.8zM333.44 910.72h-134.4a87.68 87.68 0 0 1-87.552-87.552v-134.4h222.08z m0-288.64H111.36V400h222.08z m0-288.64H111.36v-134.4a87.68 87.68 0 0 1 87.552-87.552h134.4z m288.64 577.28H400v-222.08h222.08z m0-288.64H400V400h222.08z m0-288.64H400V111.36h222.08z m288.64 489.728a87.68 87.68 0 0 1-87.552 87.552h-134.4v-222.08h221.824z m0-201.088h-222.016V400h221.888z m0-288.64h-222.016V111.36h134.4a87.68 87.68 0 0 1 87.552 87.552z" p-id="6543"></path></svg>