<svg t="1584002711199" class="icon" viewBox="0 0 1024 1024" version="1.1" xmlns="http://www.w3.org/2000/svg" p-id="6200" width="20" height="20"><path d="M724.96097 464.585697c21.690182 0 39.253333 17.594182 39.253333 39.253333v193.256728h187.733333a39.222303 39.222303 0 1 1 0 78.506666l-187.733333-0.03103v193.194667a39.253333 39.253333 0 1 1-78.506667 0v-193.194667h-187.733333a39.253333 39.253333 0 1 1 0-78.475636h187.733333v-193.256728c0-21.659152 17.563152-39.253333 39.253334-39.253333zM951.947636 0c21.659152 0 39.253333 17.563152 39.253334 39.253333v460.179394a39.222303 39.222303 0 0 1-78.506667 0V78.475636H109.53697v824.475152h388.220121a39.222303 39.222303 0 1 1 0 78.475636H70.283636A39.253333 39.253333 0 0 1 31.030303 942.173091V39.253333C31.030303 17.563152 48.624485 0 70.283636 0h881.664zM432.128 561.058909a39.222303 39.222303 0 1 1 0 78.506667H169.146182a39.253333 39.253333 0 1 1 0-78.506667h262.981818zM826.647273 282.841212a39.222303 39.222303 0 1 1 0 78.475636H169.177212a39.253333 39.253333 0 1 1 0-78.506666h657.43903z" p-id="6201"></path></svg>