<svg t="1584003107412" class="icon" viewBox="0 0 1024 1024" version="1.1" xmlns="http://www.w3.org/2000/svg" p-id="6992" width="20" height="20"><path d="M539.383742 525.972645c44.593548 0 80.268387 34.882065 81.325419 77.724903v326.689033a80.103226 80.103226 0 0 1-79.607742 77.790967h-77.790967c-44.593548 0-80.268387-34.882065-81.292387-77.691871V603.829677a80.136258 80.136258 0 0 1 79.607741-77.857032h77.757936zM881.300645 417.197419l0.165161 0.132129c45.254194 0.132129 80.070194 34.155355 81.160259 77.559742v435.464258a80.070194 80.070194 0 0 1-79.607742 77.824H805.326452c-44.593548 0-80.268387-34.882065-81.292387-77.691871V495.021419a80.103226 80.103226 0 0 1 79.574709-77.824h77.757936zM197.433806 671.083355c44.593548 0 80.268387 34.882065 81.259355 77.724903v181.479226a80.037161 80.037161 0 0 1-79.475613 77.790968H121.327484c-44.593548 0-80.268387-34.816-81.259355-77.625807v-181.54529a80.037161 80.037161 0 0 1 79.508645-77.824h77.857032z m-5.384258 83.142193h-65.403871v170.842839h65.403871v-170.842839z m341.949936-145.110709h-65.403871v315.920516h65.403871V609.114839z m342.049032-108.808258H810.611613v424.728774h65.403871V500.306581zM927.545806 0c24.014452 0 42.611613 18.167742 43.239226 41.422452v187.656258a42.71071 42.71071 0 0 1-42.413419 41.55458h-0.990968a42.875871 42.875871 0 0 1-43.140129-41.422451V143.690323l-197.202581 158.521806a225.610323 225.610323 0 0 1-142.071741 50.539355 225.511226 225.511226 0 0 1-139.759484-48.722581 133.549419 133.549419 0 0 0-174.773678 5.681549l-123.309419 113.069419a44.230194 44.230194 0 0 1-29.530839 11.363097H76.965161c-11.726452 0-22.693161-4.459355-30.984258-12.552258a40.497548 40.497548 0 0 1-0.660645-57.145807l125.060129-114.489806a221.084903 221.084903 0 0 1 150.792258-59.160774c50.737548 0 100.385032 17.639226 139.792516 49.680516 23.783226 18.960516 53.677419 29.39871 84.133162 29.398709 31.248516 0 61.770323-10.933677 85.883871-30.786064l193.734193-156.011355h-93.844645c-24.146581 0-42.314323-17.11071-43.668645-38.945032A41.68671 41.68671 0 0 1 726.181161 0l4.888774 5.285161V0h196.475871z" p-id="6993"></path></svg>