<svg t="1584003017381" class="icon" viewBox="0 0 1024 1024" version="1.1" xmlns="http://www.w3.org/2000/svg" p-id="6728" width="20" height="20"><path d="M684.617143 557.114514c120.978286 0 219.370057 98.391771 219.370057 219.3408v130.574629a88.8832 88.8832 0 0 1-88.795429 88.795428H205.824A88.8832 88.8832 0 0 1 117.028571 907.029943v-130.574629c0-120.949029 98.421029-219.3408 219.370058-219.3408z m0 73.1136H336.398629A146.402743 146.402743 0 0 0 190.171429 776.455314v130.574629c0 8.630857 7.021714 15.681829 15.623314 15.681828h609.367771a15.681829 15.681829 0 0 0 15.652572-15.681828v-130.574629A146.402743 146.402743 0 0 0 684.617143 630.198857z m-0.585143 86.601143c25.6 0 46.431086 21.621029 46.431086 48.157257a20.597029 20.597029 0 0 1-0.117029 2.194286 38.326857 38.326857 0 0 1-2.808686 14.482286 50.848914 50.848914 0 0 1-2.691657 6.114743l-0.2048 0.321828-0.263314 0.526629-0.2048 0.438857c-0.497371 0.877714-0.994743 1.901714-1.696914 2.984228-18.432 31.626971-64.9216 65.097143-66.911086 66.647772a7.9872 7.9872 0 0 1-9.771886 0.029257c-2.311314-1.784686-56.758857-40.842971-70.948571-74.781257l-0.2048-0.585143a40.7552 40.7552 0 0 1-3.393829-15.36l0.029257-0.643657a17.495771 17.495771 0 0 1-0.175542-2.369829c0-26.565486 20.860343-48.157257 46.460342-48.157257 12.609829 0 24.576 5.471086 33.236115 14.7456a45.524114 45.524114 0 0 1 33.236114-14.7456zM510.420114 0c140.258743 0 254.244571 113.985829 254.244572 254.1568 0 140.170971-113.985829 254.186057-254.1568 254.215314a254.829714 254.829714 0 0 1-220.130743-127.093028 254.829714 254.829714 0 0 1 0-254.215315A254.741943 254.741943 0 0 1 510.390857 0z m0.087772 73.1136A181.248 181.248 0 0 0 329.435429 254.1568a181.248 181.248 0 0 0 181.0432 181.072457 181.540571 181.540571 0 0 0 156.789028-90.550857 181.482057 181.482057 0 0 0 0-181.013943 181.540571 181.540571 0 0 0-156.818286-90.550857z" p-id="6729"></path></svg>