<svg t="1584002994806" class="icon" viewBox="0 0 1024 1024" version="1.1" xmlns="http://www.w3.org/2000/svg" p-id="6596" width="20" height="20"><path d="M54.489212 0c21.53503 0 39.005091 17.470061 39.005091 39.005091l-0.062061 881.881212H1014.380606v77.917091H15.515152V39.036121C15.515152 17.43903 32.985212 0 54.489212 0z m858.267152 265.836606c10.488242 0 20.48 4.158061 27.741091 11.419152a39.098182 39.098182 0 0 1-0.062061 55.171878l-263.912727 264.005819a39.191273 39.191273 0 0 1-43.535515 17.904484 39.036121 39.036121 0 0 1-24.203637-16.756363l-183.544242-183.544243-189.688243 189.719273a38.725818 38.725818 0 0 1-27.554909 11.388121 39.067152 39.067152 0 0 1-27.554909-66.653091l217.02594-217.025939c7.292121-7.230061 17.345939-11.388121 27.616969-11.388121h0.310303c10.302061 0 20.386909 4.189091 27.679031 11.574303l188.819393 188.788363 243.246546-243.246545c7.354182-7.323152 17.128727-11.357091 27.492848-11.357091h0.124122z" p-id="6597"></path></svg>