<svg id="组件_17_5" data-name="组件 17 – 5" xmlns="http://www.w3.org/2000/svg" width="44" height="44" viewBox="0 0 44 44">
  <defs>
    <style>
      .cls-1 {
        fill: none;
      }

      .cls-2 {
        fill: #fff;
      }
    </style>
  </defs>
  <rect id="矩形_500" data-name="矩形 500" class="cls-1" width="44" height="44"/>
  <path id="路径_150" data-name="路径 150" class="cls-2" d="M426.5,404.925c-1.074-3.761-2.721-6.088-5.509-7.784a10.644,10.644,0,0,0-5.608-1.529,8.562,8.562,0,0,0-2.987.4,4.776,4.776,0,0,0-1.833,1.473,5.058,5.058,0,0,0-.682,1.484l-1.038-1.038V387.851a1.339,1.339,0,1,0-2.678,0v10.085l-1.036,1.034a5.009,5.009,0,0,0-.68-1.48,4.762,4.762,0,0,0-1.833-1.473,8.562,8.562,0,0,0-2.987-.4,10.632,10.632,0,0,0-5.606,1.529c-2.79,1.7-4.437,4.023-5.511,7.784-.757,2.651-.914,7.109-.483,13.622a1.205,1.205,0,0,0,1.2,1.126h9.277a6.739,6.739,0,0,0,6.74-6.738V411.9l0-.009v-9.238l2.263-2.28,2.265,2.267v10.295a6.738,6.738,0,0,0,6.738,6.738h9.277a1.205,1.205,0,0,0,1.2-1.126C427.418,412.034,427.261,407.576,426.5,404.925Z" transform="translate(-385.497 -384.511)"/>
</svg>
