<svg t="1574733242340" class="icon" viewBox="0 0 1024 1024" version="1.1" xmlns="http://www.w3.org/2000/svg" p-id="3356" width="200" height="200"><path d="M468.433455 160.721455a37.236364 37.236364 0 0 0-37.236364 37.236363v115.618909a263.121455 263.121455 0 0 0-193.815273 29.416728 283.042909 283.042909 0 0 0-128.744727 181.527272c-19.595636 102.4-23.412364 207.127273-11.310546 310.690909a37.236364 37.236364 0 0 0 37.236364 34.769455h209.082182a162.257455 162.257455 0 0 0 162.024727-162.257455V197.957818a37.236364 37.236364 0 0 0-37.236363-37.236363z m-85.643637 349.835636a249.111273 249.111273 0 0 1-90.530909 47.709091 36.910545 36.910545 0 0 0-27.182545 34.210909l10.053818 0.465454-10.100364 0.279273a32.581818 32.581818 0 0 0 0.558546 9.588364 37.236364 37.236364 0 0 0 44.962909 27.648 281.739636 281.739636 0 0 0 69.259636-28.718546c17.082182-9.588364 33.419636-20.48 48.826182-32.581818l2.56-1.954909v125.672727a89.925818 89.925818 0 0 1-95.883636 102.4H169.658182a878.312727 878.312727 0 0 1 10.705454-250.554181 211.874909 211.874909 0 0 1 95.744-138.053819 176.453818 176.453818 0 0 1 93.090909-25.134545c20.898909 0.418909 41.704727 2.653091 62.231273 6.656l0.791273 76.986182c-15.173818 16.430545-31.650909 31.650909-49.291636 45.381818h-0.139637zM916.526545 524.288a282.856727 282.856727 0 0 0-128.744727-181.527273 263.447273 263.447273 0 0 0-193.815273-29.416727V197.678545a37.236364 37.236364 0 1 0-74.472727 0v510.045091a162.210909 162.210909 0 0 0 162.024727 162.024728h209.454546a37.236364 37.236364 0 0 0 37.236364-34.769455 1022.231273 1022.231273 0 0 0-11.68291-310.690909z m-322.513454 43.008l2.56 2.001455c15.406545 12.101818 31.744 22.946909 48.779636 32.581818 21.783273 12.660364 45.149091 22.341818 69.538909 28.811636a37.841455 37.841455 0 0 0 44.776728-27.927273 35.188364 35.188364 0 0 0 0.465454-10.379636 37.236364 37.236364 0 0 0-27.415273-34.210909 249.111273 249.111273 0 0 1-90.298181-47.569455 549.236364 549.236364 0 0 1-48.500364-43.426909l-2.234182-76.520727a196.514909 196.514909 0 0 1 157.463273 15.918545 211.688727 211.688727 0 0 1 95.557818 138.24c15.499636 82.571636 19.083636 166.958545 10.705455 250.554182h-164.817455a90.251636 90.251636 0 0 1-96.768-102.4l0.186182-125.672727z" fill="#63666e" p-id="3357"></path></svg>