<svg t="1618387275439" class="icon" viewBox="0 0 1024 1024" version="1.1" xmlns="http://www.w3.org/2000/svg" p-id="9251" width="200" height="200"><path d="M732.73344 211.84512a35.2256 35.2256 0 1 1 0 70.4512h-303.5136a35.2256 35.2256 0 0 1 0-70.4512h303.5136z m0 133.12a35.2256 35.2256 0 1 1 0 70.4512h-303.5136a35.2256 35.2256 0 0 1 0-70.4512h303.5136z m-477.5936-152.7808h-79.0528a10.6496 10.6496 0 0 0-10.6496 9.0112v357.9904h89.7024v-367.0016z m569.344-101.5808H338.28864a11.4688 11.4688 0 0 0-11.0592 10.24v458.3424h102.8096v150.7328h148.6848v-150.7328h257.6384V100.84352a11.4688 11.4688 0 0 0-11.8784-9.8304v-0.4096z m-175.3088 542.72v151.1424h-290.816v-151.1424h-271.1552a11.4688 11.4688 0 0 0-11.0592 8.6016v257.2288h839.68v-256.8192a11.0592 11.0592 0 0 0-9.4208-9.0112h-257.2288z m175.3088-614.4a81.92 81.92 0 0 1 81.92 81.92v458.752h4.5056a81.92 81.92 0 0 1 77.0048 81.92v327.68H5.28384v-327.68a81.92 81.92 0 0 1 81.92-81.92h4.5056v-355.9424a81.92 81.92 0 0 1 81.92-81.92h81.5104v-20.8896a81.92 81.92 0 0 1 81.92-81.92h487.424z" fill="#63666E" p-id="9252"></path></svg>