<svg t="1618387186178" class="icon" viewBox="0 0 1064 1024" version="1.1" xmlns="http://www.w3.org/2000/svg" p-id="9126" width="200" height="200"><path d="M730.68544 236.01152a35.6352 35.6352 0 0 1 0 70.8608h-297.7792a35.6352 35.6352 0 1 1 0-70.8608h297.7792z m-362.496 10.24a36.0448 36.0448 0 0 1 3.2768 46.6944l-3.2768 3.6864-122.88 122.88a35.2256 35.2256 0 0 1-43.4176 4.9152l-4.096-2.4576-62.2592-51.2a35.6352 35.6352 0 0 1 40.96-58.1632l4.096 2.8672 37.6832 31.1296 99.5328-100.352a36.4544 36.4544 0 0 1 50.3808 0z m362.496 176.128a35.6352 35.6352 0 0 1 0 70.8608h-297.7792a35.6352 35.6352 0 1 1 0-70.8608h297.7792z m-393.216 73.3184a35.2256 35.2256 0 0 1 0 49.9712l-36.864 36.864 36.864 36.864a35.34848 35.34848 0 1 1-49.9712 49.9712l-36.4544-36.0448-36.864 36.864a35.34848 35.34848 0 1 1-49.9712-49.9712l36.4544-36.864-36.4544-36.864a35.34848 35.34848 0 0 1 49.9712-49.9712l36.864 36.864 36.864-36.864a35.2256 35.2256 0 0 1 49.5616-0.8192z m229.376 113.0496a35.6352 35.6352 0 0 1 0 70.8608h-133.9392a35.6352 35.6352 0 1 1 0-70.8608h133.9392z m240.0256 92.16a73.728 73.728 0 1 1-73.3184 73.3184c0-40.50944 32.768-73.3184 73.3184-73.3184z m0-36.864a110.592 110.592 0 1 0 0 221.184 110.592 110.592 0 0 0 0-221.184z m0-645.12a76.5952 76.5952 0 0 1 76.1856 70.4512v377.2416a34.816 34.816 0 0 1-35.2256 35.2256 35.2256 35.2256 0 0 1-35.2256-30.72v-376.0128a4.9152 4.9152 0 0 0-3.6864-4.9152H81.87904a5.3248 5.3248 0 0 0-5.3248 3.6864v726.6304c0 2.37568 1.47456 4.5056 3.6864 5.3248h466.944a35.2256 35.2256 0 0 1 35.2256 35.6352c-0.04096 17.73568-13.14816 32.768-30.72 35.2256H81.87904a75.776 75.776 0 0 1-76.5952-70.0416V95.10912a76.1856 76.1856 0 0 1 70.4512-76.1856h731.136z m0 550.5024a32.768 32.768 0 0 1 32.768 32.768v28.672c16.22016 3.6864 31.70304 10.07616 45.8752 18.8416l20.0704-20.0704a32.768 32.768 0 1 1 46.2848 44.6464l-20.0704 20.0704c8.76544 14.00832 15.1552 29.36832 18.8416 45.4656h28.672a32.768 32.768 0 1 1 0 65.536h-28.672a150.7328 150.7328 0 0 1-18.8416 45.8752l20.0704 20.0704a33.34144 33.34144 0 0 1-45.4656 48.7424l-20.0704-20.48a151.552 151.552 0 0 1-45.8752 19.2512v28.2624a32.768 32.768 0 1 1-65.1264 0v-27.0336a149.0944 149.0944 0 0 1-45.4656-19.2512l-20.0704 20.48a34.44736 34.44736 0 0 1-49.152-48.3328l20.0704-20.0704a150.7328 150.7328 0 0 1-18.8416-45.8752h-28.672a32.768 32.768 0 1 1 0-65.536h28.672a148.2752 148.2752 0 0 1 18.8416-45.4656l-20.0704-21.7088a32.768 32.768 0 0 1 46.2848-46.2848l20.0704 20.0704a148.2752 148.2752 0 0 1 45.4656-18.8416v-28.672a32.3584 32.3584 0 0 1 34.4064-31.1296z" fill="#63666E" p-id="9127"></path></svg>