<svg t="1618388776880" class="icon" viewBox="0 0 1024 1024" version="1.1" xmlns="http://www.w3.org/2000/svg" p-id="10001" width="200" height="200"><path d="M156.891429 969.435429A66.066286 66.066286 0 0 1 91.428571 902.784V103.222857A66.048 66.048 0 0 1 156.891429 36.571429h719.634285a66.102857 66.102857 0 0 1 65.444572 66.651428V336.457143a33.517714 33.517714 0 0 1-9.636572 23.533714 32.201143 32.201143 0 0 1-23.094857 9.764572 32.914286 32.914286 0 0 1-32.713143-33.298286V103.222857H156.891429v799.561143h193.828571a33.334857 33.334857 0 0 1 0 66.651429z m277.083428-27.081143l10.605714-160.219429L749.714286 471.533714a64.475429 64.475429 0 0 1 92.452571 0l78.025143 79.469715a67.510857 67.510857 0 0 1 0 94.281142l-305.005714 310.601143-157.257143 10.843429h-1.572572a22.674286 22.674286 0 0 1-22.381714-24.374857z m74.24-130.816l-5.632 85.321143 83.766857-5.76 287.597715-292.992-78.025143-79.506286z m-221.842286-110.336a33.334857 33.334857 0 0 1 0-66.651429h130.816a33.334857 33.334857 0 0 1 0.109715 66.651429z m2.157715-198.217143a33.334857 33.334857 0 0 1 0-66.651429h261.723428a33.334857 33.334857 0 0 1 0 66.651429zM287.085714 301.568a33.353143 33.353143 0 0 1 0-66.688h457.984a33.353143 33.353143 0 0 1-0.109714 66.688z" fill="#63666E" p-id="10002"></path></svg>