<?xml version="1.0" standalone="no"?><!DOCTYPE svg PUBLIC "-//W3C//DTD SVG 1.1//EN" "http://www.w3.org/Graphics/SVG/1.1/DTD/svg11.dtd"><svg t="1604306133511" class="icon" viewBox="0 0 1024 1024" version="1.1" xmlns="http://www.w3.org/2000/svg" p-id="9222" xmlns:xlink="http://www.w3.org/1999/xlink" width="200" height="200"><defs><style type="text/css"></style></defs><path d="M678.4 550.4c70.6944 0 128 57.3056 128 128s-57.3056 128-128 128-128-57.3056-128-128 57.3056-128 128-128z m-64-320l115.2 128v181.952a146.8928 146.8928 0 0 0-51.2-9.152c-81.2928 0-147.2 65.9072-147.2 147.2 0 46.656 21.7088 88.2432 55.5776 115.2128L320.8192 793.6C306.2272 793.6 294.4 780.5824 294.4 764.5312V259.4688c0-16.0512 11.8272-29.0688 26.4192-29.0688H614.4z m62.4256 399.3472a41.8944 41.8944 0 0 0-41.8304 39.5136l-0.064 2.3808v62.8352h-20.9408a6.976 6.976 0 0 0-1.1392 13.8752l1.1392 0.0896h125.6704a6.976 6.976 0 0 0 1.1264-13.8752l-1.1264-0.0896H718.72v-62.848a41.8944 41.8944 0 0 0-41.8944-41.8816z m2.432 26.9952l0.6272 0.064 0.5504 0.2816c0.3328 0.256 0.5504 0.6144 0.64 1.0112l0.0256 0.6272-3.0208 20.736h10.2912l0.5504 0.0896a1.7408 1.7408 0 0 1 1.2032 1.6512l-0.0384 0.3584-0.128 0.3456-13.0176 29.632-0.2688 0.4352a1.7408 1.7408 0 0 1-0.8192 0.5376l-0.512 0.0768-0.5504-0.0896a1.7536 1.7536 0 0 1-1.1008-1.1392l-0.0896-0.576 0.6656-20.928h-8.9856l-0.576-0.1024-0.512-0.2688-0.384-0.4352-0.2304-0.5504-0.0384-0.576 0.1536-0.5632 14.1056-29.632 0.3584-0.512a1.7664 1.7664 0 0 1 1.1008-0.4736z m65.8048 14.8992h-20.9408v13.952h20.9408a6.976 6.976 0 1 0 0-13.952z m-115.5328 0h-20.9536a6.976 6.976 0 0 0-1.1264 13.8752l1.1264 0.0896h20.9536v-13.9648z m98.496-49.7024l-1.0368 0.704-16.2816 13.184 8.7808 10.8416 16.2816-13.184a6.976 6.976 0 0 0-7.744-11.5456z m-111.1808 1.728a6.9888 6.9888 0 0 0 0.128 8.96l0.896 0.8704 16.2816 13.184 8.7936-10.8544-16.2816-13.184a6.976 6.976 0 0 0-9.8176 1.024z m59.9808-28.8256a6.9888 6.9888 0 0 0-6.8864 5.8496l-0.1024 1.1264v20.9536h13.9648v-20.9536a6.976 6.976 0 0 0-6.976-6.976z m-30.2464-178.7392H377.472c-9.8816 0-18.0096 7.552-18.944 17.2032l-0.0768 1.8304v0.384c0 9.8944 7.552 18.0224 17.1904 18.944l1.8304 0.0896h269.0944c9.8816 0 18.0096-7.552 18.944-17.2032l0.0768-1.8304v-0.384c0-10.5088-8.5248-19.0336-19.0208-19.0336zM523.6352 320H377.472c-9.8816 0-18.0096 7.552-18.944 17.1904l-0.0768 1.8304v0.384c0 9.9072 7.552 18.0352 17.1904 18.944l1.8304 0.0896H523.648c9.8816 0 18.0096-7.552 18.944-17.1904l0.0768-1.8304v-0.384c0-10.5088-8.512-19.0336-19.0208-19.0336z" fill="#00ACC1" p-id="9223"></path><path d="M614.4 230.4v115.2a12.8 12.8 0 0 0 12.8 12.8h102.4l-115.2-128z" fill="#24D1E6" p-id="9224"></path></svg>