<svg t="1574732742310" class="icon" viewBox="0 0 1024 1024" version="1.1" xmlns="http://www.w3.org/2000/svg" p-id="2228" width="200" height="200"><path d="M156.397714 984.429714A65.572571 65.572571 0 0 1 91.428571 918.290286V120.996571A65.572571 65.572571 0 0 1 156.397714 54.857143H874.057143a65.517714 65.517714 0 0 1 64.950857 66.139428v797.257143a65.517714 65.517714 0 0 1-64.950857 66.176z m0.310857-66.139428L874.057143 917.942857l-0.292572-796.598857h-69.485714v253.001143a43.026286 43.026286 0 0 1-45.714286 39.588571 52.260571 52.260571 0 0 1-15.634285-2.395428l-98.011429-25.344-98.048 25.344a52.187429 52.187429 0 0 1-15.634286 2.395428 43.008 43.008 0 0 1-45.604571-39.588571V121.344h-329.142857zM660.937143 321.828571l77.952 20.114286V121.344h-187.977143V341.942857l77.952-20.114286 16.054857-4.150857z m-402.285714 460.507429a32.987429 32.987429 0 0 1 0-65.993143h405.686857a32.987429 32.987429 0 0 1 0 65.993143z m0-163.126857a33.024 33.024 0 0 1 0-66.048H517.12a33.024 33.024 0 0 1 0 66.048z" fill="#63666E" p-id="2229"></path></svg>