<svg t="1617677143997" class="icon" viewBox="0 0 1090 1024" version="1.1" xmlns="http://www.w3.org/2000/svg" p-id="17933" width="200" height="200"><path d="M314.995613 100.385032A74.223484 74.223484 0 0 0 240.805161 174.509419a74.190452 74.190452 0 0 0 148.314839 0 74.223484 74.223484 0 0 0-74.157419-74.124387m-0.099097 231.85342c-69.037419 0-129.288258-44.659613-149.999484-111.153549l-1.552516-4.855742H58.467097C35.344516 216.229161 16.516129 197.466839 16.516129 174.410323c0-23.122581 18.828387-41.917935 41.950968-41.917936h105.009548l1.486452-4.888774A156.738065 156.738065 0 0 1 314.995613 16.516129c68.839226 0 129.156129 44.659613 150.032516 111.186581l1.519484 4.888774h550.647742c11.164903 0 21.636129 4.327226 29.464774 12.254968a41.851871 41.851871 0 0 1-29.596903 71.382709H466.415484l-1.486452 4.855742c-20.843355 66.460903-81.127226 111.153548-150.032516 111.153549m412.638968 128.330322a74.124387 74.124387 0 0 0-74.157419 73.959226 74.223484 74.223484 0 0 0 74.157419 74.157419 74.223484 74.223484 0 0 0 74.124387-74.157419 74.091355 74.091355 0 0 0-74.124387-73.959226m0 231.952516c-68.839226 0-129.156129-44.626581-150.032516-111.021419l-1.519484-4.82271H58.467097c-23.122581 0-41.950968-18.894452-41.950968-42.149161 0-23.023484 18.828387-41.719742 41.950968-41.719742h517.516387l1.519484-4.888774c20.876387-66.493935 81.160258-111.219613 150.032516-111.219613s129.156129 44.725677 150.032516 111.219613l1.519484 4.888774h138.074839a41.422452 41.422452 0 0 1 41.620645 41.68671c0 23.287742-18.696258 42.182194-41.719742 42.182193h-137.975742l-1.519484 4.82271c-20.942452 66.394839-81.259355 111.021419-150.032516 111.021419m-412.572903 97.742452a74.223484 74.223484 0 0 0-74.124387 74.157419 74.223484 74.223484 0 0 0 74.157419 74.124387 74.223484 74.223484 0 0 0 74.157419-74.124387 74.223484 74.223484 0 0 0-74.157419-74.157419m0 232.051613c-59.68929 0-115.381677-35.212387-141.873548-89.748645l-1.915871-3.897807H58.467097c-23.122581 0-41.950968-18.795355-41.950968-41.917935 0-23.155613 18.828387-41.950968 41.950968-41.950968h100.153806l0.957936-5.813677a157.167484 157.167484 0 0 1 155.416774-132.360258 156.672 156.672 0 0 1 155.185548 132.327225l0.957936 5.84671h546.023226c23.023484 0 41.752774 18.795355 41.752774 41.950968 0 23.122581-18.72929 41.917935-41.719742 41.917935H458.553806l-1.882838 3.897807c-26.822194 55.362065-81.094194 89.748645-141.708387 89.748645" fill="#9298AD" p-id="17934"></path></svg>