<svg t="1617349299877" class="icon" viewBox="0 0 1024 1024" version="1.1" xmlns="http://www.w3.org/2000/svg" p-id="10245" width="200" height="200"><path d="M842.628326 0.001229a77.823813 77.823813 0 0 1 77.987653 71.229269l0.24576 6.021105V512a35.225515 35.225515 0 0 1-35.430315 34.979756 35.307435 35.307435 0 0 1-35.143596-30.597047l-0.286719-4.382709V77.251603a7.290863 7.290863 0 0 0-5.038068-6.881263l-2.334715-0.409599H98.714592a7.372782 7.372782 0 0 0-6.963183 4.997108l-0.409599 2.293754v869.496794c0 3.194872 2.129915 5.939186 5.038067 6.881263l2.334715 0.409599h412.916769a35.225515 35.225515 0 0 1 35.430315 34.979756c0 17.817557-13.516768 32.563122-30.965686 34.693037L511.590401 1023.998771H98.714592a77.823813 77.823813 0 0 1-77.987653-71.229269L20.48118 946.748397V77.251603C20.48118 36.619381 52.266063 3.318981 92.570607 0.246988L98.714592 0.001229h743.913734z" fill="#63666E" p-id="10246"></path><path d="M747.150796 569.343862a200.703518 200.703518 0 0 1 164.740724 315.391243l78.806851 78.765891a35.430315 35.430315 0 0 1-46.489488 53.288833l-3.604472-3.153913-78.84781-78.806851a200.703518 200.703518 0 1 1-114.605805-365.485203z m0 70.86063a129.842888 129.842888 0 1 0-0.08192 259.685777 129.842888 129.842888 0 0 0 0.08192-259.685777zM572.456815 450.437268a35.430315 35.430315 0 0 1 4.423669 70.57391l-4.423669 0.28672h-26.869696v32.604081c0 18.063317-13.516768 32.972721-31.006645 35.143596l-4.42367 0.286719a35.430315 35.430315 0 0 1-35.184555-30.965685l-0.24576-4.46463v-58.408819c0-22.200267 15.892442-42.188699 38.707108-44.769173l4.997108-0.286719h54.02611z" fill="#63666E" p-id="10247"></path><path d="M497.418275 653.311661c3.194872 4.01407 11.386853 4.01407 14.622685 0l36.741032-45.219732 36.741032-45.137811c3.194872-4.01407-0.860158-9.011178-7.290863-9.011179h-146.964127c-6.512624 0-10.567655 4.997108-7.331823 9.011179l36.700072 45.137811 36.781992 45.219732z" fill="#63666E" p-id="10248"></path><path d="M407.101692 151.061346a145.81725 145.81725 0 1 0 0 291.67546 145.81725 145.81725 0 0 0 0-291.67546z m0 70.86063a74.95662 74.95662 0 1 1 0 149.9542 74.95662 74.95662 0 0 1 0-149.9542z" fill="#63666E" p-id="10249"></path><path d="M407.060732 371.917136a35.430315 35.430315 0 1 1 0 70.86063 162.078331 162.078331 0 0 0-162.078331 162.078331 35.430315 35.430315 0 0 1-70.86063 0A232.938961 232.938961 0 0 1 407.060732 371.917136z" fill="#63666E" p-id="10250"></path></svg>