<svg t="1593423624428" class="icon" viewBox="0 0 1024 1024" version="1.1" xmlns="http://www.w3.org/2000/svg" p-id="7273" width="64" height="64"><path d="M739.77856 518.22592a245.76 245.76 0 1 1 0 491.52 245.76 245.76 0 0 1 0-491.52z m0 53.248a192.512 192.512 0 1 0 0 385.024 192.512 192.512 0 0 0 0-385.024zM809.00096 15.48288l4.62848 0.24576c19.74272 2.12992 35.47136 17.73568 37.80608 37.4784l0.28672 4.99712v380.14976h-0.12288l-0.2048 3.60448a37.02784 37.02784 0 0 1-73.3184 0.98304l-0.4096-5.65248 0.12288-347.87328H113.58208V881.8688l317.27616-0.08192a36.98688 36.98688 0 0 1 0.49152 73.9328v0.12288h-348.9792l-4.66944-0.28672a42.8032 42.8032 0 0 1-37.76512-37.4784l-0.28672-4.99712V58.20416l0.24576-4.62848C42.02496 33.792 57.67168 18.0224 77.37344 15.7696L82.3296 15.48288h726.6304z m-89.12896 808.26368a14.29504 14.29504 0 0 1 14.49984 14.29504v4.5056h5.44768a8.84736 8.84736 0 0 1 8.64256 7.53664v12.20608a9.0112 9.0112 0 0 1-9.0112 9.0112h-133.5296a9.0112 9.0112 0 0 1-9.4208-9.95328v-9.4208a5.44768 5.44768 0 0 1 0-1.6384v-1.72032a9.4208 9.4208 0 0 1 9.4208-6.02112h5.81632v-3.39968a14.49984 14.49984 0 0 1 14.45888-15.40096h93.67552z m64.3072-99.1232l3.44064 0.94208 85.36064 73.89184 1.59744 1.2288 1.4336 1.4336c8.88832 9.66656 9.4208 24.08448 1.88416 34.36544l-2.8672 3.2768a27.4432 27.4432 0 0 1-38.912 0h-0.94208l-1.67936-2.08896-74.30144-85.6064v-1.31072a2.048 2.048 0 0 1 0-1.51552l3.03104-4.096a99.1232 99.1232 0 0 1 21.99552-20.52096z m-125.41952-25.02656l1.10592 0.32768 0.94208 0.6144 77.90592 77.86496a8.47872 8.47872 0 0 1 0 3.56352v4.13696a7.53664 7.53664 0 0 1-1.72032 3.19488l-10.15808 9.99424a7.90528 7.90528 0 0 1-6.18496 2.99008h-2.8672a99.69664 99.69664 0 0 1-80.11776-80.11776v-2.82624a9.0112 9.0112 0 0 1 5.07904-8.47872l10.15808-9.58464a6.7584 6.7584 0 0 1 4.34176-1.67936h1.51552z m74.1376-60.57984l68.8128 68.8128-3.19488 1.14688a103.8336 103.8336 0 0 0-54.72256 54.76352 27.27936 27.27936 0 0 0-1.14688 3.56352l-68.8128-68.8128 3.35872-1.51552 4.5056-2.048a103.8336 103.8336 0 0 0 50.05312-52.51072l1.10592-3.39968z m22.9376-34.03776a99.86048 99.86048 0 0 1 80.2816 80.896v4.3008a9.216 9.216 0 0 1-2.82624 5.07904l-9.95328 10.15808a6.7584 6.7584 0 0 1-4.5056 1.72032h-1.14688l-1.024 0.12288-1.024-0.12288-78.80704-79.0528a6.22592 6.22592 0 0 1-1.14688-3.52256v-3.39968a4.9152 4.9152 0 0 1 1.67936-3.03104l9.6256-10.15808a7.90528 7.90528 0 0 1 6.18496-2.99008h2.62144z m-361.39008-32.64512l4.62848 0.32768a37.02784 37.02784 0 0 1 32.03072 32.03072l0.28672 4.62848-0.28672 4.62848a37.0688 37.0688 0 0 1-32.03072 32.11264l-4.62848 0.28672H211.92704l-4.62848-0.28672a37.0688 37.0688 0 0 1-32.07168-32.11264l-0.28672-4.62848 0.28672-4.62848a37.02784 37.02784 0 0 1 32.07168-32.03072l4.62848-0.32768H394.4448z m85.48352-170.88512l4.62848 0.28672a36.98688 36.98688 0 0 1 32.03072 32.03072l0.28672 4.62848-0.28672 4.66944a36.98688 36.98688 0 0 1-32.03072 32.03072l-4.62848 0.28672H211.92704l-4.62848-0.28672a36.98688 36.98688 0 0 1-32.07168-32.03072l-0.28672-4.66944 0.28672-4.62848a36.98688 36.98688 0 0 1 32.07168-32.03072l4.62848-0.28672h268.00128z m170.92608-173.75232l4.62848 0.28672a36.98688 36.98688 0 0 1 32.07168 32.03072l0.28672 4.62848-0.28672 4.66944a37.02784 37.02784 0 0 1-32.07168 32.03072l-4.62848 0.28672H211.92704l-4.62848-0.28672a37.02784 37.02784 0 0 1-32.07168-32.03072l-0.28672-4.66944 0.28672-4.62848a36.98688 36.98688 0 0 1 32.07168-32.03072l4.62848-0.28672H650.8544z" fill="#63666E" p-id="7274"></path></svg>