<svg t="1582536066592" class="icon" viewBox="0 0 1024 1024" version="1.1" xmlns="http://www.w3.org/2000/svg" p-id="3241" width="20" height="20"><path d="M886.741333 11.648H228.928a117.845333 117.845333 0 0 0-117.504 117.504V152.746667H52.266667c-16.021333 0-29.162667 13.12-29.162667 29.162666v79.424c0 16.021333 13.098667 29.141333 29.162667 29.141334h59.157333v128.554666H52.266667c-16.021333 0-29.162667 13.12-29.162667 29.141334v79.424c0 16.021333 13.098667 29.162667 29.162667 29.162666h59.157333v128.533334H52.266667c-16.021333 0-29.162667 13.12-29.162667 29.162666v79.402667c0 16 13.098667 29.162667 29.162667 29.162667h59.157333v71.978666a117.845333 117.845333 0 0 0 117.504 117.504h657.813333a117.845333 117.845333 0 0 0 117.504-117.504v-765.866666A117.845333 117.845333 0 0 0 886.741333 11.648zM373.546667 292.928c0-20.522667 16.832-37.333333 37.376-37.333333l82.090666 0.042666 1.322667-82.090666a37.461333 37.461333 0 0 1 37.973333-36.736l32.192 0.533333a37.504 37.504 0 0 1 36.736 37.973333l-1.322666 80.341334 80.405333 0.042666c20.522667 0 37.333333 16.832 37.333333 37.376v32.213334c0 20.522667-16.853333 37.333333-37.397333 37.333333l-82.090667-0.042667-1.322666 82.090667a37.482667 37.482667 0 0 1-37.973334 36.714667l-32.170666-0.490667a37.461333 37.461333 0 0 1-36.736-37.973333l1.28-80.384-80.362667-0.021334c-20.544 0-37.333333-16.853333-37.333333-37.376v-32.213333zM874.752 862.293333c0 2.986667-2.453333 5.44-5.461333 5.44h-615.466667a5.482667 5.482667 0 0 1-5.44-5.44v-44.16c0-2.986667 2.453333-5.482667 5.44-5.482666h615.466667c3.008 0 5.461333 2.453333 5.461333 5.482666v44.16z m-99.84-176.64a6.912 6.912 0 0 1-6.890667 6.869334H355.413333a6.912 6.912 0 0 1-6.890666-6.890667v-41.301333c0-3.797333 3.093333-6.890667 6.890666-6.890667H768c3.797333 0 6.890667 3.093333 6.890667 6.869333V685.653333z" fill="#00ACC1" p-id="3242"></path></svg>