<svg t="1582536103270" class="icon" viewBox="0 0 1024 1024" version="1.1" xmlns="http://www.w3.org/2000/svg" p-id="3369" width="20" height="20"><path d="M813.994667 593.450667c114.005333 0 206.805333 90.837333 209.92 204.074666l0.085333 5.866667c0 113.984-90.88 206.741333-204.138667 209.856l-5.866666 0.085333c-115.989333 0-210.005333-93.994667-210.005334-209.92 0-115.968 94.016-209.962667 210.005334-209.962666zM342.826667 731.178667a165.333333 165.333333 0 0 0 240.661333 87.68 230.890667 230.890667 0 0 0 123.84 189.44H110.869333A110.869333 110.869333 0 0 1 0 897.450667v-166.272h342.848z m572.352-3.626667l-120.853334 120.810667-56.533333-56.533334a25.130667 25.130667 0 0 0-35.541333 35.541334l71.061333 71.04 3.242667 3.221333a20.565333 20.565333 0 0 0 27.136 1.706667l1.941333-1.706667 3.242667-3.2 138.602666-138.581333a20.544 20.544 0 0 0 0-29.056l-3.242666-3.242667a20.565333 20.565333 0 0 0-29.056 0zM887.082667 10.666667a55.445333 55.445333 0 0 1 55.317333 51.925333l0.128 3.498667v545.386666a229.973333 229.973333 0 0 0-128.533333-39.018666c-12.885333 0-25.514667 1.066667-37.802667 3.072v-10.624H388.096v55.424l285.098667-0.042667a232.256 232.256 0 0 0-51.733334 55.466667h-11.605333c0 8.597333-0.981333 16.981333-2.837333 25.024-5.162667 10.325333-9.557333 21.12-13.12 32.256a111.104 111.104 0 0 1-15.573334 20.117333C559.104 781.44 527.018667 800 490.666667 800c-58.901333 0-106.666667-48.746667-106.666667-108.864 0-5.226667 0.362667-10.368 1.066667-15.402667H166.336V66.112A55.424 55.424 0 0 1 221.76 10.666667h665.322667zM110.890667 66.090667v609.664h-55.466667V121.514667a55.445333 55.445333 0 0 1 51.946667-55.317334l3.52-0.106666z m665.301333 332.544H388.096v55.424h388.096v-55.424zM498.986667 121.514667h-55.466667v55.424h-55.424v55.424h55.445333v55.424h55.445334v-55.424h55.445333V176.938667h-55.466667V121.514667z" fill="#04B8DD" p-id="3370"></path></svg>