<svg t="1582536146245" class="icon" viewBox="0 0 1024 1024" version="1.1" xmlns="http://www.w3.org/2000/svg" p-id="3497" width="20" height="20"><path d="M763.136 588.842667c118.144 0 214.314667 94.186667 217.493333 211.584l0.085334 5.994666c0 118.165333-94.208 214.314667-211.605334 217.493334l-5.973333 0.085333c-120.170667 0-217.6-97.408-217.6-217.578667s97.429333-217.578667 217.6-217.578666zM583.104 0a77.205333 77.205333 0 0 1 77.184 77.184h112.384a115.818667 115.818667 0 0 1 119.125333 112.384l0.064 3.413333v386.24a259.904 259.904 0 0 0-128.725333-33.898666 260.842667 260.842667 0 0 0-217.216 116.16 38.677333 38.677333 0 0 0-40.064-43.861334h-234.88a38.656 38.656 0 0 0 0 77.269334H509.44a38.485333 38.485333 0 0 0 21.376-7.68 258.218667 258.218667 0 0 0-26.538667 84.842666H270.784l1.706667-0.042666h-1.706667a38.656 38.656 0 1 0 3.370667 77.248h231.381333a260.736 260.736 0 0 0 86.485333 154.389333H158.485333A115.818667 115.818667 0 0 1 42.666667 887.786667V193.066667a115.797333 115.797333 0 0 1 115.818666-115.818667h115.818667C274.304 34.602667 308.757333 0 351.488 0h231.616z m183.744 887.68a30.762667 30.762667 0 1 0 30.272 31.253333v-0.490666a30.506667 30.506667 0 0 0-27.328-30.592l-2.944-0.149334z m-2.026667-224.042667c-17.834667 0-32.298667 9.173333-32.298666 20.48l12.117333 172.138667a20.181333 20.181333 0 0 0 40.384 0.512v-0.512l12.096-172.138667c0-11.306667-14.464-20.48-32.298667-20.48zM352.917333 310.314667a38.613333 38.613333 0 0 0-39.338666 30.890666l-0.725334 6.229334v38.570666h-38.613333a38.613333 38.613333 0 0 0-6.336 76.885334l6.314667 0.298666h38.634666v38.613334a38.613333 38.613333 0 0 0 76.394667 6.250666l0.725333-6.229333v-38.634667h41.770667a38.613333 38.613333 0 0 0 3.178667-76.970666l-6.336-0.213334h-38.549334v-38.570666a38.613333 38.613333 0 0 0-37.12-37.12zM583.04 77.184H351.402667v77.12H583.04V77.184z" fill="#F1556C" p-id="3498"></path></svg>