<svg t="1578054613326" class="icon" viewBox="0 0 1191 1024" version="1.1" xmlns="http://www.w3.org/2000/svg" p-id="9885" width="20" height="20"><path d="M204.8 103.498473v110.349963a37.236364 37.236364 0 0 0 34.443636 37.143273l2.792728 0.093091h167.563636a37.236364 37.236364 0 0 0 37.143273-34.443636l0.093091-2.792728V103.517091h297.890909v110.349964a37.236364 37.236364 0 0 0 34.443636 37.143272l2.792727 0.093091h167.563637a37.236364 37.236364 0 0 0 37.143272-34.443636l0.093091-2.792727V103.517091h130.327273a74.472727 74.472727 0 0 1 74.472727 74.472727v755.116218a74.472727 74.472727 0 0 1-74.472727 74.472728H74.472727a74.472727 74.472727 0 0 1-74.472727-74.472728V177.989818a74.472727 74.472727 0 0 1 74.472727-74.472727h130.327273z m219.284945 517.957818h-117.3504c-100.407855 0.037236-181.8624 72.610909-181.8624 176.909964v12.139054c0 40.178036 72.0896 42.542545 164.342691 42.691491h146.971928c93.835636-0.186182 159.278545-3.258182 159.278545-42.691491v-12.176291c0-104.280436-71.121455-176.872727-171.380364-176.872727zM949.527273 767.702109H688.872727a18.618182 18.618182 0 0 0-18.487854 16.458473l-0.130328 2.159709v36.566109a18.618182 18.618182 0 0 0 16.439855 18.487855l2.178327 0.130327h260.654546a18.618182 18.618182 0 0 0 18.487854-16.439855l0.130328-2.178327v-36.566109a18.618182 18.618182 0 0 0-18.618182-18.618182z m55.854545-184.506182H688.872727a18.618182 18.618182 0 0 0-18.487854 16.458473l-0.130328 2.159709v36.566109a18.618182 18.618182 0 0 0 16.439855 18.506473l2.178327 0.111709h316.509091a18.618182 18.618182 0 0 0 18.487855-16.439855l0.130327-2.178327v-36.566109a18.618182 18.618182 0 0 0-18.618182-18.618182zM350.319709 312.636509c-81.231127 0-146.934691 60.602182-146.934691 135.335564 0 74.789236 65.722182 135.354182 146.934691 135.354182s146.916073-60.602182 146.916073-135.354182c0-74.733382-65.722182-135.354182-146.897455-135.354182zM1061.236364 398.689745H688.872727a18.618182 18.618182 0 0 0-18.487854 16.458473l-0.130328 2.159709v36.566109a18.618182 18.618182 0 0 0 16.439855 18.506473l2.178327 0.111709h372.363637a18.618182 18.618182 0 0 0 18.487854-16.439854l0.130327-2.178328v-36.566109a18.618182 18.618182 0 0 0-18.618181-18.618182zM865.745455 11.245382a65.163636 65.163636 0 0 1 65.163636 65.163636v72.610909a65.163636 65.163636 0 0 1-130.327273 0v-72.610909a65.163636 65.163636 0 0 1 65.163637-65.163636z m-539.927273 0a65.163636 65.163636 0 0 1 65.163636 65.163636v72.610909a65.163636 65.163636 0 0 1-130.327273 0v-72.610909a65.163636 65.163636 0 0 1 65.163637-65.163636z" fill="#FFFFFF" p-id="9886"></path></svg>