<svg t="1596527237749" class="icon" viewBox="0 0 1089 1024" version="1.1" xmlns="http://www.w3.org/2000/svg" p-id="7063" width="64" height="64"><path d="M500.97266375 32a35.54042531 35.54042531 0 0 0-35.54042531 35.54042531v163.40425594h-35.13191531C199.08330219 231.76170219 32.00245062 395.98297906 32.00245062 621.88936156v334.57021313a35.13191531 35.13191531 0 0 0 35.13191532 35.54042531h253.27659562c119.28510656 0 215.28510656-107.84680875 215.28510657-196.9021275V67.54042531a35.54042531 35.54042531 0 0 0-34.72340438-35.54042531z m-179.74468031 888.51063844H103.49181312v-298.62127688c0-187.50638344 134.4-319.04680875 326.80851-319.45531875h34.72340438v156.05106375c-31.45531875 59.64255281-109.88936156 115.2-232.85106375 163.404255a36.76595719 36.76595719 0 0 0 13.48085156 70.67234063 32.68085063 32.68085063 0 0 0 13.88936156-2.85957469 702.22978688 702.22978688 0 0 0 204.25531875-119.28510656v221.41276594a148.6978725 148.6978725 0 0 1-142.57021218 128.68085156zM654.98117469 231.35319125h-35.13191532v-163.404255a35.54042531 35.54042531 0 0 0-71.08085062 0v727.14893625c0 89.05531875 96 196.9021275 215.28510656 196.9021275h253.27659563a35.13191531 35.13191531 0 0 0 35.13191437-35.54042531v-334.57021313c0.81702094-225.90638344-166.26382969-390.12765938-397.48085062-390.53617031z m326.80851 689.15744719h-217.73616938a148.6978725 148.6978725 0 0 1-144.20425594-125.41276594v-221.41276594a702.22978688 702.22978688 0 0 0 204.25531969 119.28510656 32.68085063 32.68085063 0 0 0 13.88936156 2.85957375 36.76595719 36.76595719 0 0 0 13.48085063-70.67233968c-122.55319125-50.24680875-201.395745-105.804255-232.85106375-163.40425594V303.65957469h34.72340437c193.63404281 0 326.80851094 131.94893625 326.80851094 319.45531875z" fill="#63666E" p-id="7064"></path></svg>