<svg t="1574733151934" class="icon" viewBox="0 0 1024 1024" version="1.1" xmlns="http://www.w3.org/2000/svg" p-id="3130" width="200" height="200"><path d="M889.483636 390.749091a67.909818 67.909818 0 0 0-49.896727-22.016h-75.822545l46.219636-90.903273a126.138182 126.138182 0 0 0-43.799273-168.122182 118.504727 118.504727 0 0 0-91.042909-12.846545 121.018182 121.018182 0 0 0-74.798545 59.345454l-109.568 212.666182H185.204364c-18.990545 0-37.096727 8.052364-49.943273 22.062546-12.753455 13.870545-19.083636 32.442182-17.361455 51.2a424.587636 424.587636 0 0 0 222.487273 336.151272v16.570182c0 37.236364 30.161455 67.397818 67.397818 67.444364h209.128728c37.236364 0 67.397818-30.208 67.444363-67.444364v-17.826909A419.514182 419.514182 0 0 0 906.705455 442.181818a67.025455 67.025455 0 0 0-17.221819-51.432727z m-314.088727-22.016l91.275636-177.152a45.242182 45.242182 0 0 1 27.927273-22.109091 42.635636 42.635636 0 0 1 32.861091 4.654545c22.667636 14.894545 29.789091 44.916364 16.151273 68.421819l-64.139637 126.138181-104.075636 0.046546z m-183.249454 349.882182a343.552 343.552 0 0 1-198.190546-274.618182l636.928 2.141091a344.110545 344.110545 0 0 1-198.097454 272.523636 37.608727 37.608727 0 0 0-23.272728 34.769455l-0.279272 33.512727-193.396364 0.372364v-33.512728a37.562182 37.562182 0 0 0-23.691636-35.048727v-0.139636z" fill="#353D48" p-id="3131"></path><path d="M424.308364 632.087273a37.236364 37.236364 0 0 0 4.096-28.485818 37.515636 37.515636 0 0 0-17.268364-23.272728A234.309818 234.309818 0 0 1 340.712727 504.087273a37.608727 37.608727 0 0 0-22.109091-18.618182 36.631273 36.631273 0 0 0-28.532363 2.327273 37.562182 37.562182 0 0 0-16.523637 50.594909 308.549818 308.549818 0 0 0 99.095273 107.054545 37.562182 37.562182 0 0 0 51.618909-13.125818l0.046546-0.232727z" fill="#353D48" p-id="3132"></path></svg>