<svg id="组件_18_5" data-name="组件 18 – 5" xmlns="http://www.w3.org/2000/svg" width="44" height="44" viewBox="0 0 44 44">
  <defs>
    <style>
      .cls-1 {
        fill: none;
      }

      .cls-2 {
        fill: #fff;
      }
    </style>
  </defs>
  <rect id="矩形_499" data-name="矩形 499" class="cls-1" width="44" height="44"/>
  <path id="联合_19" data-name="联合 19" class="cls-2" d="M-330.616-590.849a1.528,1.528,0,0,0-.955-1.42c-6.109-2.47-10.808-9.148-11.428-16.239a.121.121,0,0,1,.033-.1.127.127,0,0,1,.092-.04l36.56.128c-.632,7.094-5.337,13.78-11.44,16.248a1.531,1.531,0,0,0-.958,1.42l-.021,2.419-11.884.024Zm-6.169-14.3a1.535,1.535,0,0,0-.675,2.064,16.529,16.529,0,0,0,5.3,5.72,1.528,1.528,0,0,0,.781.215,1.54,1.54,0,0,0,1.323-.753,1.535,1.535,0,0,0-.537-2.1,13.535,13.535,0,0,1-4.134-4.472,1.541,1.541,0,0,0-1.37-.841A1.5,1.5,0,0,0-336.785-605.148Zm13.792-5.35,6.42-11.894a3.08,3.08,0,0,1,1.9-1.507,2.913,2.913,0,0,1,.76-.1,2.936,2.936,0,0,1,1.507.421,3.4,3.4,0,0,1,1.11,4.546l-4.639,8.535Z" transform="translate(347 628)"/>
</svg>
