<svg t="1587626257288" class="icon" viewBox="0 0 1024 1024" version="1.1" xmlns="http://www.w3.org/2000/svg" p-id="7192" width="20" height="20"><path d="M716.5056 328.896c-3.2-32.1024-25.3184-65.9968-82.048-68.1344-47.7952 2.496-79.1808 36.032-82.048 68.4928-1.0624 9.28 1.0752 26.3936 3.584 45.6576-12.4928-2.496-7.1424 26.048-6.4256 35.328 0.704 9.6256 3.9168 24.6016 14.2592 21.3888 4.992 39.2448 21.4144 51.7248 21.4144 51.7248l-0.3584 41.3824c4.6336 1.0752 7.8464 1.4336 11.0592 2.1376a175.3088 175.3088 0 0 1 87.744-33.8816v-9.984s16.4096-12.4928 21.4144-51.7248c10.3424 2.8416 13.5552-12.1344 14.2592-21.4144 0.7168-8.9088 6.4256-37.8112-6.4128-35.3152 2.496-19.264 4.6336-36.3776 3.5584-45.6576zM483.2128 507.6096l-0.3584-45.6576s18.2016-13.5552 23.552-56.704c11.4048 3.2 14.976-13.2096 15.6928-23.552 0.7168-9.984 6.784-41.728-7.1424-38.8864 2.8544-21.0432 4.992-40.32 3.9296-50.304-3.5712-35.3152-27.8272-72.4096-89.8944-74.9056-52.8 2.496-87.04 39.5904-90.6112 74.9056-1.0624 9.984 1.0752 29.2608 3.9296 50.304-13.9136-2.8544-7.8464 28.8896-7.1424 38.8864 0.7168 10.3424 4.288 27.1104 15.7056 23.552 5.7088 43.1488 23.5392 56.704 23.5392 56.704l-0.3584 46.016s-11.4176 6.784-59.5712 26.752c-48.1536 19.9808-39.8464 16.7936-79.0784 36.0576-62.08 30.6816-55.4112 102.72-55.4112 102.72 0 12.8384 10.3552 23.1808 23.1936 23.1808h325.6832c-1.792-9.984-2.8544-19.968-2.8544-30.6816 0-47.0784 18.9056-89.8944 49.2288-121.28-6.0672-1.0752-15.3344-3.5712-32.4608-10.7008-48.1536-19.968-59.5712-26.4064-59.5712-26.4064z m337.4592 132.7104l-22.1184-4.992a120.6656 120.6656 0 0 0-6.4128-15.7056l11.776-19.968c4.2752-7.1424 6.7712-17.4848 0-24.256l-12.1344-12.1344c-3.2128-3.2-7.5008-4.6336-12.1344-4.6336s-9.2672 1.4208-12.8384 3.9168l-19.264 12.4928a122.496 122.496 0 0 0-15.6928-6.784l-4.992-22.1184c-1.4336-8.192-8.576-17.1136-18.2016-17.1136h-17.1136c-9.6384 0-15.3472 8.9088-17.1264 17.1136l-5.3504 22.1184c-5.7088 1.792-11.4176 4.288-16.768 7.1424l-19.968-12.4928a22.7584 22.7584 0 0 0-12.8512-3.9168c-4.2752 0-8.9216 1.4208-12.1344 4.6336l-12.1216 12.1216c-6.784 6.784-4.288 17.1264 0 24.2688l12.48 21.0432a179.328 179.328 0 0 0-6.0544 14.6176l-22.1184 4.992c-8.2048 1.4336-17.1264 8.576-17.1264 18.2016v17.1264c0 9.6256 8.9216 15.3344 17.1264 17.1136l22.1184 5.7088c1.4208 4.6464 3.5584 9.28 5.696 13.568l-12.48 21.0432c-4.2752 7.1296-6.784 17.472 0 24.256l12.1344 12.1216c3.2 3.2128 7.488 4.6336 12.1216 4.6336s9.28-1.4208 12.8384-3.9168l19.9808-12.4928c5.3504 2.8544 11.0592 5.3632 16.768 7.1424l5.3504 22.1184c1.792 8.192 7.8464 17.1136 17.1264 17.1136h17.1136c9.6384 0 16.768-8.9088 18.2016-17.1136l4.992-22.4768c5.3504-1.792 10.7008-3.9296 15.6928-6.4256l19.264 12.4928c3.5712 2.496 8.2048 3.9168 12.8384 3.9168 4.288 0 8.9216-1.4208 12.1344-4.6336l12.1216-12.48c6.784-6.784 4.288-17.1264 0-24.256l-11.776-19.9808c2.5088-4.6336 4.288-9.6384 6.0672-14.6304l22.1184-5.7088c8.2048-1.7792 17.1264-7.8464 17.1264-17.1136v-17.1264c0.7168-9.984-8.192-17.1264-16.4096-18.56z m-119.8592 67.4176a41.408 41.408 0 0 1-41.3824-41.3824 41.408 41.408 0 0 1 41.3824-41.3824 41.408 41.408 0 0 1 41.3824 41.3824 41.408 41.408 0 0 1-41.3824 41.3824z" fill="#00ACC1" p-id="7193"></path></svg>