<svg id="组件_57_1" data-name="组件 57 – 1" xmlns="http://www.w3.org/2000/svg" width="44" height="44" viewBox="0 0 44 44">
  <defs>
    <style>
      .cls-1 {
        fill: none;
      }

      .cls-2 {
        fill: #fff;
      }
    </style>
  </defs>
  <rect id="矩形_539" data-name="矩形 539" class="cls-1" width="44" height="44"/>
  <path id="路径_203" data-name="路径 203" class="cls-2" d="M37.633,8.2,30.119.687c-.355-.355-1.026-.927-1.4-.572a.929.929,0,0,0,0,1.3h0l1.4,1.795L25.938,7.392l-5.7-5.68a.92.92,0,1,0-1.3,1.3L22.093,6.17A3.269,3.269,0,0,0,20.752,7L5.408,22.341a3.361,3.361,0,0,0-.217,4.516A2.752,2.752,0,0,0,3.87,30.525a2.677,2.677,0,0,0,.532.769l1.085,1.085L.261,37.605a.928.928,0,0,0,0,1.3.911.911,0,0,0,1.3,0h0l5.226-5.226,1.085,1.085a2.762,2.762,0,0,0,3.885,0A3.05,3.05,0,0,0,12.311,34a3.361,3.361,0,0,0,4.516-.217L32.17,18.436A3.491,3.491,0,0,0,33,17.1l3.155,3.155a.929.929,0,0,0,1.3,0,.9.9,0,0,0,0-1.282l-6.508-6.508L35.128,8.28,36.9,9.66a.929.929,0,0,0,1.3,0h0c.355-.434-.217-1.1-.572-1.459ZM10.477,33.424a.929.929,0,0,1-1.3,0h0L5.724,29.953a.929.929,0,0,1,0-1.3.9.9,0,0,1,1.282,0l1.164,1.164L10.457,32.1a.935.935,0,0,1,.02,1.321M23.138,15.439a.964.964,0,0,1-1.361,0h0l-3.944-3.925a.962.962,0,0,1,1.341-1.38l.02.02,3.925,3.925A.947.947,0,0,1,23.138,15.439Zm-3.353,3.353a.964.964,0,0,1-1.361,0L14.5,14.847a.962.962,0,0,1,1.361-1.361l3.925,3.925a.988.988,0,0,1,0,1.38Zm-3.333,3.333a.964.964,0,0,1-1.361,0L11.147,18.2a.962.962,0,1,1,1.361-1.361h0l3.925,3.925a.947.947,0,0,1,.02,1.361Z" transform="translate(3.538 2.19)"/>
</svg>
