<svg t="1617677084916" class="icon" viewBox="0 0 1024 1024" version="1.1" xmlns="http://www.w3.org/2000/svg" p-id="17802" width="200" height="200"><path d="M900.21888 26.624c41.49248 0 76.8 29.98272 80.0768 69.75488l0.24576 6.02112v819.2c0 40.67328-33.34144 72.62208-74.1376 75.5712l-6.18496 0.2048H172.032c-41.53344 0-76.8-29.98272-80.0768-69.75488l-0.24576-6.02112v-81.92a34.816 34.816 0 0 1 69.34528-4.38272l0.28672 4.38272v81.92c0 2.08896 2.78528 4.95616 7.5776 5.85728l3.11296 0.28672h728.18688c5.57056 0 9.25696-2.49856 10.36288-4.79232l0.32768-1.35168v-819.2c0-2.08896-2.78528-4.95616-7.5776-5.85728l-3.11296-0.28672H172.032c-5.57056 0-9.29792 2.49856-10.36288 4.79232l-0.32768 1.35168v81.92a34.816 34.816 0 0 1-69.38624 4.38272L91.7504 184.32v-81.92c0-40.67328 33.30048-72.62208 74.1376-75.5712L172.032 26.624h728.22784z" fill="#63666E" p-id="17803"></path><path d="M44.60544 313.344m34.816 0l94.208 0q34.816 0 34.816 34.816l0 0q0 34.816-34.816 34.816l-94.208 0q-34.816 0-34.816-34.816l0 0q0-34.816 34.816-34.816Z" fill="#63666E" p-id="17804"></path><path d="M44.60544 477.184m34.816 0l94.208 0q34.816 0 34.816 34.816l0 0q0 34.816-34.816 34.816l-94.208 0q-34.816 0-34.816-34.816l0 0q0-34.816 34.816-34.816Z" fill="#63666E" p-id="17805"></path><path d="M44.60544 641.024m34.816 0l94.208 0q34.816 0 34.816 34.816l0 0q0 34.816-34.816 34.816l-94.208 0q-34.816 0-34.816-34.816l0 0q0-34.816 34.816-34.816Z" fill="#63666E" p-id="17806"></path><path d="M290.36544 61.44h69.632v901.12h-69.632zM610.95936 315.392a192.06144 192.06144 0 1 0 0 384.12288 192.06144 192.06144 0 0 0 0-384.12288z m0 65.536a126.52544 126.52544 0 1 1 0 253.05088 126.52544 126.52544 0 0 1 0-253.05088z" fill="#63666E" p-id="17807"></path><path d="M610.95936 439.17312c12.57472 0 22.77376 10.19904 22.77376 22.77376v22.7328h22.7328a22.77376 22.77376 0 1 1 0 45.50656h-22.77376v22.77376a22.77376 22.77376 0 1 1-45.4656 0v-22.77376h-22.77376a22.77376 22.77376 0 1 1 0-45.4656h22.7328v-22.77376c0-12.57472 10.24-22.77376 22.77376-22.77376z" fill="#63666E" p-id="17808"></path><path d="M741.94944 595.80416l73.3184 73.3184a32.768 32.768 0 1 1-46.32576 46.36672l-73.3184-73.3184 46.2848-46.36672z" fill="#63666E" p-id="17809"></path></svg>