<svg t="1587626035156" class="icon" viewBox="0 0 1024 1024" version="1.1" xmlns="http://www.w3.org/2000/svg" p-id="6789" width="20" height="20"><path d="M307.2 537.6v135.1552h409.6V640h64v153.6h-64v-56.8448H307.2V793.6h-64V537.6h64z m396.8-294.4a25.6 25.6 0 0 1 25.6 25.6v294.4a25.6 25.6 0 0 1-25.6 25.6H331.3664v-76.8H281.6V268.8a25.6 25.6 0 0 1 25.6-25.6h396.8z m-228.928 122.5344h-55.8976l-54.976 54.0544h25.1776v108.1088c0 3.7376 3.7248 7.4624 7.4496 7.4624h229.2864c3.7376 0 7.4624-2.816 7.4624-7.4624v-108.1088h26.112l-55.0528-54.0544h-56.8576l-25.1776 24.2304 22.3744 21.44 30.7456-29.824 39.1424 38.208h-17.7152v85.7344h-58.6752v-15.8336l-15.8464 15.8336h-23.296l-15.8336-15.8336v15.8336h-57.792v-85.7344h-17.7152l39.1296-38.208 30.7584 29.824 22.3744-21.44-25.1776-24.2304z m49.472 99.392v9.6512c0 2.8032-0.9216 3.712-3.7376 3.712h-21.44c-1.856 0-3.7376-0.9088-3.7376-2.7904v-9.3056c0-0.9344 0-1.856-0.9216-1.856s-0.9216 0.9216-1.8432 0.9216l-9.3056 9.3184a4.544 4.544 0 0 0 0 6.528c6.4256 4.6464 11.0848 9.344 15.7696 13.9904 2.816 2.816 4.6592 1.8432 6.528 0 3.7376-3.7248 6.5408-3.7248 10.2656 0 2.816 1.8432 4.6592 2.816 6.528 0l14.0032-13.9904c0.9216-0.9216 1.8432-1.8816 1.8432-3.7248 0 0 0-0.9344-0.9216-1.856l-11.1872-11.1872c-1.6384-1.664-1.8304-0.3712-1.8432 0.5888z m20.4288-46.2592s-0.9344 0-1.856 0.9216l-11.1872 11.1872c-1.6128 1.6256-0.3968 1.8176 0.5504 1.8432h10.6368c2.816 0 3.7376 0.9344 3.7376 3.7376v20.4928c0 2.816-0.9344 3.7248-3.7376 3.7248h-10.2656c-0.9216 0-1.8432 0-2.8032 0.9344-0.9216 0.9216 0.9216 1.8432 0.9216 1.8432l9.3056 9.3056a4.544 4.544 0 0 0 6.528 0l14.0032-13.9904a4.544 4.544 0 0 0 0-6.528c-3.7248-4.6592-3.7248-5.5808 0-10.2656 3.7632-3.6352 3.7632-5.5168 1.8816-7.36-4.6464-4.6592-10.2656-9.3056-14.912-13.9904-0.9216-0.9344-1.856-1.856-2.816-1.856z m-69.8624 0.0384c-4.6592 4.6464-10.2656 9.3056-14.9248 13.9904-1.8432 1.8816-1.8432 3.7248 0 6.528 4.6592 4.6592 4.6592 5.5808 0 11.1872-1.8816 2.7392-1.8816 4.5952-0.0256 6.4768 4.6464 4.6464 10.2656 9.3056 14.912 13.9904 0.9216 0.9216 1.8432 1.8432 2.816 1.8432 0 0 0.9088 0 1.8432-0.9216l11.1872-11.1872c1.6384-1.6384 0.3584-1.8304-1.2416-1.8432h-9.92c-2.8032 0-3.7248-0.9344-3.7248-3.7376v-19.5712c0-2.8032 0.9216-3.712 3.7248-3.712h10.2656c0.9216 0 1.8432 0 1.8432-0.9344 0.9344-0.9216 0-0.9216-0.9216-1.8432l-10.2656-10.2656c-1.8432-1.856-3.7248-1.856-5.568 0z m26.0992-22.4c-4.6592 4.6464-10.2656 9.2928-14.912 14.8992-1.856 1.856-1.856 3.7376 0 5.5808l9.3056 9.3056c0.9216 0.9216 0.9216 1.856 1.8432 0.9216 0.9216 0 0.9216-1.8432 0.9216-1.8432v-8.384c0-3.7248 0.9216-4.6464 4.6592-3.7248h18.6368c5.5808 0 5.5808 0 5.5808 5.5808v8.3712c0 1.856 0.9216 1.856 1.8432 0.9344 3.7376-3.7376 7.4624-6.528 10.2656-10.2656 1.856-1.8816 1.856-3.7376 0-4.6592-6.5024-7.424-11.1488-12.0704-15.808-16.7296-1.8432-1.8432-3.7248-1.8432-5.568 0-4.6592 4.6592-6.528 4.6592-11.1872 0-1.856-1.8432-3.7376-1.8432-5.5808 0z m26.0736-68.992h-31.68c-1.856 0-3.7376 1.856-3.7376 3.7376v30.7584c0 1.8816 1.856 3.7248 3.7376 3.7248h31.68c1.8432 0 3.7248-1.8432 3.7248-3.7248v-30.7584c0-1.8432-1.8432-3.7248-3.7248-3.7248z m-56.8576-18.6368h-41.024c-2.816 0-3.7248 1.856-3.7248 3.7376v39.1296c0.0256 2.816 0.9472 4.6848 3.7248 4.6848h41.024c1.8432 0 3.712-1.8432 3.712-3.7248v-40.0896c0-1.856-1.8304-3.7376-3.712-3.7376z m123.9808 0h-41.024c-1.8432 0-3.7248 1.856-3.7248 3.7376v39.1296c0 2.816 1.8432 4.6848 3.7248 4.6848h41.024c1.8432 0 3.712-1.8432 3.712-3.7248v-40.0896c0-1.856-1.8304-3.7376-3.712-3.7376z" fill="#00ACC1" p-id="6790"></path></svg>